<?xml version="1.0" encoding="utf-8"?>
<svg version="1.1" id="Sky-Logo-Light_x5F_Background-RGB"
	 xmlns="http://www.w3.org/2000/svg" xmlns:xlink="http://www.w3.org/1999/xlink" x="0px" y="0px"
	 viewBox="0 0 1613.5047607 563.8887939" style="enable-background:new 0 0 1613.5047607 563.8887939;" xml:space="preserve">
<style type="text/css">
	.st0{fill:#050505;}
	.st1{fill:url(#Element_00000164511805785040246280000009847039034703145892_);}
	.st2{fill:url(#Element_00000148621140242588574170000017295294209231901876_);}
	.st3{fill:url(#Element_00000117677827334628838480000014037598125918231959_);}
	.st4{fill:url(#Element_00000124129980418984075640000007130062634200075913_);}
	.st5{fill:url(#Element_00000099632217827293396850000015911111981359233424_);}
	.st6{fill:url(#Element_00000081623298573400891990000017020838131853105054_);}
	.st7{fill:url(#Element_00000134941924037077956010000013382377039185081021_);}
	.st8{fill:url(#Element_00000077325643289350116910000016144219283176370834_);}
	.st9{fill:url(#Element_00000099636589139126127960000008771250675807599006_);}
	.st10{fill:url(#Element_00000062188899338116036130000016764178751858171792_);}
	.st11{fill:url(#Element_00000104685312940749407830000017877400139623973286_);}
	.st12{fill:url(#Element_00000018937390277224922400000017938005179674731710_);}
	.st13{fill:url(#Element_00000182516054801314816460000014428238900119393681_);}
	.st14{fill:url(#Element_00000040566231241632482730000006027838684925387139_);}
</style>
<g id="Sky-Logo-Light_x5F_Background-RGB_00000178163599649118046730000009512957183358029467_">
	<path id="Sky-Logotype-Black_x5F_Version-RGB" class="st0" d="M1431.53479,563.8887329h-72.7900391l68.6800537-149.7119446
		l-122.0999756-251.8700256h76.8999023l82.1800537,180.82901l76.9000244-180.82901h72.1999512L1431.53479,563.8887329z
		 M1280.5848389,162.3067627l-117.4000244,120.9440308l119.75,164.9779968h-83.3599854l-83.9400635-116.835022
		l-35.2199707,36.9880066v79.8470154h-67.5099487V23.1616669h67.5099487v254.8050995l109.7700195-115.6600037H1280.5848389z
		 M940.9578247,129.4287567l-63.3980103,19.9610138c-4.1089478-25.8320084-25.8289795-63.9945068-81.5959473-63.9945068
		c-42.2650146,0-71.6160278,28.1815033-71.6160278,59.885498c0,26.4199982,16.4370117,46.3809967,48.7230225,53.427002
		l59.875,12.3289948c73.3779907,14.678009,112.7080078,61.0590363,112.7080078,119.7700348
		c0,64.5820007-52.2450562,126.2289734-147.342041,126.2289734c-105.6629639,0-154.3850098-68.1049805-160.8430176-127.9899902
		l65.7460327-18.7879944c4.1099854,43.4459839,35.2210083,83.3699951,95.0969849,83.3699951
		c49.8970337,0,75.7260132-25.2460022,75.7260132-57.5369873c0-27.007019-19.9589844-48.730011-55.7670288-56.3619995
		l-58.7019653-12.3300171c-63.3980103-12.9160156-105.6630249-54.6010132-105.6630249-116.8340149
		c0-69.866394,63.9850464-127.4030914,141.4710083-127.4030914
		C893.4088135,23.1616669,931.5648193,83.0467606,940.9578247,129.4287567z"/>
	<g id="Sky-Logomark-RGB">
		
			<radialGradient id="Element_00000012448835854592524520000010424539257271389084_" cx="-459.7414551" cy="823.6199951" r="1.0000044" gradientTransform="matrix(-183.9664612 -158.8444214 -158.8460693 183.9645538 46493.3671875 -224302.65625)" gradientUnits="userSpaceOnUse">
			<stop  offset="0" style="stop-color:#A273FF"/>
			<stop  offset="0.9999995" style="stop-color:#4331E9"/>
		</radialGradient>
		
			<path id="Element_00000044167552343911186970000016570348250823811765_" style="fill:url(#Element_00000012448835854592524520000010424539257271389084_);" d="
			M46.1397629,99.5873489c7.4391403-10.2390442,15.6713753-19.8777771,24.6207123-28.8270264l3.0025177,1.6549911
			l166.2498779,167.1429596l1.5780182,2.0329742L46.1397629,99.5873489z"/>
		
			<radialGradient id="Element_00000006692943999198363200000015046608884601378706_" cx="-459.6149902" cy="821.111084" r="1.0000043" gradientTransform="matrix(-38.6771774 -244.3473816 -244.3469543 38.6763077 183100.984375 -143821.671875)" gradientUnits="userSpaceOnUse">
			<stop  offset="0" style="stop-color:#F7A7F9"/>
			<stop  offset="1" style="stop-color:#00DDFB"/>
		</radialGradient>
		
			<path id="Element_00000067922676260198261400000017549141762695844501_" style="fill:url(#Element_00000006692943999198363200000015046608884601378706_);" d="
			M70.760376,70.7604218c36.0758667-36.0758743,82.6470947-59.8048286,133.037323-67.7859955l1.6710052,4.5939217
			l36.1221771,230.8199463v3.2029572L70.760376,70.7604218z"/>
		
			<radialGradient id="Element_00000070081109814511325730000017983604985793208218_" cx="241.5903473" cy="755.5919189" r="247.565033" gradientTransform="matrix(1 0 0 1 0 -514)" gradientUnits="userSpaceOnUse">
			<stop  offset="0" style="stop-color:#FFF3D0"/>
			<stop  offset="1" style="stop-color:#FFC044"/>
		</radialGradient>
		
			<path id="Element_00000109020290859327624860000005101791578295230888_" style="fill:url(#Element_00000070081109814511325730000017983604985793208218_);" d="
			M351.2973938,26.3452988c11.269043,5.7436638,22.0700989,12.3633232,32.3021545,19.7980766l-0.4320068,3.7628746
			L242.4658813,240.8912659l-0.875,0.6999817L351.2973938,26.3452988z"/>
		
			<radialGradient id="Element_00000125587765682183499370000008633993351296803260_" cx="-459.3680115" cy="820.6008911" r="1.0029476" gradientTransform="matrix(1.500000e-14 -247.1404419 -247.1399994 -1.500000e-14 203044.46875 -113286.8828125)" gradientUnits="userSpaceOnUse">
			<stop  offset="0" style="stop-color:#A273FF"/>
			<stop  offset="0.4999996" style="stop-color:#9FAEFF"/>
			<stop  offset="1" style="stop-color:#AAF2E1"/>
		</radialGradient>
		
			<path id="Element_00000110469102946761658830000000076862869773222826_" style="fill:url(#Element_00000125587765682183499370000008633993351296803260_);" d="
			M483.1819763,241.5912476c0,25.3508606-3.9899902,50.5447083-11.8240356,74.6555481l-5.7140198,0.9200134l-222.2760468-74.6705627
			l-1.7769928-0.9049988H483.1819763z"/>
		
			<radialGradient id="Element_00000029017915348751008630000010846477291707577986_" cx="-452.9111938" cy="820.9995728" r="1.0000044" gradientTransform="matrix(199.392807 144.8164215 144.8184967 -199.3915405 -28347.1035156 229530.9375)" gradientUnits="userSpaceOnUse">
			<stop  offset="0" style="stop-color:#0075FF"/>
			<stop  offset="1" style="stop-color:#00DDFB"/>
		</radialGradient>
		
			<path id="Element_00000097470110528704223640000008549261527506419122_" style="fill:url(#Element_00000029017915348751008630000010846477291707577986_);" d="
			M471.3599548,316.2417908c-7.8340454,24.1108398-19.4130859,46.8387146-34.3141479,67.3485718l-5.5060425-0.93396
			L242.7328796,242.7772522l-1.1419983-1.1860046L471.3599548,316.2417908z"/>
		
			<radialGradient id="Element_00000069385653584835119800000011999391443791517875_" cx="-453.1294556" cy="824.2880859" r="1.0000042" gradientTransform="matrix(1.500000e-14 247.3404388 247.3399963 -1.500000e-14 -203637.828125 112318.8359375)" gradientUnits="userSpaceOnUse">
			<stop  offset="9.584666e-09" style="stop-color:#FFCD6B"/>
			<stop  offset="1" style="stop-color:#EB5EDF"/>
		</radialGradient>
		
			<path id="Element_00000145049187385591529420000006183895368610453387_" style="fill:url(#Element_00000069385653584835119800000011999391443791517875_);" d="
			M316.2472229,471.3578186c-36.2601624,11.7809448-74.7933502,14.8139038-112.4495239,8.8499756l-1.5079956-4.6309814
			l38.2121582-229.8755798l1.0890198-4.1099854L316.2472229,471.3578186z"/>
		
			<radialGradient id="Element_00000145755206662708064350000000363104476411552414_" cx="-453.1358948" cy="824.2843018" r="1.0000042" gradientTransform="matrix(1.500000e-14 247.8524323 247.852005 -1.500000e-14 -204058.921875 112552.421875)" gradientUnits="userSpaceOnUse">
			<stop  offset="0" style="stop-color:#D4FAFF"/>
			<stop  offset="1" style="stop-color:#00DDFB"/>
		</radialGradient>
		
			<path id="Element_00000039817084087627695930000015825888375774722979_" style="fill:url(#Element_00000145755206662708064350000000363104476411552414_);" d="
			M203.797699,480.2077942c-12.500061-1.980011-24.8251038-4.9389648-36.8621674-8.8499756l-0.6670074-5.5869446
			l73.945343-221.6586304l1.3770142-2.5209961L203.797699,480.2077942z"/>
		
			<radialGradient id="Element_00000070828492570919528030000012540054910077543343_" cx="-454.2956238" cy="825.2080688" r="1.0000042" gradientTransform="matrix(-108.4336548 241.5890503 241.5897522 108.4317245 -248381.15625 20515.7109375)" gradientUnits="userSpaceOnUse">
			<stop  offset="0" style="stop-color:#FFD2B9"/>
			<stop  offset="0.289583" style="stop-color:#C99BED"/>
			<stop  offset="1" style="stop-color:#0075FF"/>
		</radialGradient>
		
			<path id="Element_00000061473301769137083630000013141935270550838663_" style="fill:url(#Element_00000070828492570919528030000012540054910077543343_);" d="
			M166.9355316,471.3578186c-24.1111145-7.8339233-46.8382263-19.4138794-67.348114-34.3157959v-4.3719482L239.1238708,244.054245
			l2.4670105-2.4629974L166.9355316,471.3578186z"/>
		
			<radialGradient id="Element_00000119806246361325149530000003338305019336607649_" cx="-457.6647034" cy="824.8410645" r="1.0000045" gradientTransform="matrix(-321.8009949 0 0 321.8006592 -147035.375 -265192.78125)" gradientUnits="userSpaceOnUse">
			<stop  offset="0" style="stop-color:#6D28FF"/>
			<stop  offset="1" style="stop-color:#F7A7F9"/>
		</radialGradient>
		
			<path id="Element_00000181773346172155571440000016914713072259671740_" style="fill:url(#Element_00000119806246361325149530000003338305019336607649_);" d="
			M26.331871,351.2705688C9.0232115,317.3007812,0.000006,279.7170105,0,241.5912476l3.0903742-1.1399841h230.6854553
			l7.8150482,1.1399841L26.331871,351.2705688z"/>
		
			<radialGradient id="Element_00000041994466587978823650000002440384247614336171_" cx="-459.3682556" cy="820.5991821" r="1.0000042" gradientTransform="matrix(1.500000e-14 -247.1404419 -247.1399994 -1.500000e-14 203044.46875 -113286.8828125)" gradientUnits="userSpaceOnUse">
			<stop  offset="0" style="stop-color:#A273FF"/>
			<stop  offset="0.5" style="stop-color:#9FAEFF"/>
			<stop  offset="0.9999997" style="stop-color:#AAF2E1"/>
		</radialGradient>
		
			<path id="Element_00000023975062333216695040000005937689588518168235_" style="fill:url(#Element_00000041994466587978823650000002440384247614336171_);" d="
			M203.7836914,2.9766927c37.6621857-5.9674129,76.2013855-2.9351459,112.4665222,8.8487949l-74.6593323,229.7657623
			L203.7836914,2.9766927z"/>
		
			<radialGradient id="Element_00000169549697526897674920000005082113723062677948_" cx="-1582.5606689" cy="829.4111328" r="1.0002127" gradientTransform="matrix(1.500000e-14 247.3404388 247.3399963 -1.500000e-14 -204905 391672.84375)" gradientUnits="userSpaceOnUse">
			<stop  offset="0.0002144" style="stop-color:#FFCD6B"/>
			<stop  offset="1" style="stop-color:#EB5EDF"/>
		</radialGradient>
		
			<path id="Element_00000052826623578741950030000017756793909441827747_" style="fill:url(#Element_00000169549697526897674920000005082113723062677948_);" d="
			M383.5955505,46.1406746c41.2731934,29.986515,71.9933472,72.2683563,87.7604065,120.7870483l-229.7650757,74.6635284
			L383.5955505,46.1406746z"/>
		
			<radialGradient id="Element_00000023969143114307366340000007020840267915121312_" cx="-459.7414551" cy="823.6199951" r="1.0000044" gradientTransform="matrix(-183.9664612 -158.8444214 -158.8460693 183.9645538 46493.3671875 -224302.65625)" gradientUnits="userSpaceOnUse">
			<stop  offset="0" style="stop-color:#A273FF"/>
			<stop  offset="1" style="stop-color:#4331E9"/>
		</radialGradient>
		
			<path id="Element_00000100354310768109977490000000935191994660882865_" style="fill:url(#Element_00000023969143114307366340000007020840267915121312_);" d="
			M99.5874176,437.0420227c-20.5098038-14.9009094-38.5463829-32.9377747-53.4476547-53.4476624l195.4511108-142.0031128
			L99.5874176,437.0420227z"/>
		
			<radialGradient id="Element_00000042736567733096140780000016894176998190727046_" cx="-458.0896606" cy="825.5598145" r="1.0000046" gradientTransform="matrix(-247.5590057 0 0 247.5584412 -113162.6328125 -204132.703125)" gradientUnits="userSpaceOnUse">
			<stop  offset="0" style="stop-color:#FFF3D0"/>
			<stop  offset="1" style="stop-color:#FFC044"/>
		</radialGradient>
		
			<path id="Element_00000121964959389236445090000007430425758838976413_" style="fill:url(#Element_00000042736567733096140780000016894176998190727046_);" d="
			M0,241.5912476c0.000002-25.3518219,3.9902685-50.5456696,11.8243055-74.6565247l229.766571,74.6565247H0z"/>
		
			<radialGradient id="Element_00000065053122795555998370000015653825804339577739_" cx="-459.7414551" cy="823.6199951" r="1.0000044" gradientTransform="matrix(-183.9664612 -158.8444214 -158.8460693 183.9645538 46493.3671875 -224302.65625)" gradientUnits="userSpaceOnUse">
			<stop  offset="0" style="stop-color:#A273FF"/>
			<stop  offset="1" style="stop-color:#4331E9"/>
		</radialGradient>
		<path id="Element" style="fill:url(#Element_00000065053122795555998370000015653825804339577739_);" d="M437.0498047,383.5843811
			c-14.900116,20.5108643-32.9361572,38.5477295-53.4452515,53.4506531L241.5908813,241.5912476L437.0498047,383.5843811z"/>
	</g>
</g>
</svg>
