<svg width="1440" height="498" viewBox="0 0 1440 498" fill="none" xmlns="http://www.w3.org/2000/svg">
<rect x="1440" width="498" height="304" transform="rotate(90 1440 0)" fill="url(#paint0_linear)"/>
<rect width="498" height="414" transform="matrix(-1.19249e-08 1 1 1.19249e-08 0 0)" fill="url(#paint1_linear)"/>
<path d="M244 277.5C244 278.881 242.881 280 241.5 280C240.119 280 239 278.881 239 277.5C239 276.119 240.119 275 241.5 275C242.881 275 244 276.119 244 277.5Z" fill="url(#paint2_linear)"/>
<path d="M265 277.5C265 278.881 263.881 280 262.5 280C261.119 280 260 278.881 260 277.5C260 276.119 261.119 275 262.5 275C263.881 275 265 276.119 265 277.5Z" fill="url(#paint3_linear)"/>
<path d="M328 277.5C328 278.881 326.881 280 325.5 280C324.119 280 323 278.881 323 277.5C323 276.119 324.119 275 325.5 275C326.881 275 328 276.119 328 277.5Z" fill="url(#paint4_linear)"/>
<path d="M202 298.5C202 299.881 200.881 301 199.5 301C198.119 301 197 299.881 197 298.5C197 297.119 198.119 296 199.5 296C200.881 296 202 297.119 202 298.5Z" fill="url(#paint5_linear)"/>
<path d="M244 298.5C244 299.881 242.881 301 241.5 301C240.119 301 239 299.881 239 298.5C239 297.119 240.119 296 241.5 296C242.881 296 244 297.119 244 298.5Z" fill="url(#paint6_linear)"/>
<path d="M307 298.5C307 299.881 305.881 301 304.5 301C303.119 301 302 299.881 302 298.5C302 297.119 303.119 296 304.5 296C305.881 296 307 297.119 307 298.5Z" fill="url(#paint7_linear)"/>
<path d="M328 298.5C328 299.881 326.881 301 325.5 301C324.119 301 323 299.881 323 298.5C323 297.119 324.119 296 325.5 296C326.881 296 328 297.119 328 298.5Z" fill="url(#paint8_linear)"/>
<path d="M223 319.5C223 320.881 221.881 322 220.5 322C219.119 322 218 320.881 218 319.5C218 318.119 219.119 317 220.5 317C221.881 317 223 318.119 223 319.5Z" fill="url(#paint9_linear)"/>
<path d="M244 319.5C244 320.881 242.881 322 241.5 322C240.119 322 239 320.881 239 319.5C239 318.119 240.119 317 241.5 317C242.881 317 244 318.119 244 319.5Z" fill="url(#paint10_linear)"/>
<path d="M265 319.5C265 320.881 263.881 322 262.5 322C261.119 322 260 320.881 260 319.5C260 318.119 261.119 317 262.5 317C263.881 317 265 318.119 265 319.5Z" fill="url(#paint11_linear)"/>
<path d="M181 340.5C181 341.881 179.881 343 178.5 343C177.119 343 176 341.881 176 340.5C176 339.119 177.119 338 178.5 338C179.881 338 181 339.119 181 340.5Z" fill="url(#paint12_linear)"/>
<path d="M223 340.5C223 341.881 221.881 343 220.5 343C219.119 343 218 341.881 218 340.5C218 339.119 219.119 338 220.5 338C221.881 338 223 339.119 223 340.5Z" fill="url(#paint13_linear)"/>
<path d="M244 340.5C244 341.881 242.881 343 241.5 343C240.119 343 239 341.881 239 340.5C239 339.119 240.119 338 241.5 338C242.881 338 244 339.119 244 340.5Z" fill="url(#paint14_linear)"/>
<path d="M265 340.5C265 341.881 263.881 343 262.5 343C261.119 343 260 341.881 260 340.5C260 339.119 261.119 338 262.5 338C263.881 338 265 339.119 265 340.5Z" fill="url(#paint15_linear)"/>
<path d="M307 340.5C307 341.881 305.881 343 304.5 343C303.119 343 302 341.881 302 340.5C302 339.119 303.119 338 304.5 338C305.881 338 307 339.119 307 340.5Z" fill="url(#paint16_linear)"/>
<path d="M202 361.5C202 362.881 200.881 364 199.5 364C198.119 364 197 362.881 197 361.5C197 360.119 198.119 359 199.5 359C200.881 359 202 360.119 202 361.5Z" fill="url(#paint17_linear)"/>
<path d="M265 361.5C265 362.881 263.881 364 262.5 364C261.119 364 260 362.881 260 361.5C260 360.119 261.119 359 262.5 359C263.881 359 265 360.119 265 361.5Z" fill="url(#paint18_linear)"/>
<path d="M286 361.5C286 362.881 284.881 364 283.5 364C282.119 364 281 362.881 281 361.5C281 360.119 282.119 359 283.5 359C284.881 359 286 360.119 286 361.5Z" fill="url(#paint19_linear)"/>
<path d="M307 361.5C307 362.881 305.881 364 304.5 364C303.119 364 302 362.881 302 361.5C302 360.119 303.119 359 304.5 359C305.881 359 307 360.119 307 361.5Z" fill="url(#paint20_linear)"/>
<path d="M328 361.5C328 362.881 326.881 364 325.5 364C324.119 364 323 362.881 323 361.5C323 360.119 324.119 359 325.5 359C326.881 359 328 360.119 328 361.5Z" fill="url(#paint21_linear)"/>
<path d="M202 382.5C202 383.881 200.881 385 199.5 385C198.119 385 197 383.881 197 382.5C197 381.119 198.119 380 199.5 380C200.881 380 202 381.119 202 382.5Z" fill="url(#paint22_linear)"/>
<path d="M223 382.5C223 383.881 221.881 385 220.5 385C219.119 385 218 383.881 218 382.5C218 381.119 219.119 380 220.5 380C221.881 380 223 381.119 223 382.5Z" fill="url(#paint23_linear)"/>
<path d="M244 382.5C244 383.881 242.881 385 241.5 385C240.119 385 239 383.881 239 382.5C239 381.119 240.119 380 241.5 380C242.881 380 244 381.119 244 382.5Z" fill="url(#paint24_linear)"/>
<path d="M265 382.5C265 383.881 263.881 385 262.5 385C261.119 385 260 383.881 260 382.5C260 381.119 261.119 380 262.5 380C263.881 380 265 381.119 265 382.5Z" fill="url(#paint25_linear)"/>
<path d="M181 403.5C181 404.881 179.881 406 178.5 406C177.119 406 176 404.881 176 403.5C176 402.119 177.119 401 178.5 401C179.881 401 181 402.119 181 403.5Z" fill="url(#paint26_linear)"/>
<path d="M244 403.5C244 404.881 242.881 406 241.5 406C240.119 406 239 404.881 239 403.5C239 402.119 240.119 401 241.5 401C242.881 401 244 402.119 244 403.5Z" fill="url(#paint27_linear)"/>
<path d="M307 403.5C307 404.881 305.881 406 304.5 406C303.119 406 302 404.881 302 403.5C302 402.119 303.119 401 304.5 401C305.881 401 307 402.119 307 403.5Z" fill="url(#paint28_linear)"/>
<path d="M328 403.5C328 404.881 326.881 406 325.5 406C324.119 406 323 404.881 323 403.5C323 402.119 324.119 401 325.5 401C326.881 401 328 402.119 328 403.5Z" fill="url(#paint29_linear)"/>
<path d="M202 424.5C202 425.881 200.881 427 199.5 427C198.119 427 197 425.881 197 424.5C197 423.119 198.119 422 199.5 422C200.881 422 202 423.119 202 424.5Z" fill="url(#paint30_linear)"/>
<path d="M244 424.5C244 425.881 242.881 427 241.5 427C240.119 427 239 425.881 239 424.5C239 423.119 240.119 422 241.5 422C242.881 422 244 423.119 244 424.5Z" fill="url(#paint31_linear)"/>
<path d="M265 424.5C265 425.881 263.881 427 262.5 427C261.119 427 260 425.881 260 424.5C260 423.119 261.119 422 262.5 422C263.881 422 265 423.119 265 424.5Z" fill="url(#paint32_linear)"/>
<path d="M286 424.5C286 425.881 284.881 427 283.5 427C282.119 427 281 425.881 281 424.5C281 423.119 282.119 422 283.5 422C284.881 422 286 423.119 286 424.5Z" fill="url(#paint33_linear)"/>
<path d="M75 424.5C75 423.119 73.8807 422 72.5 422C71.1193 422 70 423.119 70 424.5C70 425.881 71.1193 427 72.5 427C73.8807 427 75 425.881 75 424.5Z" fill="url(#paint34_linear)"/>
<path d="M96 424.5C96 423.119 94.8807 422 93.5 422C92.1193 422 91 423.119 91 424.5C91 425.881 92.1193 427 93.5 427C94.8807 427 96 425.881 96 424.5Z" fill="url(#paint35_linear)"/>
<path d="M159 424.5C159 423.119 157.881 422 156.5 422C155.119 422 154 423.119 154 424.5C154 425.881 155.119 427 156.5 427C157.881 427 159 425.881 159 424.5Z" fill="url(#paint36_linear)"/>
<path d="M33 403.5C33 402.119 31.8807 401 30.5 401C29.1193 401 28 402.119 28 403.5C28 404.881 29.1193 406 30.5 406C31.8807 406 33 404.881 33 403.5Z" fill="url(#paint37_linear)"/>
<path d="M75 403.5C75 402.119 73.8807 401 72.5 401C71.1193 401 70 402.119 70 403.5C70 404.881 71.1193 406 72.5 406C73.8807 406 75 404.881 75 403.5Z" fill="url(#paint38_linear)"/>
<path d="M138 403.5C138 402.119 136.881 401 135.5 401C134.119 401 133 402.119 133 403.5C133 404.881 134.119 406 135.5 406C136.881 406 138 404.881 138 403.5Z" fill="url(#paint39_linear)"/>
<path d="M159 403.5C159 402.119 157.881 401 156.5 401C155.119 401 154 402.119 154 403.5C154 404.881 155.119 406 156.5 406C157.881 406 159 404.881 159 403.5Z" fill="url(#paint40_linear)"/>
<path d="M54 382.5C54 381.119 52.8807 380 51.5 380C50.1193 380 49 381.119 49 382.5C49 383.881 50.1193 385 51.5 385C52.8807 385 54 383.881 54 382.5Z" fill="url(#paint41_linear)"/>
<path d="M75 382.5C75 381.119 73.8807 380 72.5 380C71.1193 380 70 381.119 70 382.5C70 383.881 71.1193 385 72.5 385C73.8807 385 75 383.881 75 382.5Z" fill="url(#paint42_linear)"/>
<path d="M96 382.5C96 381.119 94.8807 380 93.5 380C92.1193 380 91 381.119 91 382.5C91 383.881 92.1193 385 93.5 385C94.8807 385 96 383.881 96 382.5Z" fill="url(#paint43_linear)"/>
<path d="M12 361.5C12 360.119 10.8807 359 9.5 359C8.11929 359 7 360.119 7 361.5C7 362.881 8.11929 364 9.5 364C10.8807 364 12 362.881 12 361.5Z" fill="url(#paint44_linear)"/>
<path d="M54 361.5C54 360.119 52.8807 359 51.5 359C50.1193 359 49 360.119 49 361.5C49 362.881 50.1193 364 51.5 364C52.8807 364 54 362.881 54 361.5Z" fill="url(#paint45_linear)"/>
<path d="M75 361.5C75 360.119 73.8807 359 72.5 359C71.1193 359 70 360.119 70 361.5C70 362.881 71.1193 364 72.5 364C73.8807 364 75 362.881 75 361.5Z" fill="url(#paint46_linear)"/>
<path d="M96 361.5C96 360.119 94.8807 359 93.5 359C92.1193 359 91 360.119 91 361.5C91 362.881 92.1193 364 93.5 364C94.8807 364 96 362.881 96 361.5Z" fill="url(#paint47_linear)"/>
<path d="M138 361.5C138 360.119 136.881 359 135.5 359C134.119 359 133 360.119 133 361.5C133 362.881 134.119 364 135.5 364C136.881 364 138 362.881 138 361.5Z" fill="url(#paint48_linear)"/>
<path d="M96 340.5C96 339.119 94.8807 338 93.5 338C92.1193 338 91 339.119 91 340.5C91 341.881 92.1193 343 93.5 343C94.8807 343 96 341.881 96 340.5Z" fill="url(#paint49_linear)"/>
<path d="M117 340.5C117 339.119 115.881 338 114.5 338C113.119 338 112 339.119 112 340.5C112 341.881 113.119 343 114.5 343C115.881 343 117 341.881 117 340.5Z" fill="url(#paint50_linear)"/>
<path d="M138 340.5C138 339.119 136.881 338 135.5 338C134.119 338 133 339.119 133 340.5C133 341.881 134.119 343 135.5 343C136.881 343 138 341.881 138 340.5Z" fill="url(#paint51_linear)"/>
<path d="M159 340.5C159 339.119 157.881 338 156.5 338C155.119 338 154 339.119 154 340.5C154 341.881 155.119 343 156.5 343C157.881 343 159 341.881 159 340.5Z" fill="url(#paint52_linear)"/>
<path d="M33 319.5C33 318.119 31.8807 317 30.5 317C29.1193 317 28 318.119 28 319.5C28 320.881 29.1193 322 30.5 322C31.8807 322 33 320.881 33 319.5Z" fill="url(#paint53_linear)"/>
<path d="M75 319.5C75 318.119 73.8807 317 72.5 317C71.1193 317 70 318.119 70 319.5C70 320.881 71.1193 322 72.5 322C73.8807 322 75 320.881 75 319.5Z" fill="url(#paint54_linear)"/>
<path d="M96 319.5C96 318.119 94.8807 317 93.5 317C92.1193 317 91 318.119 91 319.5C91 320.881 92.1193 322 93.5 322C94.8807 322 96 320.881 96 319.5Z" fill="url(#paint55_linear)"/>
<path d="M12 298.5C12 297.119 10.8807 296 9.5 296C8.11929 296 7 297.119 7 298.5C7 299.881 8.11929 301 9.5 301C10.8807 301 12 299.881 12 298.5Z" fill="url(#paint56_linear)"/>
<path d="M75 298.5C75 297.119 73.8807 296 72.5 296C71.1193 296 70 297.119 70 298.5C70 299.881 71.1193 301 72.5 301C73.8807 301 75 299.881 75 298.5Z" fill="url(#paint57_linear)"/>
<path d="M138 298.5C138 297.119 136.881 296 135.5 296C134.119 296 133 297.119 133 298.5C133 299.881 134.119 301 135.5 301C136.881 301 138 299.881 138 298.5Z" fill="url(#paint58_linear)"/>
<path d="M159 298.5C159 297.119 157.881 296 156.5 296C155.119 296 154 297.119 154 298.5C154 299.881 155.119 301 156.5 301C157.881 301 159 299.881 159 298.5Z" fill="url(#paint59_linear)"/>
<path d="M33 277.5C33 276.119 31.8807 275 30.5 275C29.1193 275 28 276.119 28 277.5C28 278.881 29.1193 280 30.5 280C31.8807 280 33 278.881 33 277.5Z" fill="url(#paint60_linear)"/>
<path d="M75 277.5C75 276.119 73.8807 275 72.5 275C71.1193 275 70 276.119 70 277.5C70 278.881 71.1193 280 72.5 280C73.8807 280 75 278.881 75 277.5Z" fill="url(#paint61_linear)"/>
<path d="M96 277.5C96 276.119 94.8807 275 93.5 275C92.1193 275 91 276.119 91 277.5C91 278.881 92.1193 280 93.5 280C94.8807 280 96 278.881 96 277.5Z" fill="url(#paint62_linear)"/>
<path d="M117 277.5C117 276.119 115.881 275 114.5 275C113.119 275 112 276.119 112 277.5C112 278.881 113.119 280 114.5 280C115.881 280 117 278.881 117 277.5Z" fill="url(#paint63_linear)"/>
<path d="M1417 172.5C1417 173.881 1415.88 175 1414.5 175C1413.12 175 1412 173.881 1412 172.5C1412 171.119 1413.12 170 1414.5 170C1415.88 170 1417 171.119 1417 172.5Z" fill="url(#paint64_linear)"/>
<path d="M1438 193.5C1438 194.881 1436.88 196 1435.5 196C1434.12 196 1433 194.881 1433 193.5C1433 192.119 1434.12 191 1435.5 191C1436.88 191 1438 192.119 1438 193.5Z" fill="url(#paint65_linear)"/>
<path d="M1396 214.5C1396 215.881 1394.88 217 1393.5 217C1392.12 217 1391 215.881 1391 214.5C1391 213.119 1392.12 212 1393.5 212C1394.88 212 1396 213.119 1396 214.5Z" fill="url(#paint66_linear)"/>
<path d="M1438 214.5C1438 215.881 1436.88 217 1435.5 217C1434.12 217 1433 215.881 1433 214.5C1433 213.119 1434.12 212 1435.5 212C1436.88 212 1438 213.119 1438 214.5Z" fill="url(#paint67_linear)"/>
<path d="M1417 235.5C1417 236.881 1415.88 238 1414.5 238C1413.12 238 1412 236.881 1412 235.5C1412 234.119 1413.12 233 1414.5 233C1415.88 233 1417 234.119 1417 235.5Z" fill="url(#paint68_linear)"/>
<path d="M1417 256.5C1417 257.881 1415.88 259 1414.5 259C1413.12 259 1412 257.881 1412 256.5C1412 255.119 1413.12 254 1414.5 254C1415.88 254 1417 255.119 1417 256.5Z" fill="url(#paint69_linear)"/>
<path d="M1438 256.5C1438 257.881 1436.88 259 1435.5 259C1434.12 259 1433 257.881 1433 256.5C1433 255.119 1434.12 254 1435.5 254C1436.88 254 1438 255.119 1438 256.5Z" fill="url(#paint70_linear)"/>
<path d="M1396 277.5C1396 278.881 1394.88 280 1393.5 280C1392.12 280 1391 278.881 1391 277.5C1391 276.119 1392.12 275 1393.5 275C1394.88 275 1396 276.119 1396 277.5Z" fill="url(#paint71_linear)"/>
<path d="M1417 298.5C1417 299.881 1415.88 301 1414.5 301C1413.12 301 1412 299.881 1412 298.5C1412 297.119 1413.12 296 1414.5 296C1415.88 296 1417 297.119 1417 298.5Z" fill="url(#paint72_linear)"/>
<path d="M1290 298.5C1290 297.119 1288.88 296 1287.5 296C1286.12 296 1285 297.119 1285 298.5C1285 299.881 1286.12 301 1287.5 301C1288.88 301 1290 299.881 1290 298.5Z" fill="url(#paint73_linear)"/>
<path d="M1311 298.5C1311 297.119 1309.88 296 1308.5 296C1307.12 296 1306 297.119 1306 298.5C1306 299.881 1307.12 301 1308.5 301C1309.88 301 1311 299.881 1311 298.5Z" fill="url(#paint74_linear)"/>
<path d="M1374 298.5C1374 297.119 1372.88 296 1371.5 296C1370.12 296 1369 297.119 1369 298.5C1369 299.881 1370.12 301 1371.5 301C1372.88 301 1374 299.881 1374 298.5Z" fill="url(#paint75_linear)"/>
<path d="M1248 277.5C1248 276.119 1246.88 275 1245.5 275C1244.12 275 1243 276.119 1243 277.5C1243 278.881 1244.12 280 1245.5 280C1246.88 280 1248 278.881 1248 277.5Z" fill="url(#paint76_linear)"/>
<path d="M1290 277.5C1290 276.119 1288.88 275 1287.5 275C1286.12 275 1285 276.119 1285 277.5C1285 278.881 1286.12 280 1287.5 280C1288.88 280 1290 278.881 1290 277.5Z" fill="url(#paint77_linear)"/>
<path d="M1353 277.5C1353 276.119 1351.88 275 1350.5 275C1349.12 275 1348 276.119 1348 277.5C1348 278.881 1349.12 280 1350.5 280C1351.88 280 1353 278.881 1353 277.5Z" fill="url(#paint78_linear)"/>
<path d="M1374 277.5C1374 276.119 1372.88 275 1371.5 275C1370.12 275 1369 276.119 1369 277.5C1369 278.881 1370.12 280 1371.5 280C1372.88 280 1374 278.881 1374 277.5Z" fill="url(#paint79_linear)"/>
<path d="M1269 256.5C1269 255.119 1267.88 254 1266.5 254C1265.12 254 1264 255.119 1264 256.5C1264 257.881 1265.12 259 1266.5 259C1267.88 259 1269 257.881 1269 256.5Z" fill="url(#paint80_linear)"/>
<path d="M1290 256.5C1290 255.119 1288.88 254 1287.5 254C1286.12 254 1285 255.119 1285 256.5C1285 257.881 1286.12 259 1287.5 259C1288.88 259 1290 257.881 1290 256.5Z" fill="url(#paint81_linear)"/>
<path d="M1311 256.5C1311 255.119 1309.88 254 1308.5 254C1307.12 254 1306 255.119 1306 256.5C1306 257.881 1307.12 259 1308.5 259C1309.88 259 1311 257.881 1311 256.5Z" fill="url(#paint82_linear)"/>
<path d="M1227 235.5C1227 234.119 1225.88 233 1224.5 233C1223.12 233 1222 234.119 1222 235.5C1222 236.881 1223.12 238 1224.5 238C1225.88 238 1227 236.881 1227 235.5Z" fill="url(#paint83_linear)"/>
<path d="M1269 235.5C1269 234.119 1267.88 233 1266.5 233C1265.12 233 1264 234.119 1264 235.5C1264 236.881 1265.12 238 1266.5 238C1267.88 238 1269 236.881 1269 235.5Z" fill="url(#paint84_linear)"/>
<path d="M1290 235.5C1290 234.119 1288.88 233 1287.5 233C1286.12 233 1285 234.119 1285 235.5C1285 236.881 1286.12 238 1287.5 238C1288.88 238 1290 236.881 1290 235.5Z" fill="url(#paint85_linear)"/>
<path d="M1311 235.5C1311 234.119 1309.88 233 1308.5 233C1307.12 233 1306 234.119 1306 235.5C1306 236.881 1307.12 238 1308.5 238C1309.88 238 1311 236.881 1311 235.5Z" fill="url(#paint86_linear)"/>
<path d="M1353 235.5C1353 234.119 1351.88 233 1350.5 233C1349.12 233 1348 234.119 1348 235.5C1348 236.881 1349.12 238 1350.5 238C1351.88 238 1353 236.881 1353 235.5Z" fill="url(#paint87_linear)"/>
<path d="M1311 214.5C1311 213.119 1309.88 212 1308.5 212C1307.12 212 1306 213.119 1306 214.5C1306 215.881 1307.12 217 1308.5 217C1309.88 217 1311 215.881 1311 214.5Z" fill="url(#paint88_linear)"/>
<path d="M1332 214.5C1332 213.119 1330.88 212 1329.5 212C1328.12 212 1327 213.119 1327 214.5C1327 215.881 1328.12 217 1329.5 217C1330.88 217 1332 215.881 1332 214.5Z" fill="url(#paint89_linear)"/>
<path d="M1353 214.5C1353 213.119 1351.88 212 1350.5 212C1349.12 212 1348 213.119 1348 214.5C1348 215.881 1349.12 217 1350.5 217C1351.88 217 1353 215.881 1353 214.5Z" fill="url(#paint90_linear)"/>
<path d="M1374 214.5C1374 213.119 1372.88 212 1371.5 212C1370.12 212 1369 213.119 1369 214.5C1369 215.881 1370.12 217 1371.5 217C1372.88 217 1374 215.881 1374 214.5Z" fill="url(#paint91_linear)"/>
<path d="M1248 193.5C1248 192.119 1246.88 191 1245.5 191C1244.12 191 1243 192.119 1243 193.5C1243 194.881 1244.12 196 1245.5 196C1246.88 196 1248 194.881 1248 193.5Z" fill="url(#paint92_linear)"/>
<path d="M1290 193.5C1290 192.119 1288.88 191 1287.5 191C1286.12 191 1285 192.119 1285 193.5C1285 194.881 1286.12 196 1287.5 196C1288.88 196 1290 194.881 1290 193.5Z" fill="url(#paint93_linear)"/>
<path d="M1311 193.5C1311 192.119 1309.88 191 1308.5 191C1307.12 191 1306 192.119 1306 193.5C1306 194.881 1307.12 196 1308.5 196C1309.88 196 1311 194.881 1311 193.5Z" fill="url(#paint94_linear)"/>
<path d="M1227 172.5C1227 171.119 1225.88 170 1224.5 170C1223.12 170 1222 171.119 1222 172.5C1222 173.881 1223.12 175 1224.5 175C1225.88 175 1227 173.881 1227 172.5Z" fill="url(#paint95_linear)"/>
<path d="M1290 172.5C1290 171.119 1288.88 170 1287.5 170C1286.12 170 1285 171.119 1285 172.5C1285 173.881 1286.12 175 1287.5 175C1288.88 175 1290 173.881 1290 172.5Z" fill="url(#paint96_linear)"/>
<path d="M1353 172.5C1353 171.119 1351.88 170 1350.5 170C1349.12 170 1348 171.119 1348 172.5C1348 173.881 1349.12 175 1350.5 175C1351.88 175 1353 173.881 1353 172.5Z" fill="url(#paint97_linear)"/>
<path d="M1374 172.5C1374 171.119 1372.88 170 1371.5 170C1370.12 170 1369 171.119 1369 172.5C1369 173.881 1370.12 175 1371.5 175C1372.88 175 1374 173.881 1374 172.5Z" fill="url(#paint98_linear)"/>
<path d="M1248 151.5C1248 150.119 1246.88 149 1245.5 149C1244.12 149 1243 150.119 1243 151.5C1243 152.881 1244.12 154 1245.5 154C1246.88 154 1248 152.881 1248 151.5Z" fill="url(#paint99_linear)"/>
<path d="M1290 151.5C1290 150.119 1288.88 149 1287.5 149C1286.12 149 1285 150.119 1285 151.5C1285 152.881 1286.12 154 1287.5 154C1288.88 154 1290 152.881 1290 151.5Z" fill="url(#paint100_linear)"/>
<path d="M1311 151.5C1311 150.119 1309.88 149 1308.5 149C1307.12 149 1306 150.119 1306 151.5C1306 152.881 1307.12 154 1308.5 154C1309.88 154 1311 152.881 1311 151.5Z" fill="url(#paint101_linear)"/>
<path d="M1332 151.5C1332 150.119 1330.88 149 1329.5 149C1328.12 149 1327 150.119 1327 151.5C1327 152.881 1328.12 154 1329.5 154C1330.88 154 1332 152.881 1332 151.5Z" fill="url(#paint102_linear)"/>
<path d="M1306 424.5C1306 423.119 1307.12 422 1308.5 422C1309.88 422 1311 423.119 1311 424.5C1311 425.881 1309.88 427 1308.5 427C1307.12 427 1306 425.881 1306 424.5Z" fill="url(#paint103_linear)"/>
<path d="M1285 424.5C1285 423.119 1286.12 422 1287.5 422C1288.88 422 1290 423.119 1290 424.5C1290 425.881 1288.88 427 1287.5 427C1286.12 427 1285 425.881 1285 424.5Z" fill="url(#paint104_linear)"/>
<path d="M1222 424.5C1222 423.119 1223.12 422 1224.5 422C1225.88 422 1227 423.119 1227 424.5C1227 425.881 1225.88 427 1224.5 427C1223.12 427 1222 425.881 1222 424.5Z" fill="url(#paint105_linear)"/>
<path d="M1348 403.5C1348 402.119 1349.12 401 1350.5 401C1351.88 401 1353 402.119 1353 403.5C1353 404.881 1351.88 406 1350.5 406C1349.12 406 1348 404.881 1348 403.5Z" fill="url(#paint106_linear)"/>
<path d="M1306 403.5C1306 402.119 1307.12 401 1308.5 401C1309.88 401 1311 402.119 1311 403.5C1311 404.881 1309.88 406 1308.5 406C1307.12 406 1306 404.881 1306 403.5Z" fill="url(#paint107_linear)"/>
<path d="M1243 403.5C1243 402.119 1244.12 401 1245.5 401C1246.88 401 1248 402.119 1248 403.5C1248 404.881 1246.88 406 1245.5 406C1244.12 406 1243 404.881 1243 403.5Z" fill="url(#paint108_linear)"/>
<path d="M1222 403.5C1222 402.119 1223.12 401 1224.5 401C1225.88 401 1227 402.119 1227 403.5C1227 404.881 1225.88 406 1224.5 406C1223.12 406 1222 404.881 1222 403.5Z" fill="url(#paint109_linear)"/>
<path d="M1327 382.5C1327 381.119 1328.12 380 1329.5 380C1330.88 380 1332 381.119 1332 382.5C1332 383.881 1330.88 385 1329.5 385C1328.12 385 1327 383.881 1327 382.5Z" fill="url(#paint110_linear)"/>
<path d="M1306 382.5C1306 381.119 1307.12 380 1308.5 380C1309.88 380 1311 381.119 1311 382.5C1311 383.881 1309.88 385 1308.5 385C1307.12 385 1306 383.881 1306 382.5Z" fill="url(#paint111_linear)"/>
<path d="M1285 382.5C1285 381.119 1286.12 380 1287.5 380C1288.88 380 1290 381.119 1290 382.5C1290 383.881 1288.88 385 1287.5 385C1286.12 385 1285 383.881 1285 382.5Z" fill="url(#paint112_linear)"/>
<path d="M1369 361.5C1369 360.119 1370.12 359 1371.5 359C1372.88 359 1374 360.119 1374 361.5C1374 362.881 1372.88 364 1371.5 364C1370.12 364 1369 362.881 1369 361.5Z" fill="url(#paint113_linear)"/>
<path d="M1327 361.5C1327 360.119 1328.12 359 1329.5 359C1330.88 359 1332 360.119 1332 361.5C1332 362.881 1330.88 364 1329.5 364C1328.12 364 1327 362.881 1327 361.5Z" fill="url(#paint114_linear)"/>
<path d="M1306 361.5C1306 360.119 1307.12 359 1308.5 359C1309.88 359 1311 360.119 1311 361.5C1311 362.881 1309.88 364 1308.5 364C1307.12 364 1306 362.881 1306 361.5Z" fill="url(#paint115_linear)"/>
<path d="M1285 361.5C1285 360.119 1286.12 359 1287.5 359C1288.88 359 1290 360.119 1290 361.5C1290 362.881 1288.88 364 1287.5 364C1286.12 364 1285 362.881 1285 361.5Z" fill="url(#paint116_linear)"/>
<path d="M1243 361.5C1243 360.119 1244.12 359 1245.5 359C1246.88 359 1248 360.119 1248 361.5C1248 362.881 1246.88 364 1245.5 364C1244.12 364 1243 362.881 1243 361.5Z" fill="url(#paint117_linear)"/>
<path d="M1348 340.5C1348 339.119 1349.12 338 1350.5 338C1351.88 338 1353 339.119 1353 340.5C1353 341.881 1351.88 343 1350.5 343C1349.12 343 1348 341.881 1348 340.5Z" fill="url(#paint118_linear)"/>
<path d="M1285 340.5C1285 339.119 1286.12 338 1287.5 338C1288.88 338 1290 339.119 1290 340.5C1290 341.881 1288.88 343 1287.5 343C1286.12 343 1285 341.881 1285 340.5Z" fill="url(#paint119_linear)"/>
<path d="M1264 340.5C1264 339.119 1265.12 338 1266.5 338C1267.88 338 1269 339.119 1269 340.5C1269 341.881 1267.88 343 1266.5 343C1265.12 343 1264 341.881 1264 340.5Z" fill="url(#paint120_linear)"/>
<path d="M1243 340.5C1243 339.119 1244.12 338 1245.5 338C1246.88 338 1248 339.119 1248 340.5C1248 341.881 1246.88 343 1245.5 343C1244.12 343 1243 341.881 1243 340.5Z" fill="url(#paint121_linear)"/>
<path d="M1222 340.5C1222 339.119 1223.12 338 1224.5 338C1225.88 338 1227 339.119 1227 340.5C1227 341.881 1225.88 343 1224.5 343C1223.12 343 1222 341.881 1222 340.5Z" fill="url(#paint122_linear)"/>
<path d="M1348 319.5C1348 318.119 1349.12 317 1350.5 317C1351.88 317 1353 318.119 1353 319.5C1353 320.881 1351.88 322 1350.5 322C1349.12 322 1348 320.881 1348 319.5Z" fill="url(#paint123_linear)"/>
<path d="M1327 319.5C1327 318.119 1328.12 317 1329.5 317C1330.88 317 1332 318.119 1332 319.5C1332 320.881 1330.88 322 1329.5 322C1328.12 322 1327 320.881 1327 319.5Z" fill="url(#paint124_linear)"/>
<path d="M1306 319.5C1306 318.119 1307.12 317 1308.5 317C1309.88 317 1311 318.119 1311 319.5C1311 320.881 1309.88 322 1308.5 322C1307.12 322 1306 320.881 1306 319.5Z" fill="url(#paint125_linear)"/>
<path d="M1285 319.5C1285 318.119 1286.12 317 1287.5 317C1288.88 317 1290 318.119 1290 319.5C1290 320.881 1288.88 322 1287.5 322C1286.12 322 1285 320.881 1285 319.5Z" fill="url(#paint126_linear)"/>
<path d="M1369 298.5C1369 297.119 1370.12 296 1371.5 296C1372.88 296 1374 297.119 1374 298.5C1374 299.881 1372.88 301 1371.5 301C1370.12 301 1369 299.881 1369 298.5Z" fill="url(#paint127_linear)"/>
<path d="M1306 298.5C1306 297.119 1307.12 296 1308.5 296C1309.88 296 1311 297.119 1311 298.5C1311 299.881 1309.88 301 1308.5 301C1307.12 301 1306 299.881 1306 298.5Z" fill="url(#paint128_linear)"/>
<path d="M1243 298.5C1243 297.119 1244.12 296 1245.5 296C1246.88 296 1248 297.119 1248 298.5C1248 299.881 1246.88 301 1245.5 301C1244.12 301 1243 299.881 1243 298.5Z" fill="url(#paint129_linear)"/>
<path d="M1222 298.5C1222 297.119 1223.12 296 1224.5 296C1225.88 296 1227 297.119 1227 298.5C1227 299.881 1225.88 301 1224.5 301C1223.12 301 1222 299.881 1222 298.5Z" fill="url(#paint130_linear)"/>
<path d="M1348 277.5C1348 276.119 1349.12 275 1350.5 275C1351.88 275 1353 276.119 1353 277.5C1353 278.881 1351.88 280 1350.5 280C1349.12 280 1348 278.881 1348 277.5Z" fill="url(#paint131_linear)"/>
<path d="M1306 277.5C1306 276.119 1307.12 275 1308.5 275C1309.88 275 1311 276.119 1311 277.5C1311 278.881 1309.88 280 1308.5 280C1307.12 280 1306 278.881 1306 277.5Z" fill="url(#paint132_linear)"/>
<path d="M1285 277.5C1285 276.119 1286.12 275 1287.5 275C1288.88 275 1290 276.119 1290 277.5C1290 278.881 1288.88 280 1287.5 280C1286.12 280 1285 278.881 1285 277.5Z" fill="url(#paint133_linear)"/>
<path d="M1264 277.5C1264 276.119 1265.12 275 1266.5 275C1267.88 275 1269 276.119 1269 277.5C1269 278.881 1267.88 280 1266.5 280C1265.12 280 1264 278.881 1264 277.5Z" fill="url(#paint134_linear)"/>
<path d="M1391 277.5C1391 278.881 1392.12 280 1393.5 280C1394.88 280 1396 278.881 1396 277.5C1396 276.119 1394.88 275 1393.5 275C1392.12 275 1391 276.119 1391 277.5Z" fill="url(#paint135_linear)"/>
<path d="M1412 298.5C1412 299.881 1413.12 301 1414.5 301C1415.88 301 1417 299.881 1417 298.5C1417 297.119 1415.88 296 1414.5 296C1413.12 296 1412 297.119 1412 298.5Z" fill="url(#paint136_linear)"/>
<path d="M1391 298.5C1391 299.881 1392.12 301 1393.5 301C1394.88 301 1396 299.881 1396 298.5C1396 297.119 1394.88 296 1393.5 296C1392.12 296 1391 297.119 1391 298.5Z" fill="url(#paint137_linear)"/>
<path d="M1412 340.5C1412 341.881 1413.12 343 1414.5 343C1415.88 343 1417 341.881 1417 340.5C1417 339.119 1415.88 338 1414.5 338C1413.12 338 1412 339.119 1412 340.5Z" fill="url(#paint138_linear)"/>
<path d="M1433 361.5C1433 362.881 1434.12 364 1435.5 364C1436.88 364 1438 362.881 1438 361.5C1438 360.119 1436.88 359 1435.5 359C1434.12 359 1433 360.119 1433 361.5Z" fill="url(#paint139_linear)"/>
<path d="M1412 361.5C1412 362.881 1413.12 364 1414.5 364C1415.88 364 1417 362.881 1417 361.5C1417 360.119 1415.88 359 1414.5 359C1413.12 359 1412 360.119 1412 361.5Z" fill="url(#paint140_linear)"/>
<path d="M1391 361.5C1391 362.881 1392.12 364 1393.5 364C1394.88 364 1396 362.881 1396 361.5C1396 360.119 1394.88 359 1393.5 359C1392.12 359 1391 360.119 1391 361.5Z" fill="url(#paint141_linear)"/>
<path d="M1412 403.5C1412 404.881 1413.12 406 1414.5 406C1415.88 406 1417 404.881 1417 403.5C1417 402.119 1415.88 401 1414.5 401C1413.12 401 1412 402.119 1412 403.5Z" fill="url(#paint142_linear)"/>
<path d="M1391 403.5C1391 404.881 1392.12 406 1393.5 406C1394.88 406 1396 404.881 1396 403.5C1396 402.119 1394.88 401 1393.5 401C1392.12 401 1391 402.119 1391 403.5Z" fill="url(#paint143_linear)"/>
<path d="M1433 424.5C1433 425.881 1434.12 427 1435.5 427C1436.88 427 1438 425.881 1438 424.5C1438 423.119 1436.88 422 1435.5 422C1434.12 422 1433 423.119 1433 424.5Z" fill="url(#paint144_linear)"/>
<path d="M7 99.5C7 100.881 8.11929 102 9.5 102C10.8807 102 12 100.881 12 99.5C12 98.1193 10.8807 97 9.5 97C8.11929 97 7 98.1193 7 99.5Z" fill="url(#paint145_linear)"/>
<path d="M49 120.5C49 121.881 50.1193 123 51.5 123C52.8807 123 54 121.881 54 120.5C54 119.119 52.8807 118 51.5 118C50.1193 118 49 119.119 49 120.5Z" fill="url(#paint146_linear)"/>
<path d="M7 120.5C7 121.881 8.11929 123 9.5 123C10.8807 123 12 121.881 12 120.5C12 119.119 10.8807 118 9.5 118C8.11929 118 7 119.119 7 120.5Z" fill="url(#paint147_linear)"/>
<path d="M28 141.5C28 142.881 29.1193 144 30.5 144C31.8807 144 33 142.881 33 141.5C33 140.119 31.8807 139 30.5 139C29.1193 139 28 140.119 28 141.5Z" fill="url(#paint148_linear)"/>
<path d="M7 141.5C7 142.881 8.11929 144 9.5 144C10.8807 144 12 142.881 12 141.5C12 140.119 10.8807 139 9.5 139C8.11929 139 7 140.119 7 141.5Z" fill="url(#paint149_linear)"/>
<path d="M70 162.5C70 163.881 71.1193 165 72.5 165C73.8807 165 75 163.881 75 162.5C75 161.119 73.8807 160 72.5 160C71.1193 160 70 161.119 70 162.5Z" fill="url(#paint150_linear)"/>
<path d="M28 162.5C28 163.881 29.1193 165 30.5 165C31.8807 165 33 163.881 33 162.5C33 161.119 31.8807 160 30.5 160C29.1193 160 28 161.119 28 162.5Z" fill="url(#paint151_linear)"/>
<path d="M7 162.5C7 163.881 8.11929 165 9.5 165C10.8807 165 12 163.881 12 162.5C12 161.119 10.8807 160 9.5 160C8.11929 160 7 161.119 7 162.5Z" fill="url(#paint152_linear)"/>
<path d="M49 183.5C49 184.881 50.1193 186 51.5 186C52.8807 186 54 184.881 54 183.5C54 182.119 52.8807 181 51.5 181C50.1193 181 49 182.119 49 183.5Z" fill="url(#paint153_linear)"/>
<path d="M49 204.5C49 205.881 50.1193 207 51.5 207C52.8807 207 54 205.881 54 204.5C54 203.119 52.8807 202 51.5 202C50.1193 202 49 203.119 49 204.5Z" fill="url(#paint154_linear)"/>
<path d="M28 204.5C28 205.881 29.1193 207 30.5 207C31.8807 207 33 205.881 33 204.5C33 203.119 31.8807 202 30.5 202C29.1193 202 28 203.119 28 204.5Z" fill="url(#paint155_linear)"/>
<path d="M7 204.5C7 205.881 8.11929 207 9.5 207C10.8807 207 12 205.881 12 204.5C12 203.119 10.8807 202 9.5 202C8.11929 202 7 203.119 7 204.5Z" fill="url(#paint156_linear)"/>
<path d="M70 225.5C70 226.881 71.1193 228 72.5 228C73.8807 228 75 226.881 75 225.5C75 224.119 73.8807 223 72.5 223C71.1193 223 70 224.119 70 225.5Z" fill="url(#paint157_linear)"/>
<path d="M7 225.5C7 226.881 8.11929 228 9.5 228C10.8807 228 12 226.881 12 225.5C12 224.119 10.8807 223 9.5 223C8.11929 223 7 224.119 7 225.5Z" fill="url(#paint158_linear)"/>
<path d="M49 246.5C49 247.881 50.1193 249 51.5 249C52.8807 249 54 247.881 54 246.5C54 245.119 52.8807 244 51.5 244C50.1193 244 49 245.119 49 246.5Z" fill="url(#paint159_linear)"/>
<path d="M7 246.5C7 247.881 8.11929 249 9.5 249C10.8807 249 12 247.881 12 246.5C12 245.119 10.8807 244 9.5 244C8.11929 244 7 245.119 7 246.5Z" fill="url(#paint160_linear)"/>
<path d="M176 246.5C176 245.119 177.119 244 178.5 244C179.881 244 181 245.119 181 246.5C181 247.881 179.881 249 178.5 249C177.119 249 176 247.881 176 246.5Z" fill="url(#paint161_linear)"/>
<path d="M155 246.5C155 245.119 156.119 244 157.5 244C158.881 244 160 245.119 160 246.5C160 247.881 158.881 249 157.5 249C156.119 249 155 247.881 155 246.5Z" fill="url(#paint162_linear)"/>
<path d="M92 246.5C92 245.119 93.1193 244 94.5 244C95.8807 244 97 245.119 97 246.5C97 247.881 95.8807 249 94.5 249C93.1193 249 92 247.881 92 246.5Z" fill="url(#paint163_linear)"/>
<path d="M218 225.5C218 224.119 219.119 223 220.5 223C221.881 223 223 224.119 223 225.5C223 226.881 221.881 228 220.5 228C219.119 228 218 226.881 218 225.5Z" fill="url(#paint164_linear)"/>
<path d="M176 225.5C176 224.119 177.119 223 178.5 223C179.881 223 181 224.119 181 225.5C181 226.881 179.881 228 178.5 228C177.119 228 176 226.881 176 225.5Z" fill="url(#paint165_linear)"/>
<path d="M113 225.5C113 224.119 114.119 223 115.5 223C116.881 223 118 224.119 118 225.5C118 226.881 116.881 228 115.5 228C114.119 228 113 226.881 113 225.5Z" fill="url(#paint166_linear)"/>
<path d="M92 225.5C92 224.119 93.1193 223 94.5 223C95.8807 223 97 224.119 97 225.5C97 226.881 95.8807 228 94.5 228C93.1193 228 92 226.881 92 225.5Z" fill="url(#paint167_linear)"/>
<path d="M197 204.5C197 203.119 198.119 202 199.5 202C200.881 202 202 203.119 202 204.5C202 205.881 200.881 207 199.5 207C198.119 207 197 205.881 197 204.5Z" fill="url(#paint168_linear)"/>
<path d="M176 204.5C176 203.119 177.119 202 178.5 202C179.881 202 181 203.119 181 204.5C181 205.881 179.881 207 178.5 207C177.119 207 176 205.881 176 204.5Z" fill="url(#paint169_linear)"/>
<path d="M155 204.5C155 203.119 156.119 202 157.5 202C158.881 202 160 203.119 160 204.5C160 205.881 158.881 207 157.5 207C156.119 207 155 205.881 155 204.5Z" fill="url(#paint170_linear)"/>
<path d="M239 183.5C239 182.119 240.119 181 241.5 181C242.881 181 244 182.119 244 183.5C244 184.881 242.881 186 241.5 186C240.119 186 239 184.881 239 183.5Z" fill="url(#paint171_linear)"/>
<path d="M197 183.5C197 182.119 198.119 181 199.5 181C200.881 181 202 182.119 202 183.5C202 184.881 200.881 186 199.5 186C198.119 186 197 184.881 197 183.5Z" fill="url(#paint172_linear)"/>
<path d="M176 183.5C176 182.119 177.119 181 178.5 181C179.881 181 181 182.119 181 183.5C181 184.881 179.881 186 178.5 186C177.119 186 176 184.881 176 183.5Z" fill="url(#paint173_linear)"/>
<path d="M155 183.5C155 182.119 156.119 181 157.5 181C158.881 181 160 182.119 160 183.5C160 184.881 158.881 186 157.5 186C156.119 186 155 184.881 155 183.5Z" fill="url(#paint174_linear)"/>
<path d="M113 183.5C113 182.119 114.119 181 115.5 181C116.881 181 118 182.119 118 183.5C118 184.881 116.881 186 115.5 186C114.119 186 113 184.881 113 183.5Z" fill="url(#paint175_linear)"/>
<path d="M155 162.5C155 161.119 156.119 160 157.5 160C158.881 160 160 161.119 160 162.5C160 163.881 158.881 165 157.5 165C156.119 165 155 163.881 155 162.5Z" fill="url(#paint176_linear)"/>
<path d="M134 162.5C134 161.119 135.119 160 136.5 160C137.881 160 139 161.119 139 162.5C139 163.881 137.881 165 136.5 165C135.119 165 134 163.881 134 162.5Z" fill="url(#paint177_linear)"/>
<path d="M113 162.5C113 161.119 114.119 160 115.5 160C116.881 160 118 161.119 118 162.5C118 163.881 116.881 165 115.5 165C114.119 165 113 163.881 113 162.5Z" fill="url(#paint178_linear)"/>
<path d="M92 162.5C92 161.119 93.1193 160 94.5 160C95.8807 160 97 161.119 97 162.5C97 163.881 95.8807 165 94.5 165C93.1193 165 92 163.881 92 162.5Z" fill="url(#paint179_linear)"/>
<path d="M218 141.5C218 140.119 219.119 139 220.5 139C221.881 139 223 140.119 223 141.5C223 142.881 221.881 144 220.5 144C219.119 144 218 142.881 218 141.5Z" fill="url(#paint180_linear)"/>
<path d="M176 141.5C176 140.119 177.119 139 178.5 139C179.881 139 181 140.119 181 141.5C181 142.881 179.881 144 178.5 144C177.119 144 176 142.881 176 141.5Z" fill="url(#paint181_linear)"/>
<path d="M155 141.5C155 140.119 156.119 139 157.5 139C158.881 139 160 140.119 160 141.5C160 142.881 158.881 144 157.5 144C156.119 144 155 142.881 155 141.5Z" fill="url(#paint182_linear)"/>
<path d="M239 120.5C239 119.119 240.119 118 241.5 118C242.881 118 244 119.119 244 120.5C244 121.881 242.881 123 241.5 123C240.119 123 239 121.881 239 120.5Z" fill="url(#paint183_linear)"/>
<path d="M176 120.5C176 119.119 177.119 118 178.5 118C179.881 118 181 119.119 181 120.5C181 121.881 179.881 123 178.5 123C177.119 123 176 121.881 176 120.5Z" fill="url(#paint184_linear)"/>
<path d="M113 120.5C113 119.119 114.119 118 115.5 118C116.881 118 118 119.119 118 120.5C118 121.881 116.881 123 115.5 123C114.119 123 113 121.881 113 120.5Z" fill="url(#paint185_linear)"/>
<path d="M92 120.5C92 119.119 93.1193 118 94.5 118C95.8807 118 97 119.119 97 120.5C97 121.881 95.8807 123 94.5 123C93.1193 123 92 121.881 92 120.5Z" fill="url(#paint186_linear)"/>
<path d="M218 99.5C218 98.1193 219.119 97 220.5 97C221.881 97 223 98.1193 223 99.5C223 100.881 221.881 102 220.5 102C219.119 102 218 100.881 218 99.5Z" fill="url(#paint187_linear)"/>
<path d="M176 99.5C176 98.1193 177.119 97 178.5 97C179.881 97 181 98.1193 181 99.5C181 100.881 179.881 102 178.5 102C177.119 102 176 100.881 176 99.5Z" fill="url(#paint188_linear)"/>
<path d="M155 99.5C155 98.1193 156.119 97 157.5 97C158.881 97 160 98.1193 160 99.5C160 100.881 158.881 102 157.5 102C156.119 102 155 100.881 155 99.5Z" fill="url(#paint189_linear)"/>
<path d="M134 99.5C134 98.1193 135.119 97 136.5 97C137.881 97 139 98.1193 139 99.5C139 100.881 137.881 102 136.5 102C135.119 102 134 100.881 134 99.5Z" fill="url(#paint190_linear)"/>
<defs>
<linearGradient id="paint0_linear" x1="1680" y1="161" x2="1592" y2="-88.5" gradientUnits="userSpaceOnUse">
<stop stop-color="white" stop-opacity="0"/>
<stop offset="1" stop-color="#CFFFF9" stop-opacity="0.56"/>
</linearGradient>
<linearGradient id="paint1_linear" x1="278.36" y1="414" x2="67.2586" y2="1.68221" gradientUnits="userSpaceOnUse">
<stop stop-color="white" stop-opacity="0"/>
<stop offset="0.539635" stop-color="#CFFFF9" stop-opacity="0"/>
<stop offset="1" stop-color="#CFFFF9" stop-opacity="0.5"/>
</linearGradient>
<linearGradient id="paint2_linear" x1="38" y1="376" x2="344" y2="376" gradientUnits="userSpaceOnUse">
<stop stop-color="#1AAB9B"/>
<stop offset="1" stop-color="white" stop-opacity="0"/>
</linearGradient>
<linearGradient id="paint3_linear" x1="38" y1="376" x2="344" y2="376" gradientUnits="userSpaceOnUse">
<stop stop-color="#1AAB9B"/>
<stop offset="1" stop-color="white" stop-opacity="0"/>
</linearGradient>
<linearGradient id="paint4_linear" x1="38" y1="376" x2="344" y2="376" gradientUnits="userSpaceOnUse">
<stop stop-color="#1AAB9B"/>
<stop offset="1" stop-color="white" stop-opacity="0"/>
</linearGradient>
<linearGradient id="paint5_linear" x1="38" y1="376" x2="344" y2="376" gradientUnits="userSpaceOnUse">
<stop stop-color="#1AAB9B"/>
<stop offset="1" stop-color="white" stop-opacity="0"/>
</linearGradient>
<linearGradient id="paint6_linear" x1="38" y1="376" x2="344" y2="376" gradientUnits="userSpaceOnUse">
<stop stop-color="#1AAB9B"/>
<stop offset="1" stop-color="white" stop-opacity="0"/>
</linearGradient>
<linearGradient id="paint7_linear" x1="38" y1="376" x2="344" y2="376" gradientUnits="userSpaceOnUse">
<stop stop-color="#1AAB9B"/>
<stop offset="1" stop-color="white" stop-opacity="0"/>
</linearGradient>
<linearGradient id="paint8_linear" x1="38" y1="376" x2="344" y2="376" gradientUnits="userSpaceOnUse">
<stop stop-color="#1AAB9B"/>
<stop offset="1" stop-color="white" stop-opacity="0"/>
</linearGradient>
<linearGradient id="paint9_linear" x1="38" y1="376" x2="344" y2="376" gradientUnits="userSpaceOnUse">
<stop stop-color="#1AAB9B"/>
<stop offset="1" stop-color="white" stop-opacity="0"/>
</linearGradient>
<linearGradient id="paint10_linear" x1="38" y1="376" x2="344" y2="376" gradientUnits="userSpaceOnUse">
<stop stop-color="#1AAB9B"/>
<stop offset="1" stop-color="white" stop-opacity="0"/>
</linearGradient>
<linearGradient id="paint11_linear" x1="38" y1="376" x2="344" y2="376" gradientUnits="userSpaceOnUse">
<stop stop-color="#1AAB9B"/>
<stop offset="1" stop-color="white" stop-opacity="0"/>
</linearGradient>
<linearGradient id="paint12_linear" x1="38" y1="376" x2="344" y2="376" gradientUnits="userSpaceOnUse">
<stop stop-color="#1AAB9B"/>
<stop offset="1" stop-color="white" stop-opacity="0"/>
</linearGradient>
<linearGradient id="paint13_linear" x1="38" y1="376" x2="344" y2="376" gradientUnits="userSpaceOnUse">
<stop stop-color="#1AAB9B"/>
<stop offset="1" stop-color="white" stop-opacity="0"/>
</linearGradient>
<linearGradient id="paint14_linear" x1="38" y1="376" x2="344" y2="376" gradientUnits="userSpaceOnUse">
<stop stop-color="#1AAB9B"/>
<stop offset="1" stop-color="white" stop-opacity="0"/>
</linearGradient>
<linearGradient id="paint15_linear" x1="38" y1="376" x2="344" y2="376" gradientUnits="userSpaceOnUse">
<stop stop-color="#1AAB9B"/>
<stop offset="1" stop-color="white" stop-opacity="0"/>
</linearGradient>
<linearGradient id="paint16_linear" x1="38" y1="376" x2="344" y2="376" gradientUnits="userSpaceOnUse">
<stop stop-color="#1AAB9B"/>
<stop offset="1" stop-color="white" stop-opacity="0"/>
</linearGradient>
<linearGradient id="paint17_linear" x1="38" y1="376" x2="344" y2="376" gradientUnits="userSpaceOnUse">
<stop stop-color="#1AAB9B"/>
<stop offset="1" stop-color="white" stop-opacity="0"/>
</linearGradient>
<linearGradient id="paint18_linear" x1="38" y1="376" x2="344" y2="376" gradientUnits="userSpaceOnUse">
<stop stop-color="#1AAB9B"/>
<stop offset="1" stop-color="white" stop-opacity="0"/>
</linearGradient>
<linearGradient id="paint19_linear" x1="38" y1="376" x2="344" y2="376" gradientUnits="userSpaceOnUse">
<stop stop-color="#1AAB9B"/>
<stop offset="1" stop-color="white" stop-opacity="0"/>
</linearGradient>
<linearGradient id="paint20_linear" x1="38" y1="376" x2="344" y2="376" gradientUnits="userSpaceOnUse">
<stop stop-color="#1AAB9B"/>
<stop offset="1" stop-color="white" stop-opacity="0"/>
</linearGradient>
<linearGradient id="paint21_linear" x1="38" y1="376" x2="344" y2="376" gradientUnits="userSpaceOnUse">
<stop stop-color="#1AAB9B"/>
<stop offset="1" stop-color="white" stop-opacity="0"/>
</linearGradient>
<linearGradient id="paint22_linear" x1="38" y1="376" x2="344" y2="376" gradientUnits="userSpaceOnUse">
<stop stop-color="#1AAB9B"/>
<stop offset="1" stop-color="white" stop-opacity="0"/>
</linearGradient>
<linearGradient id="paint23_linear" x1="38" y1="376" x2="344" y2="376" gradientUnits="userSpaceOnUse">
<stop stop-color="#1AAB9B"/>
<stop offset="1" stop-color="white" stop-opacity="0"/>
</linearGradient>
<linearGradient id="paint24_linear" x1="38" y1="376" x2="344" y2="376" gradientUnits="userSpaceOnUse">
<stop stop-color="#1AAB9B"/>
<stop offset="1" stop-color="white" stop-opacity="0"/>
</linearGradient>
<linearGradient id="paint25_linear" x1="38" y1="376" x2="344" y2="376" gradientUnits="userSpaceOnUse">
<stop stop-color="#1AAB9B"/>
<stop offset="1" stop-color="white" stop-opacity="0"/>
</linearGradient>
<linearGradient id="paint26_linear" x1="38" y1="376" x2="344" y2="376" gradientUnits="userSpaceOnUse">
<stop stop-color="#1AAB9B"/>
<stop offset="1" stop-color="white" stop-opacity="0"/>
</linearGradient>
<linearGradient id="paint27_linear" x1="38" y1="376" x2="344" y2="376" gradientUnits="userSpaceOnUse">
<stop stop-color="#1AAB9B"/>
<stop offset="1" stop-color="white" stop-opacity="0"/>
</linearGradient>
<linearGradient id="paint28_linear" x1="38" y1="376" x2="344" y2="376" gradientUnits="userSpaceOnUse">
<stop stop-color="#1AAB9B"/>
<stop offset="1" stop-color="white" stop-opacity="0"/>
</linearGradient>
<linearGradient id="paint29_linear" x1="38" y1="376" x2="344" y2="376" gradientUnits="userSpaceOnUse">
<stop stop-color="#1AAB9B"/>
<stop offset="1" stop-color="white" stop-opacity="0"/>
</linearGradient>
<linearGradient id="paint30_linear" x1="38" y1="376" x2="344" y2="376" gradientUnits="userSpaceOnUse">
<stop stop-color="#1AAB9B"/>
<stop offset="1" stop-color="white" stop-opacity="0"/>
</linearGradient>
<linearGradient id="paint31_linear" x1="38" y1="376" x2="344" y2="376" gradientUnits="userSpaceOnUse">
<stop stop-color="#1AAB9B"/>
<stop offset="1" stop-color="white" stop-opacity="0"/>
</linearGradient>
<linearGradient id="paint32_linear" x1="38" y1="376" x2="344" y2="376" gradientUnits="userSpaceOnUse">
<stop stop-color="#1AAB9B"/>
<stop offset="1" stop-color="white" stop-opacity="0"/>
</linearGradient>
<linearGradient id="paint33_linear" x1="38" y1="376" x2="344" y2="376" gradientUnits="userSpaceOnUse">
<stop stop-color="#1AAB9B"/>
<stop offset="1" stop-color="white" stop-opacity="0"/>
</linearGradient>
<linearGradient id="paint34_linear" x1="38" y1="376" x2="344" y2="376" gradientUnits="userSpaceOnUse">
<stop stop-color="#1AAB9B"/>
<stop offset="1" stop-color="white" stop-opacity="0"/>
</linearGradient>
<linearGradient id="paint35_linear" x1="38" y1="376" x2="344" y2="376" gradientUnits="userSpaceOnUse">
<stop stop-color="#1AAB9B"/>
<stop offset="1" stop-color="white" stop-opacity="0"/>
</linearGradient>
<linearGradient id="paint36_linear" x1="38" y1="376" x2="344" y2="376" gradientUnits="userSpaceOnUse">
<stop stop-color="#1AAB9B"/>
<stop offset="1" stop-color="white" stop-opacity="0"/>
</linearGradient>
<linearGradient id="paint37_linear" x1="38" y1="376" x2="344" y2="376" gradientUnits="userSpaceOnUse">
<stop stop-color="#1AAB9B"/>
<stop offset="1" stop-color="white" stop-opacity="0"/>
</linearGradient>
<linearGradient id="paint38_linear" x1="38" y1="376" x2="344" y2="376" gradientUnits="userSpaceOnUse">
<stop stop-color="#1AAB9B"/>
<stop offset="1" stop-color="white" stop-opacity="0"/>
</linearGradient>
<linearGradient id="paint39_linear" x1="38" y1="376" x2="344" y2="376" gradientUnits="userSpaceOnUse">
<stop stop-color="#1AAB9B"/>
<stop offset="1" stop-color="white" stop-opacity="0"/>
</linearGradient>
<linearGradient id="paint40_linear" x1="38" y1="376" x2="344" y2="376" gradientUnits="userSpaceOnUse">
<stop stop-color="#1AAB9B"/>
<stop offset="1" stop-color="white" stop-opacity="0"/>
</linearGradient>
<linearGradient id="paint41_linear" x1="38" y1="376" x2="344" y2="376" gradientUnits="userSpaceOnUse">
<stop stop-color="#1AAB9B"/>
<stop offset="1" stop-color="white" stop-opacity="0"/>
</linearGradient>
<linearGradient id="paint42_linear" x1="38" y1="376" x2="344" y2="376" gradientUnits="userSpaceOnUse">
<stop stop-color="#1AAB9B"/>
<stop offset="1" stop-color="white" stop-opacity="0"/>
</linearGradient>
<linearGradient id="paint43_linear" x1="38" y1="376" x2="344" y2="376" gradientUnits="userSpaceOnUse">
<stop stop-color="#1AAB9B"/>
<stop offset="1" stop-color="white" stop-opacity="0"/>
</linearGradient>
<linearGradient id="paint44_linear" x1="38" y1="376" x2="344" y2="376" gradientUnits="userSpaceOnUse">
<stop stop-color="#1AAB9B"/>
<stop offset="1" stop-color="white" stop-opacity="0"/>
</linearGradient>
<linearGradient id="paint45_linear" x1="38" y1="376" x2="344" y2="376" gradientUnits="userSpaceOnUse">
<stop stop-color="#1AAB9B"/>
<stop offset="1" stop-color="white" stop-opacity="0"/>
</linearGradient>
<linearGradient id="paint46_linear" x1="38" y1="376" x2="344" y2="376" gradientUnits="userSpaceOnUse">
<stop stop-color="#1AAB9B"/>
<stop offset="1" stop-color="white" stop-opacity="0"/>
</linearGradient>
<linearGradient id="paint47_linear" x1="38" y1="376" x2="344" y2="376" gradientUnits="userSpaceOnUse">
<stop stop-color="#1AAB9B"/>
<stop offset="1" stop-color="white" stop-opacity="0"/>
</linearGradient>
<linearGradient id="paint48_linear" x1="38" y1="376" x2="344" y2="376" gradientUnits="userSpaceOnUse">
<stop stop-color="#1AAB9B"/>
<stop offset="1" stop-color="white" stop-opacity="0"/>
</linearGradient>
<linearGradient id="paint49_linear" x1="38" y1="376" x2="344" y2="376" gradientUnits="userSpaceOnUse">
<stop stop-color="#1AAB9B"/>
<stop offset="1" stop-color="white" stop-opacity="0"/>
</linearGradient>
<linearGradient id="paint50_linear" x1="38" y1="376" x2="344" y2="376" gradientUnits="userSpaceOnUse">
<stop stop-color="#1AAB9B"/>
<stop offset="1" stop-color="white" stop-opacity="0"/>
</linearGradient>
<linearGradient id="paint51_linear" x1="38" y1="376" x2="344" y2="376" gradientUnits="userSpaceOnUse">
<stop stop-color="#1AAB9B"/>
<stop offset="1" stop-color="white" stop-opacity="0"/>
</linearGradient>
<linearGradient id="paint52_linear" x1="38" y1="376" x2="344" y2="376" gradientUnits="userSpaceOnUse">
<stop stop-color="#1AAB9B"/>
<stop offset="1" stop-color="white" stop-opacity="0"/>
</linearGradient>
<linearGradient id="paint53_linear" x1="38" y1="376" x2="344" y2="376" gradientUnits="userSpaceOnUse">
<stop stop-color="#1AAB9B"/>
<stop offset="1" stop-color="white" stop-opacity="0"/>
</linearGradient>
<linearGradient id="paint54_linear" x1="38" y1="376" x2="344" y2="376" gradientUnits="userSpaceOnUse">
<stop stop-color="#1AAB9B"/>
<stop offset="1" stop-color="white" stop-opacity="0"/>
</linearGradient>
<linearGradient id="paint55_linear" x1="38" y1="376" x2="344" y2="376" gradientUnits="userSpaceOnUse">
<stop stop-color="#1AAB9B"/>
<stop offset="1" stop-color="white" stop-opacity="0"/>
</linearGradient>
<linearGradient id="paint56_linear" x1="38" y1="376" x2="344" y2="376" gradientUnits="userSpaceOnUse">
<stop stop-color="#1AAB9B"/>
<stop offset="1" stop-color="white" stop-opacity="0"/>
</linearGradient>
<linearGradient id="paint57_linear" x1="38" y1="376" x2="344" y2="376" gradientUnits="userSpaceOnUse">
<stop stop-color="#1AAB9B"/>
<stop offset="1" stop-color="white" stop-opacity="0"/>
</linearGradient>
<linearGradient id="paint58_linear" x1="38" y1="376" x2="344" y2="376" gradientUnits="userSpaceOnUse">
<stop stop-color="#1AAB9B"/>
<stop offset="1" stop-color="white" stop-opacity="0"/>
</linearGradient>
<linearGradient id="paint59_linear" x1="38" y1="376" x2="344" y2="376" gradientUnits="userSpaceOnUse">
<stop stop-color="#1AAB9B"/>
<stop offset="1" stop-color="white" stop-opacity="0"/>
</linearGradient>
<linearGradient id="paint60_linear" x1="38" y1="376" x2="344" y2="376" gradientUnits="userSpaceOnUse">
<stop stop-color="#1AAB9B"/>
<stop offset="1" stop-color="white" stop-opacity="0"/>
</linearGradient>
<linearGradient id="paint61_linear" x1="38" y1="376" x2="344" y2="376" gradientUnits="userSpaceOnUse">
<stop stop-color="#1AAB9B"/>
<stop offset="1" stop-color="white" stop-opacity="0"/>
</linearGradient>
<linearGradient id="paint62_linear" x1="38" y1="376" x2="344" y2="376" gradientUnits="userSpaceOnUse">
<stop stop-color="#1AAB9B"/>
<stop offset="1" stop-color="white" stop-opacity="0"/>
</linearGradient>
<linearGradient id="paint63_linear" x1="38" y1="376" x2="344" y2="376" gradientUnits="userSpaceOnUse">
<stop stop-color="#1AAB9B"/>
<stop offset="1" stop-color="white" stop-opacity="0"/>
</linearGradient>
<linearGradient id="paint64_linear" x1="1253" y1="250" x2="1644" y2="250" gradientUnits="userSpaceOnUse">
<stop stop-color="#1AAB9B"/>
<stop offset="1" stop-color="white" stop-opacity="0"/>
</linearGradient>
<linearGradient id="paint65_linear" x1="1253" y1="250" x2="1644" y2="250" gradientUnits="userSpaceOnUse">
<stop stop-color="#1AAB9B"/>
<stop offset="1" stop-color="white" stop-opacity="0"/>
</linearGradient>
<linearGradient id="paint66_linear" x1="1253" y1="250" x2="1644" y2="250" gradientUnits="userSpaceOnUse">
<stop stop-color="#1AAB9B"/>
<stop offset="1" stop-color="white" stop-opacity="0"/>
</linearGradient>
<linearGradient id="paint67_linear" x1="1253" y1="250" x2="1644" y2="250" gradientUnits="userSpaceOnUse">
<stop stop-color="#1AAB9B"/>
<stop offset="1" stop-color="white" stop-opacity="0"/>
</linearGradient>
<linearGradient id="paint68_linear" x1="1253" y1="250" x2="1644" y2="250" gradientUnits="userSpaceOnUse">
<stop stop-color="#1AAB9B"/>
<stop offset="1" stop-color="white" stop-opacity="0"/>
</linearGradient>
<linearGradient id="paint69_linear" x1="1253" y1="250" x2="1644" y2="250" gradientUnits="userSpaceOnUse">
<stop stop-color="#1AAB9B"/>
<stop offset="1" stop-color="white" stop-opacity="0"/>
</linearGradient>
<linearGradient id="paint70_linear" x1="1253" y1="250" x2="1644" y2="250" gradientUnits="userSpaceOnUse">
<stop stop-color="#1AAB9B"/>
<stop offset="1" stop-color="white" stop-opacity="0"/>
</linearGradient>
<linearGradient id="paint71_linear" x1="1253" y1="250" x2="1644" y2="250" gradientUnits="userSpaceOnUse">
<stop stop-color="#1AAB9B"/>
<stop offset="1" stop-color="white" stop-opacity="0"/>
</linearGradient>
<linearGradient id="paint72_linear" x1="1253" y1="250" x2="1644" y2="250" gradientUnits="userSpaceOnUse">
<stop stop-color="#1AAB9B"/>
<stop offset="1" stop-color="white" stop-opacity="0"/>
</linearGradient>
<linearGradient id="paint73_linear" x1="1253" y1="250" x2="1644" y2="250" gradientUnits="userSpaceOnUse">
<stop stop-color="#1AAB9B"/>
<stop offset="1" stop-color="white" stop-opacity="0"/>
</linearGradient>
<linearGradient id="paint74_linear" x1="1253" y1="250" x2="1644" y2="250" gradientUnits="userSpaceOnUse">
<stop stop-color="#1AAB9B"/>
<stop offset="1" stop-color="white" stop-opacity="0"/>
</linearGradient>
<linearGradient id="paint75_linear" x1="1253" y1="250" x2="1644" y2="250" gradientUnits="userSpaceOnUse">
<stop stop-color="#1AAB9B"/>
<stop offset="1" stop-color="white" stop-opacity="0"/>
</linearGradient>
<linearGradient id="paint76_linear" x1="1253" y1="250" x2="1644" y2="250" gradientUnits="userSpaceOnUse">
<stop stop-color="#1AAB9B"/>
<stop offset="1" stop-color="white" stop-opacity="0"/>
</linearGradient>
<linearGradient id="paint77_linear" x1="1253" y1="250" x2="1644" y2="250" gradientUnits="userSpaceOnUse">
<stop stop-color="#1AAB9B"/>
<stop offset="1" stop-color="white" stop-opacity="0"/>
</linearGradient>
<linearGradient id="paint78_linear" x1="1253" y1="250" x2="1644" y2="250" gradientUnits="userSpaceOnUse">
<stop stop-color="#1AAB9B"/>
<stop offset="1" stop-color="white" stop-opacity="0"/>
</linearGradient>
<linearGradient id="paint79_linear" x1="1253" y1="250" x2="1644" y2="250" gradientUnits="userSpaceOnUse">
<stop stop-color="#1AAB9B"/>
<stop offset="1" stop-color="white" stop-opacity="0"/>
</linearGradient>
<linearGradient id="paint80_linear" x1="1253" y1="250" x2="1644" y2="250" gradientUnits="userSpaceOnUse">
<stop stop-color="#1AAB9B"/>
<stop offset="1" stop-color="white" stop-opacity="0"/>
</linearGradient>
<linearGradient id="paint81_linear" x1="1253" y1="250" x2="1644" y2="250" gradientUnits="userSpaceOnUse">
<stop stop-color="#1AAB9B"/>
<stop offset="1" stop-color="white" stop-opacity="0"/>
</linearGradient>
<linearGradient id="paint82_linear" x1="1253" y1="250" x2="1644" y2="250" gradientUnits="userSpaceOnUse">
<stop stop-color="#1AAB9B"/>
<stop offset="1" stop-color="white" stop-opacity="0"/>
</linearGradient>
<linearGradient id="paint83_linear" x1="1253" y1="250" x2="1644" y2="250" gradientUnits="userSpaceOnUse">
<stop stop-color="#1AAB9B"/>
<stop offset="1" stop-color="white" stop-opacity="0"/>
</linearGradient>
<linearGradient id="paint84_linear" x1="1253" y1="250" x2="1644" y2="250" gradientUnits="userSpaceOnUse">
<stop stop-color="#1AAB9B"/>
<stop offset="1" stop-color="white" stop-opacity="0"/>
</linearGradient>
<linearGradient id="paint85_linear" x1="1253" y1="250" x2="1644" y2="250" gradientUnits="userSpaceOnUse">
<stop stop-color="#1AAB9B"/>
<stop offset="1" stop-color="white" stop-opacity="0"/>
</linearGradient>
<linearGradient id="paint86_linear" x1="1253" y1="250" x2="1644" y2="250" gradientUnits="userSpaceOnUse">
<stop stop-color="#1AAB9B"/>
<stop offset="1" stop-color="white" stop-opacity="0"/>
</linearGradient>
<linearGradient id="paint87_linear" x1="1253" y1="250" x2="1644" y2="250" gradientUnits="userSpaceOnUse">
<stop stop-color="#1AAB9B"/>
<stop offset="1" stop-color="white" stop-opacity="0"/>
</linearGradient>
<linearGradient id="paint88_linear" x1="1253" y1="250" x2="1644" y2="250" gradientUnits="userSpaceOnUse">
<stop stop-color="#1AAB9B"/>
<stop offset="1" stop-color="white" stop-opacity="0"/>
</linearGradient>
<linearGradient id="paint89_linear" x1="1253" y1="250" x2="1644" y2="250" gradientUnits="userSpaceOnUse">
<stop stop-color="#1AAB9B"/>
<stop offset="1" stop-color="white" stop-opacity="0"/>
</linearGradient>
<linearGradient id="paint90_linear" x1="1253" y1="250" x2="1644" y2="250" gradientUnits="userSpaceOnUse">
<stop stop-color="#1AAB9B"/>
<stop offset="1" stop-color="white" stop-opacity="0"/>
</linearGradient>
<linearGradient id="paint91_linear" x1="1253" y1="250" x2="1644" y2="250" gradientUnits="userSpaceOnUse">
<stop stop-color="#1AAB9B"/>
<stop offset="1" stop-color="white" stop-opacity="0"/>
</linearGradient>
<linearGradient id="paint92_linear" x1="1253" y1="250" x2="1644" y2="250" gradientUnits="userSpaceOnUse">
<stop stop-color="#1AAB9B"/>
<stop offset="1" stop-color="white" stop-opacity="0"/>
</linearGradient>
<linearGradient id="paint93_linear" x1="1253" y1="250" x2="1644" y2="250" gradientUnits="userSpaceOnUse">
<stop stop-color="#1AAB9B"/>
<stop offset="1" stop-color="white" stop-opacity="0"/>
</linearGradient>
<linearGradient id="paint94_linear" x1="1253" y1="250" x2="1644" y2="250" gradientUnits="userSpaceOnUse">
<stop stop-color="#1AAB9B"/>
<stop offset="1" stop-color="white" stop-opacity="0"/>
</linearGradient>
<linearGradient id="paint95_linear" x1="1253" y1="250" x2="1644" y2="250" gradientUnits="userSpaceOnUse">
<stop stop-color="#1AAB9B"/>
<stop offset="1" stop-color="white" stop-opacity="0"/>
</linearGradient>
<linearGradient id="paint96_linear" x1="1253" y1="250" x2="1644" y2="250" gradientUnits="userSpaceOnUse">
<stop stop-color="#1AAB9B"/>
<stop offset="1" stop-color="white" stop-opacity="0"/>
</linearGradient>
<linearGradient id="paint97_linear" x1="1253" y1="250" x2="1644" y2="250" gradientUnits="userSpaceOnUse">
<stop stop-color="#1AAB9B"/>
<stop offset="1" stop-color="white" stop-opacity="0"/>
</linearGradient>
<linearGradient id="paint98_linear" x1="1253" y1="250" x2="1644" y2="250" gradientUnits="userSpaceOnUse">
<stop stop-color="#1AAB9B"/>
<stop offset="1" stop-color="white" stop-opacity="0"/>
</linearGradient>
<linearGradient id="paint99_linear" x1="1253" y1="250" x2="1644" y2="250" gradientUnits="userSpaceOnUse">
<stop stop-color="#1AAB9B"/>
<stop offset="1" stop-color="white" stop-opacity="0"/>
</linearGradient>
<linearGradient id="paint100_linear" x1="1253" y1="250" x2="1644" y2="250" gradientUnits="userSpaceOnUse">
<stop stop-color="#1AAB9B"/>
<stop offset="1" stop-color="white" stop-opacity="0"/>
</linearGradient>
<linearGradient id="paint101_linear" x1="1253" y1="250" x2="1644" y2="250" gradientUnits="userSpaceOnUse">
<stop stop-color="#1AAB9B"/>
<stop offset="1" stop-color="white" stop-opacity="0"/>
</linearGradient>
<linearGradient id="paint102_linear" x1="1253" y1="250" x2="1644" y2="250" gradientUnits="userSpaceOnUse">
<stop stop-color="#1AAB9B"/>
<stop offset="1" stop-color="white" stop-opacity="0"/>
</linearGradient>
<linearGradient id="paint103_linear" x1="1512" y1="326" x2="1121" y2="326" gradientUnits="userSpaceOnUse">
<stop stop-color="#1AAB9B"/>
<stop offset="1" stop-color="white" stop-opacity="0"/>
</linearGradient>
<linearGradient id="paint104_linear" x1="1512" y1="326" x2="1121" y2="326" gradientUnits="userSpaceOnUse">
<stop stop-color="#1AAB9B"/>
<stop offset="1" stop-color="white" stop-opacity="0"/>
</linearGradient>
<linearGradient id="paint105_linear" x1="1512" y1="326" x2="1121" y2="326" gradientUnits="userSpaceOnUse">
<stop stop-color="#1AAB9B"/>
<stop offset="1" stop-color="white" stop-opacity="0"/>
</linearGradient>
<linearGradient id="paint106_linear" x1="1512" y1="326" x2="1121" y2="326" gradientUnits="userSpaceOnUse">
<stop stop-color="#1AAB9B"/>
<stop offset="1" stop-color="white" stop-opacity="0"/>
</linearGradient>
<linearGradient id="paint107_linear" x1="1512" y1="326" x2="1121" y2="326" gradientUnits="userSpaceOnUse">
<stop stop-color="#1AAB9B"/>
<stop offset="1" stop-color="white" stop-opacity="0"/>
</linearGradient>
<linearGradient id="paint108_linear" x1="1512" y1="326" x2="1121" y2="326" gradientUnits="userSpaceOnUse">
<stop stop-color="#1AAB9B"/>
<stop offset="1" stop-color="white" stop-opacity="0"/>
</linearGradient>
<linearGradient id="paint109_linear" x1="1512" y1="326" x2="1121" y2="326" gradientUnits="userSpaceOnUse">
<stop stop-color="#1AAB9B"/>
<stop offset="1" stop-color="white" stop-opacity="0"/>
</linearGradient>
<linearGradient id="paint110_linear" x1="1512" y1="326" x2="1121" y2="326" gradientUnits="userSpaceOnUse">
<stop stop-color="#1AAB9B"/>
<stop offset="1" stop-color="white" stop-opacity="0"/>
</linearGradient>
<linearGradient id="paint111_linear" x1="1512" y1="326" x2="1121" y2="326" gradientUnits="userSpaceOnUse">
<stop stop-color="#1AAB9B"/>
<stop offset="1" stop-color="white" stop-opacity="0"/>
</linearGradient>
<linearGradient id="paint112_linear" x1="1512" y1="326" x2="1121" y2="326" gradientUnits="userSpaceOnUse">
<stop stop-color="#1AAB9B"/>
<stop offset="1" stop-color="white" stop-opacity="0"/>
</linearGradient>
<linearGradient id="paint113_linear" x1="1512" y1="326" x2="1121" y2="326" gradientUnits="userSpaceOnUse">
<stop stop-color="#1AAB9B"/>
<stop offset="1" stop-color="white" stop-opacity="0"/>
</linearGradient>
<linearGradient id="paint114_linear" x1="1512" y1="326" x2="1121" y2="326" gradientUnits="userSpaceOnUse">
<stop stop-color="#1AAB9B"/>
<stop offset="1" stop-color="white" stop-opacity="0"/>
</linearGradient>
<linearGradient id="paint115_linear" x1="1512" y1="326" x2="1121" y2="326" gradientUnits="userSpaceOnUse">
<stop stop-color="#1AAB9B"/>
<stop offset="1" stop-color="white" stop-opacity="0"/>
</linearGradient>
<linearGradient id="paint116_linear" x1="1512" y1="326" x2="1121" y2="326" gradientUnits="userSpaceOnUse">
<stop stop-color="#1AAB9B"/>
<stop offset="1" stop-color="white" stop-opacity="0"/>
</linearGradient>
<linearGradient id="paint117_linear" x1="1512" y1="326" x2="1121" y2="326" gradientUnits="userSpaceOnUse">
<stop stop-color="#1AAB9B"/>
<stop offset="1" stop-color="white" stop-opacity="0"/>
</linearGradient>
<linearGradient id="paint118_linear" x1="1512" y1="326" x2="1121" y2="326" gradientUnits="userSpaceOnUse">
<stop stop-color="#1AAB9B"/>
<stop offset="1" stop-color="white" stop-opacity="0"/>
</linearGradient>
<linearGradient id="paint119_linear" x1="1512" y1="326" x2="1121" y2="326" gradientUnits="userSpaceOnUse">
<stop stop-color="#1AAB9B"/>
<stop offset="1" stop-color="white" stop-opacity="0"/>
</linearGradient>
<linearGradient id="paint120_linear" x1="1512" y1="326" x2="1121" y2="326" gradientUnits="userSpaceOnUse">
<stop stop-color="#1AAB9B"/>
<stop offset="1" stop-color="white" stop-opacity="0"/>
</linearGradient>
<linearGradient id="paint121_linear" x1="1512" y1="326" x2="1121" y2="326" gradientUnits="userSpaceOnUse">
<stop stop-color="#1AAB9B"/>
<stop offset="1" stop-color="white" stop-opacity="0"/>
</linearGradient>
<linearGradient id="paint122_linear" x1="1512" y1="326" x2="1121" y2="326" gradientUnits="userSpaceOnUse">
<stop stop-color="#1AAB9B"/>
<stop offset="1" stop-color="white" stop-opacity="0"/>
</linearGradient>
<linearGradient id="paint123_linear" x1="1512" y1="326" x2="1121" y2="326" gradientUnits="userSpaceOnUse">
<stop stop-color="#1AAB9B"/>
<stop offset="1" stop-color="white" stop-opacity="0"/>
</linearGradient>
<linearGradient id="paint124_linear" x1="1512" y1="326" x2="1121" y2="326" gradientUnits="userSpaceOnUse">
<stop stop-color="#1AAB9B"/>
<stop offset="1" stop-color="white" stop-opacity="0"/>
</linearGradient>
<linearGradient id="paint125_linear" x1="1512" y1="326" x2="1121" y2="326" gradientUnits="userSpaceOnUse">
<stop stop-color="#1AAB9B"/>
<stop offset="1" stop-color="white" stop-opacity="0"/>
</linearGradient>
<linearGradient id="paint126_linear" x1="1512" y1="326" x2="1121" y2="326" gradientUnits="userSpaceOnUse">
<stop stop-color="#1AAB9B"/>
<stop offset="1" stop-color="white" stop-opacity="0"/>
</linearGradient>
<linearGradient id="paint127_linear" x1="1512" y1="326" x2="1121" y2="326" gradientUnits="userSpaceOnUse">
<stop stop-color="#1AAB9B"/>
<stop offset="1" stop-color="white" stop-opacity="0"/>
</linearGradient>
<linearGradient id="paint128_linear" x1="1512" y1="326" x2="1121" y2="326" gradientUnits="userSpaceOnUse">
<stop stop-color="#1AAB9B"/>
<stop offset="1" stop-color="white" stop-opacity="0"/>
</linearGradient>
<linearGradient id="paint129_linear" x1="1512" y1="326" x2="1121" y2="326" gradientUnits="userSpaceOnUse">
<stop stop-color="#1AAB9B"/>
<stop offset="1" stop-color="white" stop-opacity="0"/>
</linearGradient>
<linearGradient id="paint130_linear" x1="1512" y1="326" x2="1121" y2="326" gradientUnits="userSpaceOnUse">
<stop stop-color="#1AAB9B"/>
<stop offset="1" stop-color="white" stop-opacity="0"/>
</linearGradient>
<linearGradient id="paint131_linear" x1="1512" y1="326" x2="1121" y2="326" gradientUnits="userSpaceOnUse">
<stop stop-color="#1AAB9B"/>
<stop offset="1" stop-color="white" stop-opacity="0"/>
</linearGradient>
<linearGradient id="paint132_linear" x1="1512" y1="326" x2="1121" y2="326" gradientUnits="userSpaceOnUse">
<stop stop-color="#1AAB9B"/>
<stop offset="1" stop-color="white" stop-opacity="0"/>
</linearGradient>
<linearGradient id="paint133_linear" x1="1512" y1="326" x2="1121" y2="326" gradientUnits="userSpaceOnUse">
<stop stop-color="#1AAB9B"/>
<stop offset="1" stop-color="white" stop-opacity="0"/>
</linearGradient>
<linearGradient id="paint134_linear" x1="1512" y1="326" x2="1121" y2="326" gradientUnits="userSpaceOnUse">
<stop stop-color="#1AAB9B"/>
<stop offset="1" stop-color="white" stop-opacity="0"/>
</linearGradient>
<linearGradient id="paint135_linear" x1="1512" y1="326" x2="1121" y2="326" gradientUnits="userSpaceOnUse">
<stop stop-color="#1AAB9B"/>
<stop offset="1" stop-color="white" stop-opacity="0"/>
</linearGradient>
<linearGradient id="paint136_linear" x1="1512" y1="326" x2="1121" y2="326" gradientUnits="userSpaceOnUse">
<stop stop-color="#1AAB9B"/>
<stop offset="1" stop-color="white" stop-opacity="0"/>
</linearGradient>
<linearGradient id="paint137_linear" x1="1512" y1="326" x2="1121" y2="326" gradientUnits="userSpaceOnUse">
<stop stop-color="#1AAB9B"/>
<stop offset="1" stop-color="white" stop-opacity="0"/>
</linearGradient>
<linearGradient id="paint138_linear" x1="1512" y1="326" x2="1121" y2="326" gradientUnits="userSpaceOnUse">
<stop stop-color="#1AAB9B"/>
<stop offset="1" stop-color="white" stop-opacity="0"/>
</linearGradient>
<linearGradient id="paint139_linear" x1="1512" y1="326" x2="1121" y2="326" gradientUnits="userSpaceOnUse">
<stop stop-color="#1AAB9B"/>
<stop offset="1" stop-color="white" stop-opacity="0"/>
</linearGradient>
<linearGradient id="paint140_linear" x1="1512" y1="326" x2="1121" y2="326" gradientUnits="userSpaceOnUse">
<stop stop-color="#1AAB9B"/>
<stop offset="1" stop-color="white" stop-opacity="0"/>
</linearGradient>
<linearGradient id="paint141_linear" x1="1512" y1="326" x2="1121" y2="326" gradientUnits="userSpaceOnUse">
<stop stop-color="#1AAB9B"/>
<stop offset="1" stop-color="white" stop-opacity="0"/>
</linearGradient>
<linearGradient id="paint142_linear" x1="1512" y1="326" x2="1121" y2="326" gradientUnits="userSpaceOnUse">
<stop stop-color="#1AAB9B"/>
<stop offset="1" stop-color="white" stop-opacity="0"/>
</linearGradient>
<linearGradient id="paint143_linear" x1="1512" y1="326" x2="1121" y2="326" gradientUnits="userSpaceOnUse">
<stop stop-color="#1AAB9B"/>
<stop offset="1" stop-color="white" stop-opacity="0"/>
</linearGradient>
<linearGradient id="paint144_linear" x1="1512" y1="326" x2="1121" y2="326" gradientUnits="userSpaceOnUse">
<stop stop-color="#1AAB9B"/>
<stop offset="1" stop-color="white" stop-opacity="0"/>
</linearGradient>
<linearGradient id="paint145_linear" x1="285.5" y1="194.5" x2="-34" y2="194.5" gradientUnits="userSpaceOnUse">
<stop stop-color="white" stop-opacity="0"/>
<stop offset="1" stop-color="#1AAB9B"/>
</linearGradient>
<linearGradient id="paint146_linear" x1="285.5" y1="194.5" x2="-34" y2="194.5" gradientUnits="userSpaceOnUse">
<stop stop-color="white" stop-opacity="0"/>
<stop offset="1" stop-color="#1AAB9B"/>
</linearGradient>
<linearGradient id="paint147_linear" x1="285.5" y1="194.5" x2="-34" y2="194.5" gradientUnits="userSpaceOnUse">
<stop stop-color="white" stop-opacity="0"/>
<stop offset="1" stop-color="#1AAB9B"/>
</linearGradient>
<linearGradient id="paint148_linear" x1="285.5" y1="194.5" x2="-34" y2="194.5" gradientUnits="userSpaceOnUse">
<stop stop-color="white" stop-opacity="0"/>
<stop offset="1" stop-color="#1AAB9B"/>
</linearGradient>
<linearGradient id="paint149_linear" x1="285.5" y1="194.5" x2="-34" y2="194.5" gradientUnits="userSpaceOnUse">
<stop stop-color="white" stop-opacity="0"/>
<stop offset="1" stop-color="#1AAB9B"/>
</linearGradient>
<linearGradient id="paint150_linear" x1="285.5" y1="194.5" x2="-34" y2="194.5" gradientUnits="userSpaceOnUse">
<stop stop-color="white" stop-opacity="0"/>
<stop offset="1" stop-color="#1AAB9B"/>
</linearGradient>
<linearGradient id="paint151_linear" x1="285.5" y1="194.5" x2="-34" y2="194.5" gradientUnits="userSpaceOnUse">
<stop stop-color="white" stop-opacity="0"/>
<stop offset="1" stop-color="#1AAB9B"/>
</linearGradient>
<linearGradient id="paint152_linear" x1="285.5" y1="194.5" x2="-34" y2="194.5" gradientUnits="userSpaceOnUse">
<stop stop-color="white" stop-opacity="0"/>
<stop offset="1" stop-color="#1AAB9B"/>
</linearGradient>
<linearGradient id="paint153_linear" x1="285.5" y1="194.5" x2="-34" y2="194.5" gradientUnits="userSpaceOnUse">
<stop stop-color="white" stop-opacity="0"/>
<stop offset="1" stop-color="#1AAB9B"/>
</linearGradient>
<linearGradient id="paint154_linear" x1="285.5" y1="194.5" x2="-34" y2="194.5" gradientUnits="userSpaceOnUse">
<stop stop-color="white" stop-opacity="0"/>
<stop offset="1" stop-color="#1AAB9B"/>
</linearGradient>
<linearGradient id="paint155_linear" x1="285.5" y1="194.5" x2="-34" y2="194.5" gradientUnits="userSpaceOnUse">
<stop stop-color="white" stop-opacity="0"/>
<stop offset="1" stop-color="#1AAB9B"/>
</linearGradient>
<linearGradient id="paint156_linear" x1="285.5" y1="194.5" x2="-34" y2="194.5" gradientUnits="userSpaceOnUse">
<stop stop-color="white" stop-opacity="0"/>
<stop offset="1" stop-color="#1AAB9B"/>
</linearGradient>
<linearGradient id="paint157_linear" x1="285.5" y1="194.5" x2="-34" y2="194.5" gradientUnits="userSpaceOnUse">
<stop stop-color="white" stop-opacity="0"/>
<stop offset="1" stop-color="#1AAB9B"/>
</linearGradient>
<linearGradient id="paint158_linear" x1="285.5" y1="194.5" x2="-34" y2="194.5" gradientUnits="userSpaceOnUse">
<stop stop-color="white" stop-opacity="0"/>
<stop offset="1" stop-color="#1AAB9B"/>
</linearGradient>
<linearGradient id="paint159_linear" x1="285.5" y1="194.5" x2="-34" y2="194.5" gradientUnits="userSpaceOnUse">
<stop stop-color="white" stop-opacity="0"/>
<stop offset="1" stop-color="#1AAB9B"/>
</linearGradient>
<linearGradient id="paint160_linear" x1="285.5" y1="194.5" x2="-34" y2="194.5" gradientUnits="userSpaceOnUse">
<stop stop-color="white" stop-opacity="0"/>
<stop offset="1" stop-color="#1AAB9B"/>
</linearGradient>
<linearGradient id="paint161_linear" x1="285.5" y1="194.5" x2="-34" y2="194.5" gradientUnits="userSpaceOnUse">
<stop stop-color="white" stop-opacity="0"/>
<stop offset="1" stop-color="#1AAB9B"/>
</linearGradient>
<linearGradient id="paint162_linear" x1="285.5" y1="194.5" x2="-34" y2="194.5" gradientUnits="userSpaceOnUse">
<stop stop-color="white" stop-opacity="0"/>
<stop offset="1" stop-color="#1AAB9B"/>
</linearGradient>
<linearGradient id="paint163_linear" x1="285.5" y1="194.5" x2="-34" y2="194.5" gradientUnits="userSpaceOnUse">
<stop stop-color="white" stop-opacity="0"/>
<stop offset="1" stop-color="#1AAB9B"/>
</linearGradient>
<linearGradient id="paint164_linear" x1="285.5" y1="194.5" x2="-34" y2="194.5" gradientUnits="userSpaceOnUse">
<stop stop-color="white" stop-opacity="0"/>
<stop offset="1" stop-color="#1AAB9B"/>
</linearGradient>
<linearGradient id="paint165_linear" x1="285.5" y1="194.5" x2="-34" y2="194.5" gradientUnits="userSpaceOnUse">
<stop stop-color="white" stop-opacity="0"/>
<stop offset="1" stop-color="#1AAB9B"/>
</linearGradient>
<linearGradient id="paint166_linear" x1="285.5" y1="194.5" x2="-34" y2="194.5" gradientUnits="userSpaceOnUse">
<stop stop-color="white" stop-opacity="0"/>
<stop offset="1" stop-color="#1AAB9B"/>
</linearGradient>
<linearGradient id="paint167_linear" x1="285.5" y1="194.5" x2="-34" y2="194.5" gradientUnits="userSpaceOnUse">
<stop stop-color="white" stop-opacity="0"/>
<stop offset="1" stop-color="#1AAB9B"/>
</linearGradient>
<linearGradient id="paint168_linear" x1="285.5" y1="194.5" x2="-34" y2="194.5" gradientUnits="userSpaceOnUse">
<stop stop-color="white" stop-opacity="0"/>
<stop offset="1" stop-color="#1AAB9B"/>
</linearGradient>
<linearGradient id="paint169_linear" x1="285.5" y1="194.5" x2="-34" y2="194.5" gradientUnits="userSpaceOnUse">
<stop stop-color="white" stop-opacity="0"/>
<stop offset="1" stop-color="#1AAB9B"/>
</linearGradient>
<linearGradient id="paint170_linear" x1="285.5" y1="194.5" x2="-34" y2="194.5" gradientUnits="userSpaceOnUse">
<stop stop-color="white" stop-opacity="0"/>
<stop offset="1" stop-color="#1AAB9B"/>
</linearGradient>
<linearGradient id="paint171_linear" x1="285.5" y1="194.5" x2="-34" y2="194.5" gradientUnits="userSpaceOnUse">
<stop stop-color="white" stop-opacity="0"/>
<stop offset="1" stop-color="#1AAB9B"/>
</linearGradient>
<linearGradient id="paint172_linear" x1="285.5" y1="194.5" x2="-34" y2="194.5" gradientUnits="userSpaceOnUse">
<stop stop-color="white" stop-opacity="0"/>
<stop offset="1" stop-color="#1AAB9B"/>
</linearGradient>
<linearGradient id="paint173_linear" x1="285.5" y1="194.5" x2="-34" y2="194.5" gradientUnits="userSpaceOnUse">
<stop stop-color="white" stop-opacity="0"/>
<stop offset="1" stop-color="#1AAB9B"/>
</linearGradient>
<linearGradient id="paint174_linear" x1="285.5" y1="194.5" x2="-34" y2="194.5" gradientUnits="userSpaceOnUse">
<stop stop-color="white" stop-opacity="0"/>
<stop offset="1" stop-color="#1AAB9B"/>
</linearGradient>
<linearGradient id="paint175_linear" x1="285.5" y1="194.5" x2="-34" y2="194.5" gradientUnits="userSpaceOnUse">
<stop stop-color="white" stop-opacity="0"/>
<stop offset="1" stop-color="#1AAB9B"/>
</linearGradient>
<linearGradient id="paint176_linear" x1="285.5" y1="194.5" x2="-34" y2="194.5" gradientUnits="userSpaceOnUse">
<stop stop-color="white" stop-opacity="0"/>
<stop offset="1" stop-color="#1AAB9B"/>
</linearGradient>
<linearGradient id="paint177_linear" x1="285.5" y1="194.5" x2="-34" y2="194.5" gradientUnits="userSpaceOnUse">
<stop stop-color="white" stop-opacity="0"/>
<stop offset="1" stop-color="#1AAB9B"/>
</linearGradient>
<linearGradient id="paint178_linear" x1="285.5" y1="194.5" x2="-34" y2="194.5" gradientUnits="userSpaceOnUse">
<stop stop-color="white" stop-opacity="0"/>
<stop offset="1" stop-color="#1AAB9B"/>
</linearGradient>
<linearGradient id="paint179_linear" x1="285.5" y1="194.5" x2="-34" y2="194.5" gradientUnits="userSpaceOnUse">
<stop stop-color="white" stop-opacity="0"/>
<stop offset="1" stop-color="#1AAB9B"/>
</linearGradient>
<linearGradient id="paint180_linear" x1="285.5" y1="194.5" x2="-34" y2="194.5" gradientUnits="userSpaceOnUse">
<stop stop-color="white" stop-opacity="0"/>
<stop offset="1" stop-color="#1AAB9B"/>
</linearGradient>
<linearGradient id="paint181_linear" x1="285.5" y1="194.5" x2="-34" y2="194.5" gradientUnits="userSpaceOnUse">
<stop stop-color="white" stop-opacity="0"/>
<stop offset="1" stop-color="#1AAB9B"/>
</linearGradient>
<linearGradient id="paint182_linear" x1="285.5" y1="194.5" x2="-34" y2="194.5" gradientUnits="userSpaceOnUse">
<stop stop-color="white" stop-opacity="0"/>
<stop offset="1" stop-color="#1AAB9B"/>
</linearGradient>
<linearGradient id="paint183_linear" x1="285.5" y1="194.5" x2="-34" y2="194.5" gradientUnits="userSpaceOnUse">
<stop stop-color="white" stop-opacity="0"/>
<stop offset="1" stop-color="#1AAB9B"/>
</linearGradient>
<linearGradient id="paint184_linear" x1="285.5" y1="194.5" x2="-34" y2="194.5" gradientUnits="userSpaceOnUse">
<stop stop-color="white" stop-opacity="0"/>
<stop offset="1" stop-color="#1AAB9B"/>
</linearGradient>
<linearGradient id="paint185_linear" x1="285.5" y1="194.5" x2="-34" y2="194.5" gradientUnits="userSpaceOnUse">
<stop stop-color="white" stop-opacity="0"/>
<stop offset="1" stop-color="#1AAB9B"/>
</linearGradient>
<linearGradient id="paint186_linear" x1="285.5" y1="194.5" x2="-34" y2="194.5" gradientUnits="userSpaceOnUse">
<stop stop-color="white" stop-opacity="0"/>
<stop offset="1" stop-color="#1AAB9B"/>
</linearGradient>
<linearGradient id="paint187_linear" x1="285.5" y1="194.5" x2="-34" y2="194.5" gradientUnits="userSpaceOnUse">
<stop stop-color="white" stop-opacity="0"/>
<stop offset="1" stop-color="#1AAB9B"/>
</linearGradient>
<linearGradient id="paint188_linear" x1="285.5" y1="194.5" x2="-34" y2="194.5" gradientUnits="userSpaceOnUse">
<stop stop-color="white" stop-opacity="0"/>
<stop offset="1" stop-color="#1AAB9B"/>
</linearGradient>
<linearGradient id="paint189_linear" x1="285.5" y1="194.5" x2="-34" y2="194.5" gradientUnits="userSpaceOnUse">
<stop stop-color="white" stop-opacity="0"/>
<stop offset="1" stop-color="#1AAB9B"/>
</linearGradient>
<linearGradient id="paint190_linear" x1="285.5" y1="194.5" x2="-34" y2="194.5" gradientUnits="userSpaceOnUse">
<stop stop-color="white" stop-opacity="0"/>
<stop offset="1" stop-color="#1AAB9B"/>
</linearGradient>
</defs>
</svg>
