<svg
  width="142"
  height="20"
  viewBox="0 0 142.5 20"
  fill="none"
  xmlns="http://www.w3.org/2000/svg"
  transform="scale(0.8)"
>
  <path
    d="M2.99723 4.25828V19.7522H0V1.75318C0 0.309781 1.64745 -0.513012 2.79968 0.354891L17.0365 11.0786C17.4754 11.4092 17.7336 11.9271 17.7336 12.4769V19.7522H14.7364V13.1007L2.99723 4.25828Z"
    fill="#FFFFFF"
  />
  <path
    d="M15.7207 19.7522V4.25828L3.9816 13.1007V19.7522H0.984375V12.4769C0.984375 11.9271 1.24254 11.4092 1.68146 11.0786L15.9183 0.354891C17.0705 -0.513012 18.718 0.309781 18.718 1.75318V19.7522H15.7207Z"
    fill="#FFFFFF"
    transform="translate(18, 0)"
  />
  <path
    d="M2.33315 0.752441C1.15674 0.752441 0.203125 1.70697 0.203125 2.88447V16.364H2.96907V4.68554L6.69811 10.7764C7.12272 11.4698 7.87677 11.8926 8.68952 11.8926C9.50002 11.8926 10.2528 11.4717 10.6779 10.7808L14.4282 4.68554V16.364H17.1941V2.78544C17.1941 1.66264 16.285 0.752441 15.163 0.752441C14.4427 0.752441 13.7761 1.13439 13.4114 1.75627L8.74247 9.71727L4.17695 1.81697C3.7963 1.15814 3.09345 0.752441 2.33315 0.752441Z"
    fill="#FFFFFF"
    transform="translate(45, 3.3)"
  />
  <path
    fill-rule="evenodd"
    clip-rule="evenodd"
    d="M7.96707 0.752441C7.05316 0.752441 6.23193 1.31099 5.89524 2.16149L0.273438 16.364H2.95146L4.69685 12.2771H11.0629L12.8081 16.364H15.651L10.0396 2.16274C9.70321 1.31159 8.88172 0.752441 7.96707 0.752441ZM7.8799 3.94947L10.0971 9.73924H5.65171L7.8799 3.94947Z"
    fill="#FFFFFF"
    transform="translate(66, 3.3)"
  />
  <path
    d="M3.14119 7.90405L9.8872 1.1203C10.1217 0.884503 10.4404 0.751953 10.7729 0.751953C11.8873 0.751953 12.4443 2.10185 11.6546 2.88893L6.30227 8.22265L14.194 16.3635H10.6048L3.14119 8.80493V16.3635H0.375V2.13623C0.375 1.3717 0.994181 0.751953 1.75797 0.751953C2.52202 0.751953 3.14119 1.3717 3.14119 2.13623V7.90405Z"
    fill="#FFFFFF"
    transform="translate(86, 3.3)"
  />
  <path
    d="M0.0859375 13.8635C0.0859375 15.2442 1.20415 16.3635 2.58363 16.3635H9.75599C10.4591 16.3635 11.0291 15.793 11.0291 15.0891C11.0291 14.3853 10.4591 13.8147 9.75599 13.8147H2.86287V9.59593H9.1523C9.8554 9.59593 10.4254 9.02535 10.4254 8.32153C10.4254 7.61768 9.8554 7.0471 9.1523 7.0471H2.86287V3.30078H9.75599C10.4591 3.30078 11.0291 2.7302 11.0291 2.02635C11.0291 1.32253 10.4591 0.751953 9.75599 0.751953H2.58363C1.20415 0.751953 0.0859375 1.87123 0.0859375 3.25195V13.8635Z"
    fill="#FFFFFF"
    transform="translate(103, 3.3)"
  />
  <path
    fill-rule="evenodd"
    clip-rule="evenodd"
    d="M12.4127 5.22387C12.4127 5.72192 12.3505 6.19799 12.2261 6.65209C12.1092 7.09887 11.9189 7.53099 11.6554 7.94847C11.3994 8.36597 11.0445 8.73949 10.5906 9.06909C10.1443 9.39867 9.61377 9.65502 8.99909 9.83812L13.708 16.364H10.1078L5.73937 10.3105H3.09407V16.364H0.328125V3.25244C0.328125 1.87172 1.44633 0.752441 2.82581 0.752441H6.96873C7.29792 0.752441 7.59789 0.763416 7.86864 0.785391C8.14663 0.800041 8.47958 0.843991 8.86747 0.917216C9.2626 0.983141 9.61028 1.07469 9.91025 1.19189C10.2175 1.30907 10.5322 1.48119 10.8541 1.70824C11.1836 1.93529 11.4543 2.20262 11.6664 2.51024C11.8859 2.81054 12.0653 3.19507 12.2041 3.66382C12.3433 4.12524 12.4127 4.64527 12.4127 5.22387ZM3.09407 3.29027V7.76172H5.64046C6.07955 7.76172 6.46743 7.74707 6.80387 7.71777C7.14056 7.68847 7.48824 7.62987 7.84665 7.54199C8.20532 7.44677 8.49806 7.31859 8.72486 7.15747C8.95889 6.99634 9.14921 6.77294 9.29557 6.48729C9.44918 6.20164 9.5261 5.86474 9.5261 5.47657C9.5261 4.01904 8.4029 3.29027 6.15648 3.29027H3.09407Z"
    fill="#FFFFFF"
    transform="translate(122, 3.3)"
  />
</svg>
