<svg width="81" height="80" viewBox="0 0 81 80" fill="none" xmlns="http://www.w3.org/2000/svg">
<path d="M77.9922 40C77.9922 59.8706 62.5373 76.1315 42.9922 77.418V2.58201C62.5373 3.86848 77.9922 20.1294 77.9922 40Z" stroke="white" stroke-width="5"/>
<mask id="path-2-inside-1_944_10164" fill="white">
<path fill-rule="evenodd" clip-rule="evenodd" d="M41.43 80C18.8207 80 0.492188 62.0914 0.492188 40C0.492188 17.9086 18.8207 0 41.43 0V80ZM40.9861 58.3327C31.2425 58.3327 23.3438 50.1246 23.3438 39.9994C23.3438 29.8741 31.2425 21.666 40.9861 21.666V58.3327Z"/>
</mask>
<path d="M41.43 80V85H46.43V80H41.43ZM41.43 0H46.43V-5H41.43V0ZM40.9861 58.3327V63.3327H45.9861V58.3327H40.9861ZM40.9861 21.666H45.9861V16.666H40.9861V21.666ZM-4.50781 40C-4.50781 64.9614 16.1691 85 41.43 85V75C21.4722 75 5.49219 59.2214 5.49219 40H-4.50781ZM41.43 -5C16.1691 -5 -4.50781 15.0386 -4.50781 40H5.49219C5.49219 20.7786 21.4722 5 41.43 5V-5ZM46.43 80V0H36.43V80H46.43ZM18.3438 39.9994C18.3438 52.7032 28.3017 63.3327 40.9861 63.3327V53.3327C34.1832 53.3327 28.3438 47.5459 28.3438 39.9994H18.3438ZM40.9861 16.666C28.3017 16.666 18.3438 27.2955 18.3438 39.9994H28.3438C28.3438 32.4528 34.1832 26.666 40.9861 26.666V16.666ZM45.9861 58.3327V21.666H35.9861V58.3327H45.9861Z" fill="white" mask="url(#path-2-inside-1_944_10164)"/>
</svg>
