<svg width="84" height="76" viewBox="0 0 84 76" fill="none" xmlns="http://www.w3.org/2000/svg">
<g clip-path="url(#clip0_956_11047)">
<path d="M61.2607 42.1162C72.2002 42.1162 81.0683 33.248 81.0683 22.3086C81.0683 11.3691 72.2002 2.50098 61.2607 2.50098C50.3213 2.50098 41.4531 11.3691 41.4531 22.3086C41.4531 33.248 50.3213 42.1162 61.2607 42.1162Z" stroke="white" stroke-width="5"/>
<mask id="path-2-inside-1_956_11047" fill="white">
<path d="M-0.00195451 16.8262C7.81452 16.8262 15.5545 18.3657 22.7759 21.357C29.9974 24.3482 36.559 28.7325 42.0861 34.2596C47.6132 39.7867 51.9975 46.3483 54.9887 53.5698C57.98 60.7912 59.5195 68.5312 59.5195 76.3476L-0.00195191 76.3476L-0.00195451 16.8262Z"/>
</mask>
<path d="M-0.00195451 16.8262C7.81452 16.8262 15.5545 18.3657 22.7759 21.357C29.9974 24.3482 36.559 28.7325 42.0861 34.2596C47.6132 39.7867 51.9975 46.3483 54.9887 53.5698C57.98 60.7912 59.5195 68.5312 59.5195 76.3476L-0.00195191 76.3476L-0.00195451 16.8262Z" stroke="white" stroke-width="10" mask="url(#path-2-inside-1_956_11047)"/>
</g>
<defs>
<clipPath id="clip0_956_11047">
<rect width="84" height="76" fill="white"/>
</clipPath>
</defs>
</svg>
