<svg width="75" height="76" viewBox="0 0 75 76" fill="none" xmlns="http://www.w3.org/2000/svg">
<path d="M68.779 73.1176L2.5 6.83862V73.1176H68.779Z" stroke="white" stroke-width="5"/>
<mask id="mask0_956_11030" style="mask-type:alpha" maskUnits="userSpaceOnUse" x="0" y="0" width="75" height="76">
<path d="M0.0078125 75.6175C0.0078133 65.7927 1.94295 56.0641 5.70273 46.9872C9.46251 37.9103 14.9733 29.6628 21.9204 22.7157C28.8676 15.7685 37.1151 10.2577 46.192 6.49789C55.2689 2.73811 64.9976 0.802978 74.8223 0.802979L74.8223 75.6175H0.0078125Z" fill="white"/>
</mask>
<g mask="url(#mask0_956_11030)">
<path d="M0.0078125 75.6175C0.0078133 65.7927 1.94295 56.0641 5.70273 46.9872C9.46251 37.9103 14.9733 29.6628 21.9204 22.7157C28.8676 15.7685 37.1151 10.2577 46.192 6.49789C55.2689 2.73811 64.9976 0.802978 74.8223 0.802979L74.8223 75.6175H0.0078125Z" stroke="white" stroke-width="10"/>
</g>
</svg>
