<svg width="81" height="66" viewBox="0 0 81 66" fill="none" xmlns="http://www.w3.org/2000/svg">
<mask id="path-1-inside-1_944_10217" fill="white">
<path fill-rule="evenodd" clip-rule="evenodd" d="M15.4109 0.147461V65.2322L80.4922 65.2322C80.4922 29.288 51.3546 0.14932 15.4109 0.147461Z"/>
</mask>
<path d="M15.4109 0.147461H10.4109V-4.8528L15.4111 -4.85254L15.4109 0.147461ZM15.4109 65.2322L15.4109 70.2322L10.4109 70.2322V65.2322H15.4109ZM80.4922 65.2322H85.4922V70.2322L80.4922 70.2322L80.4922 65.2322ZM20.4109 0.147461V65.2322H10.4109V0.147461H20.4109ZM15.4109 60.2322L80.4922 60.2322L80.4922 70.2322L15.4109 70.2322L15.4109 60.2322ZM75.4922 65.2322C75.4922 32.0494 48.593 5.14918 15.4106 5.14746L15.4111 -4.85254C54.1162 -4.85054 85.4922 26.5267 85.4922 65.2322H75.4922Z" fill="white" mask="url(#path-1-inside-1_944_10217)"/>
<mask id="path-3-inside-2_944_10217" fill="white">
<path fill-rule="evenodd" clip-rule="evenodd" d="M0.495274 21.8423V65.2309H43.8828C43.8822 41.2687 24.4574 21.8435 0.495274 21.8423Z"/>
</mask>
<path d="M0.495274 21.8423H-4.50473V16.842L0.495532 16.8423L0.495274 21.8423ZM0.495274 65.2309V70.2309H-4.50473V65.2309H0.495274ZM43.8828 65.2309L48.8828 65.2308L48.8829 70.2309H43.8828V65.2309ZM5.49527 21.8423V65.2309H-4.50473V21.8423H5.49527ZM0.495274 60.2309H43.8828V70.2309H0.495274V60.2309ZM38.8828 65.2311C38.8823 44.0301 21.6958 26.8434 0.495015 26.8423L0.495532 16.8423C27.2189 16.8437 48.8821 38.5073 48.8828 65.2308L38.8828 65.2311Z" fill="white" mask="url(#path-3-inside-2_944_10217)"/>
</svg>
