<svg width="81" height="81" viewBox="0 0 81 81" fill="none" xmlns="http://www.w3.org/2000/svg">
<mask id="path-1-inside-1_944_10236" fill="white">
<path fill-rule="evenodd" clip-rule="evenodd" d="M75.0078 74.876C58.0463 72.4499 45.0078 57.8628 45.0078 40.2305C45.0078 22.5981 58.0463 8.01106 75.0078 5.58491V22.5866C76.5965 22.1375 78.2728 21.8972 80.0052 21.8972V58.5639C78.2728 58.5639 76.5965 58.3236 75.0078 57.8745V74.876ZM40.0078 40.2305C40.0078 19.8324 55.2763 3.00043 75.0078 0.539937C76.6458 0.335685 78.3145 0.230469 80.0078 0.230469V5.23047V75.2305V80.2305C78.3145 80.2305 76.6458 80.1253 75.0078 79.921C55.2763 77.4605 40.0078 60.6286 40.0078 40.2305Z"/>
</mask>
<path d="M75.0078 74.876L74.2998 79.8256L80.0078 80.6421V74.876H75.0078ZM75.0078 5.58491H80.0078V-0.181172L74.2998 0.635291L75.0078 5.58491ZM75.0078 22.5866H70.0078V29.1959L76.3679 27.3981L75.0078 22.5866ZM80.0052 21.8972H85.0052V16.8972H80.0052V21.8972ZM80.0052 58.5639V63.5639H85.0052V58.5639H80.0052ZM75.0078 57.8745L76.3679 53.063L70.0078 51.2652V57.8745H75.0078ZM75.0078 0.539937L75.6265 5.50151L75.6265 5.50151L75.0078 0.539937ZM80.0078 0.230469H85.0078V-4.76953H80.0078V0.230469ZM80.0078 80.2305V85.2305H85.0078V80.2305H80.0078ZM75.0078 79.921L75.6265 74.9594L75.6265 74.9594L75.0078 79.921ZM40.0078 40.2305C40.0078 60.386 54.9106 77.0522 74.2998 79.8256L75.7158 69.9264C61.1821 67.8475 50.0078 55.3396 50.0078 40.2305H40.0078ZM74.2998 0.635291C54.9106 3.4087 40.0078 20.0749 40.0078 40.2305H50.0078C50.0078 25.1213 61.1821 12.6134 75.7158 10.5345L74.2998 0.635291ZM80.0078 22.5866V5.58491H70.0078V22.5866H80.0078ZM80.0052 16.8972C77.8084 16.8972 75.6746 17.2022 73.6477 17.7751L76.3679 27.3981C77.5184 27.0728 78.7371 26.8972 80.0052 26.8972V16.8972ZM85.0052 58.5639V21.8972H75.0052V58.5639H85.0052ZM73.6477 62.686C75.6746 63.2589 77.8084 63.5639 80.0052 63.5639V53.5639C78.7371 53.5639 77.5184 53.3883 76.3679 53.063L73.6477 62.686ZM80.0078 74.876V57.8745H70.0078V74.876H80.0078ZM74.3891 -4.42164C52.186 -1.65295 35.0078 17.2788 35.0078 40.2305H45.0078C45.0078 22.3859 58.3665 7.6538 75.6265 5.50151L74.3891 -4.42164ZM80.0078 -4.76953C78.1072 -4.76953 76.2318 -4.65142 74.3891 -4.42164L75.6265 5.50151C77.0597 5.32279 78.5218 5.23047 80.0078 5.23047V-4.76953ZM85.0078 5.23047V0.230469H75.0078V5.23047H85.0078ZM85.0078 75.2305V5.23047H75.0078V75.2305H85.0078ZM85.0078 80.2305V75.2305H75.0078V80.2305H85.0078ZM74.3891 84.8826C76.2318 85.1124 78.1072 85.2305 80.0078 85.2305V75.2305C78.5218 75.2305 77.0597 75.1381 75.6265 74.9594L74.3891 84.8826ZM35.0078 40.2305C35.0078 63.1821 52.186 82.1139 74.3891 84.8826L75.6265 74.9594C58.3665 72.8071 45.0078 58.075 45.0078 40.2305H35.0078Z" fill="white" mask="url(#path-1-inside-1_944_10236)"/>
<mask id="path-3-inside-2_944_10236" fill="white">
<path fill-rule="evenodd" clip-rule="evenodd" d="M0.0078125 80.2305C22.0992 80.2305 40.0078 62.3219 40.0078 40.2305C40.0078 18.1391 22.0992 0.230469 0.0078125 0.230469V21.8972C10.1318 21.8986 18.3385 30.1062 18.3385 40.2306C18.3385 50.3549 10.1318 58.5625 0.0078125 58.5639V80.2305Z"/>
</mask>
<path d="M0.0078125 80.2305H-4.99219V85.2305H0.0078125V80.2305ZM0.0078125 0.230469V-4.76953H-4.99219V0.230469H0.0078125ZM0.0078125 21.8972H-4.99219V26.8965L0.00711731 26.8972L0.0078125 21.8972ZM0.0078125 58.5639L0.00711731 53.5639L-4.99219 53.5646V58.5639H0.0078125ZM35.0078 40.2305C35.0078 59.5604 19.3378 75.2305 0.0078125 75.2305V85.2305C24.8606 85.2305 45.0078 65.0833 45.0078 40.2305H35.0078ZM0.0078125 5.23047C19.3378 5.23047 35.0078 20.9005 35.0078 40.2305H45.0078C45.0078 15.3777 24.8606 -4.76953 0.0078125 -4.76953V5.23047ZM5.00781 21.8972V0.230469H-4.99219V21.8972H5.00781ZM0.00711731 26.8972C7.37003 26.8982 13.3385 32.8674 13.3385 40.2306H23.3385C23.3385 27.345 12.8936 16.899 0.00850769 16.8972L0.00711731 26.8972ZM13.3385 40.2306C13.3385 47.5937 7.37003 53.5629 0.00711731 53.5639L0.00850769 63.5639C12.8936 63.5621 23.3385 53.1161 23.3385 40.2306H13.3385ZM5.00781 80.2305V58.5639H-4.99219V80.2305H5.00781Z" fill="white" mask="url(#path-3-inside-2_944_10236)"/>
</svg>
