<svg width="69" height="70" viewBox="0 0 69 70" fill="none" xmlns="http://www.w3.org/2000/svg">
<mask id="path-1-inside-1_944_10198" fill="white">
<path fill-rule="evenodd" clip-rule="evenodd" d="M0.490738 68.7804V69.2309H68.875V0.84668H68.6124C31.1149 0.986894 0.732224 31.3069 0.490738 68.7804Z"/>
</mask>
<path d="M0.490738 68.7804H-4.50926V68.7643L-4.50916 68.7482L0.490738 68.7804ZM0.490738 69.2309V74.2309H-4.50926V69.2309H0.490738ZM68.875 69.2309H73.875V74.2309H68.875V69.2309ZM68.875 0.84668V-4.15332H73.875V0.84668H68.875ZM68.6124 0.84668L68.5937 -4.15329L68.603 -4.15332H68.6124V0.84668ZM5.49074 68.7804V69.2309H-4.50926V68.7804H5.49074ZM0.490738 64.2309H68.875V74.2309H0.490738V64.2309ZM63.875 69.2309V0.84668H73.875V69.2309H63.875ZM68.875 5.84668H68.6124V-4.15332H68.875V5.84668ZM68.631 5.84664C33.8759 5.9766 5.71446 34.0799 5.49063 68.8127L-4.50916 68.7482C-4.25001 28.534 28.3539 -4.00282 68.5937 -4.15329L68.631 5.84664Z" fill="white" mask="url(#path-1-inside-1_944_10198)"/>
<mask id="path-3-inside-2_944_10198" fill="white">
<path fill-rule="evenodd" clip-rule="evenodd" d="M68.875 32.1894V69.2314H31.8359C31.8359 69.2313 31.8359 69.2311 31.8359 69.2309C31.8359 48.7743 48.4187 32.1907 68.875 32.1894Z"/>
</mask>
<path d="M68.875 69.2314H73.875V74.2314H68.875V69.2314ZM68.875 32.1894L68.8747 27.1894L73.875 27.1891V32.1894H68.875ZM31.8359 69.2314V74.2314H26.8359V69.2314H31.8359ZM63.875 69.2314V32.1894H73.875V69.2314H63.875ZM31.8359 64.2314H68.875V74.2314H31.8359V64.2314ZM26.8359 69.2314C26.8359 69.2314 26.8359 69.2313 26.8359 69.2312C26.8359 69.2311 26.8359 69.231 26.8359 69.2309H36.8359C36.8359 69.231 36.8359 69.231 36.8359 69.2311C36.8359 69.2312 36.8359 69.2313 36.8359 69.2314H26.8359ZM26.8359 69.2309C26.8359 46.0129 45.6571 27.1909 68.8747 27.1894L68.8753 37.1894C51.1803 37.1906 36.8359 51.5356 36.8359 69.2309H26.8359Z" fill="white" mask="url(#path-3-inside-2_944_10198)"/>
</svg>
