<svg width="76" height="77" viewBox="0 0 76 77" fill="none" xmlns="http://www.w3.org/2000/svg">
<mask id="path-1-inside-1_944_10129" fill="white">
<path fill-rule="evenodd" clip-rule="evenodd" d="M38.3795 0.455566H0.492188V36.0537V38.3428H0.560204C1.74369 58.2015 18.2235 73.941 38.3795 73.941V38.3428V36.0537V0.455566Z"/>
</mask>
<path d="M0.492188 0.455566V-4.54443H-4.50781V0.455566H0.492188ZM38.3795 0.455566H43.3795V-4.54443H38.3795V0.455566ZM0.492188 38.3428H-4.50781V43.3428H0.492188V38.3428ZM0.560204 38.3428L5.55135 38.0454L5.2711 33.3428H0.560204V38.3428ZM38.3795 73.941V78.941H43.3795V73.941H38.3795ZM0.492188 5.45557H38.3795V-4.54443H0.492188V5.45557ZM5.49219 36.0537V0.455566H-4.50781V36.0537H5.49219ZM5.49219 38.3428V36.0537H-4.50781V38.3428H5.49219ZM0.560204 33.3428H0.492188V43.3428H0.560204V33.3428ZM38.3795 68.941C20.8853 68.941 6.57838 55.2788 5.55135 38.0454L-4.43094 38.6403C-3.091 61.1243 15.5617 78.941 38.3795 78.941V68.941ZM33.3795 38.3428V73.941H43.3795V38.3428H33.3795ZM33.3795 36.0537V38.3428H43.3795V36.0537H33.3795ZM33.3795 0.455566V36.0537H43.3795V0.455566H33.3795Z" fill="white" mask="url(#path-1-inside-1_944_10129)"/>
<mask id="path-3-inside-2_944_10129" fill="white">
<path fill-rule="evenodd" clip-rule="evenodd" d="M75.3349 36.0527C74.1511 16.1943 57.6714 0.455078 37.5156 0.455078V38.3424H37.5234V73.94H75.4107V36.0527H75.3349Z"/>
</mask>
<path d="M37.5156 0.455078V-4.54492H32.5156V0.455078H37.5156ZM75.3349 36.0527L70.3437 36.3502L70.624 41.0527H75.3349V36.0527ZM37.5156 38.3424H32.5156V43.3424H37.5156V38.3424ZM37.5234 38.3424H42.5234V33.3424H37.5234V38.3424ZM37.5234 73.94H32.5234V78.94H37.5234V73.94ZM75.4107 73.94V78.94H80.4107V73.94H75.4107ZM75.4107 36.0527H80.4107V31.0527H75.4107V36.0527ZM37.5156 5.45508C55.0097 5.45508 69.3165 19.1171 70.3437 36.3502L80.326 35.7552C78.9858 13.2714 60.3332 -4.54492 37.5156 -4.54492V5.45508ZM42.5156 38.3424V0.455078H32.5156V38.3424H42.5156ZM37.5234 33.3424H37.5156V43.3424H37.5234V33.3424ZM42.5234 73.94V38.3424H32.5234V73.94H42.5234ZM75.4107 68.94H37.5234V78.94H75.4107V68.94ZM70.4107 36.0527V73.94H80.4107V36.0527H70.4107ZM75.3349 41.0527H75.4107V31.0527H75.3349V41.0527Z" fill="white" mask="url(#path-3-inside-2_944_10129)"/>
</svg>
