<svg width="58" height="58" viewBox="0 0 58 58" fill="none" xmlns="http://www.w3.org/2000/svg">
<path d="M20.5793 3.08371C25.4957 1.48625 30.7532 1.32382 35.739 2.59641L28.08 26.1684L8.02841 11.6001C11.314 7.63998 15.6628 4.68116 20.5793 3.08371L20.0397 1.42326L20.5793 3.08371ZM56.1938 30.75C55.9559 34.4457 54.9668 38.0606 53.2799 41.3712C51.593 44.6818 49.25 47.6069 46.3999 49.9715L32.4346 30.75H56.1938ZM54.3233 18.9354L32.4777 26.0305L42.9078 5.56633C48.0848 8.63854 52.1001 13.341 54.3233 18.9354ZM22.261 55.4036L29 34.6631L35.739 55.4036C31.3176 56.5321 26.6825 56.5321 22.261 55.4036ZM2.59644 22.261L24.4411 29.3587L3.9757 39.7864C2.79374 37.0443 2.06891 34.1228 1.83401 31.138L0.0908217 31.2752L1.834 31.138C1.5991 28.1533 1.85798 25.1543 2.59644 22.261Z" stroke="white" stroke-width="3.5"/>
<path d="M12.5 52.5L29 29L5.5 46C6 46.6667 7.3 48.3 8.5 49.5C9.7 50.7 11.6667 52 12.5 52.5Z" fill="white"/>
</svg>
