<svg width="13" height="13" viewBox="0 0 13 13" fill="none" xmlns="http://www.w3.org/2000/svg">
<path fill-rule="evenodd" clip-rule="evenodd" d="M12.4946 6.47955C12.1385 6.11403 12.059 5.55736 12.2987 5.10532C12.4698 4.783 12.4815 4.39841 12.3311 4.06589C12.1805 3.73325 11.8844 3.49061 11.5308 3.40973C11.0348 3.29646 10.6697 2.87142 10.629 2.36046C10.6001 1.99603 10.4037 1.66591 10.0987 1.46827C9.79354 1.27063 9.41458 1.22779 9.07378 1.35259C8.5957 1.52755 8.06075 1.36903 7.75259 0.961396C7.53263 0.670759 7.19063 0.5 6.82811 0.5C6.46547 0.5 6.12359 0.670758 5.90363 0.961516C5.59547 1.36903 5.06027 1.52755 4.58256 1.35259C4.24164 1.22779 3.86244 1.27063 3.55752 1.46827C3.25236 1.66591 3.05616 1.99591 3.02712 2.36046C2.98644 2.87142 2.62116 3.29634 2.12544 3.40973C1.77169 3.49061 1.47565 3.73325 1.32505 4.06601C1.17433 4.39853 1.18633 4.783 1.35745 5.10544C1.59721 5.55748 1.51765 6.11403 1.16137 6.47967C0.907208 6.74055 0.788288 7.10594 0.840008 7.46798C0.891608 7.8299 1.10773 8.14669 1.42453 8.32489C1.86852 8.57449 2.10024 9.08593 1.99656 9.58764C1.92264 9.94548 2.01864 10.3177 2.25612 10.5943C2.4936 10.8707 2.84544 11.0195 3.20748 10.9965C3.71496 10.9644 4.18404 11.2685 4.36572 11.7473C4.49556 12.0888 4.77588 12.3494 5.12387 12.4525C5.47175 12.5556 5.84759 12.4889 6.13979 12.2723C6.54947 11.9688 7.10723 11.9688 7.51667 12.2723C7.80911 12.4889 8.18458 12.5556 8.5327 12.4525C8.88058 12.3494 9.16102 12.0888 9.29074 11.7473C9.47254 11.2685 9.94174 10.9645 10.4491 10.9965C10.811 11.0195 11.1627 10.8707 11.4002 10.5943C11.6378 10.3177 11.7337 9.9456 11.6599 9.58764C11.5562 9.0858 11.7877 8.57449 12.2318 8.32489C12.5487 8.14681 12.765 7.8299 12.8163 7.46798C12.8678 7.10582 12.749 6.74043 12.4946 6.47955ZM5.91436 8.31062C6.0872 8.47226 6.35687 8.46894 6.52593 8.30334L9.51533 5.37517C9.68962 5.20445 9.69735 4.92634 9.53282 4.74619C9.35993 4.5569 9.06453 4.54871 8.88142 4.72814L6.22343 7.33267L4.77549 5.99349C4.58706 5.81921 4.29213 5.83412 4.12223 6.02649C3.9584 6.212 3.97188 6.49417 4.15265 6.66322L5.91436 8.31062Z" fill="#139D8D"/>
</svg>
