<svg width="24" height="24" viewBox="0 0 24 24" fill="none" xmlns="http://www.w3.org/2000/svg">
<rect width="24" height="24" rx="12" fill="white"/>
<path d="M2.7001 15.0243C2.38247 14.0475 2.22069 13.0269 2.2207 11.9998L2.29318 11.9453L11.725 11.9642L11.9999 11.9999L2.7001 15.0243Z" fill="url(#paint0_radial_3491_8833)"/>
<path d="M15.0231 21.3005C13.5554 21.7774 11.9957 21.9002 10.4714 21.6588L10.3984 21.5481L11.969 12.1247L12.0012 12L15.0231 21.3005Z" fill="url(#paint1_radial_3491_8833)"/>
<path d="M21.7792 12C21.7792 13.0262 21.6176 14.046 21.3005 15.0219H21.0893L12.0499 12.0358L12 12H21.7792Z" fill="url(#paint2_radial_3491_8833)"/>
<path d="M4.08789 6.25183C4.38901 5.83737 4.72224 5.44721 5.08449 5.08496L5.1662 5.11007L11.9526 11.923L11.9994 11.9999L4.08789 6.25183Z" fill="url(#paint3_radial_3491_8833)"/>
<path d="M5.08594 5.08467C6.54622 3.62439 8.43132 2.66388 10.4711 2.34082L10.515 2.41277L12.0009 11.8427V11.9996L5.08594 5.08467Z" fill="url(#paint4_radial_3491_8833)"/>
<path d="M10.4695 2.34119C11.994 2.09964 13.554 2.22238 15.0219 2.69938L11.9999 11.9999L10.4695 2.34119Z" fill="url(#paint5_radial_3491_8833)"/>
<path d="M2.2207 11.9999C2.2207 10.9737 2.38222 9.95389 2.69933 8.97794L11.9999 11.9999L2.2207 11.9999Z" fill="url(#paint6_radial_3491_8833)"/>
<path d="M17.748 4.08839C19.4186 5.30219 20.6621 7.0137 21.3003 8.97763L11.9999 11.9999L17.748 4.08839Z" fill="url(#paint7_radial_3491_8833)"/>
<path d="M6.25182 19.9114C5.42162 19.3082 4.69153 18.5781 4.08836 17.7479L11.9999 11.9999L6.25182 19.9114Z" fill="url(#paint8_radial_3491_8833)"/>
<path d="M10.4701 21.6586C9.96408 21.5785 9.46517 21.4587 8.97794 21.3004L11.9999 11.9999L10.4701 21.6586Z" fill="url(#paint9_radial_3491_8833)"/>
<path d="M21.3005 15.0216C20.6624 16.9857 19.4188 18.6973 17.7481 19.9112L11.9999 11.9999L21.3005 15.0216Z" fill="url(#paint10_radial_3491_8833)"/>
<defs>
<radialGradient id="paint0_radial_3491_8833" cx="0" cy="0" r="1" gradientUnits="userSpaceOnUse" gradientTransform="translate(11.9999 12) rotate(-180) scale(13.026 13.026)">
<stop stop-color="#6D28FF"/>
<stop offset="1" stop-color="#F7A7F9"/>
</radialGradient>
<radialGradient id="paint1_radial_3491_8833" cx="0" cy="0" r="1" gradientUnits="userSpaceOnUse" gradientTransform="translate(12.0012 12) rotate(90) scale(10.0119 10.0119)">
<stop stop-color="#FFCD6B"/>
<stop offset="1" stop-color="#EB5EDF"/>
</radialGradient>
<radialGradient id="paint2_radial_3491_8833" cx="0" cy="0" r="1" gradientUnits="userSpaceOnUse" gradientTransform="translate(12 12) rotate(-90) scale(10.0038 10.0038)">
<stop stop-color="#A273FF"/>
<stop offset="0.5" stop-color="#9FAEFF"/>
<stop offset="1" stop-color="#B6ECDF"/>
<stop offset="1" stop-color="#AAF2E1"/>
</radialGradient>
<radialGradient id="paint3_radial_3491_8833" cx="0" cy="0" r="1" gradientUnits="userSpaceOnUse" gradientTransform="translate(11.9994 11.9999) rotate(114.172) scale(10.719 10.719)">
<stop stop-color="#FFD2B9"/>
<stop offset="0.289583" stop-color="#C99BED"/>
<stop offset="1" stop-color="#0075FF"/>
</radialGradient>
<radialGradient id="paint4_radial_3491_8833" cx="0" cy="0" r="1" gradientUnits="userSpaceOnUse" gradientTransform="translate(12.0009 11.9996) rotate(-98.9946) scale(10.0139 10.0139)">
<stop stop-color="#F7A7F9"/>
<stop offset="1" stop-color="#00DDFB"/>
</radialGradient>
<radialGradient id="paint5_radial_3491_8833" cx="0" cy="0" r="1" gradientUnits="userSpaceOnUse" gradientTransform="translate(11.9999 11.9999) rotate(-90) scale(10.0038)">
<stop stop-color="#A273FF"/>
<stop offset="0.5" stop-color="#9FAEFF"/>
<stop offset="1" stop-color="#B6ECDF"/>
<stop offset="1" stop-color="#AAF2E1"/>
</radialGradient>
<radialGradient id="paint6_radial_3491_8833" cx="0" cy="0" r="1" gradientUnits="userSpaceOnUse" gradientTransform="translate(11.9999 11.9999) rotate(-180) scale(10.0208 10.0208)">
<stop stop-color="#FFF3D0"/>
<stop offset="1" stop-color="#FFC044"/>
</radialGradient>
<radialGradient id="paint7_radial_3491_8833" cx="0" cy="0" r="1" gradientUnits="userSpaceOnUse" gradientTransform="translate(11.9999 11.9999) rotate(90) scale(10.0119)">
<stop stop-color="#FFCD6B"/>
<stop offset="1" stop-color="#EB5EDF"/>
</radialGradient>
<radialGradient id="paint8_radial_3491_8833" cx="0" cy="0" r="1" gradientUnits="userSpaceOnUse" gradientTransform="translate(11.9999 11.9999) rotate(114.172) scale(10.719)">
<stop stop-color="#FFD2B9"/>
<stop offset="0.289583" stop-color="#C99BED"/>
<stop offset="1" stop-color="#0075FF"/>
</radialGradient>
<radialGradient id="paint9_radial_3491_8833" cx="0" cy="0" r="1" gradientUnits="userSpaceOnUse" gradientTransform="translate(11.9999 11.9999) rotate(90) scale(10.0326 10.0326)">
<stop stop-color="#D5FAFF"/>
<stop offset="1" stop-color="#00DDFB"/>
</radialGradient>
<radialGradient id="paint10_radial_3491_8833" cx="0" cy="0" r="1" gradientUnits="userSpaceOnUse" gradientTransform="translate(11.9999 11.9999) rotate(35.9904) scale(9.9752)">
<stop stop-color="#0075FF"/>
<stop offset="1" stop-color="#00DDFB"/>
</radialGradient>
</defs>
</svg>
