<svg width="290" height="2097" viewBox="0 0 290 2097" fill="none" xmlns="http://www.w3.org/2000/svg">
<g opacity="0.8">
<path opacity="0.3" d="M198.105 2095.89C212.134 1983.42 292.308 1794.53 283.602 1662.67C267.603 1420.36 146.259 1655.61 111.381 1542.01C55.9384 1361.43 165.64 982.466 186.118 1146.18C192.378 1196.22 170.105 1218.94 164.022 1189.22C151.373 1127.42 167.834 1042.85 174.854 996.597C180.906 956.71 200.319 863.094 193.556 803.621C172.721 620.398 211.246 589.286 174.854 532.177C74.2056 374.232 126.044 227.688 107.41 63.8193C96.2315 -34.4836 16.2821 37.707 1.83901 108.271" stroke="url(#paint0_linear_1244_9011)" stroke-width="2.5437" stroke-dasharray="4.24 8.48"/>
<g style="mix-blend-mode:multiply" opacity="0.5">
<path d="M200.652 2082.85C214.681 1970.37 294.855 1781.49 286.148 1649.62C270.15 1407.31 148.805 1642.56 113.928 1528.96C58.4852 1348.38 168.187 969.42 188.665 1133.13C194.925 1183.18 172.652 1205.89 166.569 1176.17C153.92 1114.38 170.381 1029.81 177.401 983.551C183.453 943.663 202.866 850.047 196.103 790.574C127.513 555.064 233.984 587.104 171.443 493.625C126.533 415.624 155.001 405.503 108.056 247.581C110.798 145.787 115.632 100.685 109.957 50.7729C98.7784 -47.5299 18.829 24.6606 4.38589 95.2243" stroke="url(#paint1_linear_1244_9011)" stroke-width="5.08741"/>
</g>
</g>
<defs>
<linearGradient id="paint0_linear_1244_9011" x1="143.05" y1="2095.89" x2="143.05" y2="15.8779" gradientUnits="userSpaceOnUse">
<stop stop-color="#E64BFF"/>
<stop offset="0.291667" stop-color="#9A4BFF"/>
<stop offset="0.536458" stop-color="#4B68FF"/>
<stop offset="0.755208" stop-color="#1ACCA7"/>
<stop offset="1" stop-color="#1AAB9B"/>
</linearGradient>
<linearGradient id="paint1_linear_1244_9011" x1="145.597" y1="2082.85" x2="145.597" y2="2.83153" gradientUnits="userSpaceOnUse">
<stop offset="0.109375" stop-color="#E64BFF"/>
<stop offset="0.328125" stop-color="#9A4BFF"/>
<stop offset="0.546875" stop-color="#4B68FF"/>
<stop offset="0.776042" stop-color="#1ACCA7"/>
<stop offset="1" stop-color="#1AAB9B"/>
</linearGradient>
</defs>
</svg>
