<svg width="53" height="60" viewBox="0 0 53 60" fill="none" xmlns="http://www.w3.org/2000/svg">
<path d="M26.1348 40.2589L40.1332 45.7865L41.0173 48.4665L42.748 53.7126L44.7769 48.5745L50.104 35.0839C51.7718 30.8603 49.7 26.0843 45.4763 24.4165L45.4717 24.4147L32.3179 19.2578L32.3127 19.2558C29.1831 18.039 25.6785 19.1247 24.4351 22.2664L21.5101 29.5836L21.5101 29.5836L21.507 29.5914C19.8392 33.8151 21.9111 38.5911 26.1348 40.2589Z" stroke="#1AAB9B" stroke-width="4"/>
<path d="M11.8907 21.9616L20.9757 25.549L22.8262 26.2797L23.5666 24.4329L24.6105 21.8289L24.6144 21.8192L24.6182 21.8094C25.2017 20.3086 26.0522 19.2641 27.0205 18.734C27.9237 18.2397 29.195 18.045 31.0197 18.7545L31.0246 18.7563L35.2528 20.3875L37.1041 21.1017L37.8329 19.2561L39.3246 15.4784C40.4874 12.5335 39.0429 9.20344 36.0979 8.04056L22.6118 2.71522C18.3881 1.0474 13.6121 3.11934 11.9443 7.34298L6.62309 20.8188L4.58489 25.9804L9.44727 23.3057L11.8907 21.9616Z" stroke="#1AAB9B" stroke-width="4"/>
</svg>
