<svg width="155" height="438" viewBox="0 0 155 438" fill="none" xmlns="http://www.w3.org/2000/svg">
<mask id="path-1-inside-1_1244_9189" fill="white">
<path d="M37.1364 346.728C35.6322 346.292 34.0568 346.156 32.5002 346.329C30.9435 346.501 29.4361 346.979 28.0641 347.734C26.692 348.489 25.482 349.507 24.5034 350.73C23.5247 351.953 22.7965 353.356 22.3602 354.861C21.924 356.365 21.7883 357.94 21.9609 359.497C22.1335 361.053 22.611 362.561 23.3662 363.933C24.1214 365.305 25.1394 366.515 26.3621 367.494C27.5849 368.472 28.9884 369.2 30.4926 369.637L31.7979 365.136C30.8848 364.871 30.0327 364.429 29.2904 363.835C28.5481 363.241 27.9301 362.506 27.4717 361.673C27.0132 360.84 26.7234 359.925 26.6186 358.98C26.5138 358.035 26.5962 357.079 26.861 356.166C27.1258 355.253 27.5679 354.401 28.162 353.658C28.7561 352.916 29.4906 352.298 30.3236 351.84C31.1566 351.381 32.0716 351.091 33.0166 350.986C33.9616 350.882 34.918 350.964 35.8311 351.229L37.1364 346.728Z"/>
</mask>
<path d="M37.1364 346.728C35.6322 346.292 34.0568 346.156 32.5002 346.329C30.9435 346.501 29.4361 346.979 28.0641 347.734C26.692 348.489 25.482 349.507 24.5034 350.73C23.5247 351.953 22.7965 353.356 22.3602 354.861C21.924 356.365 21.7883 357.94 21.9609 359.497C22.1335 361.053 22.611 362.561 23.3662 363.933C24.1214 365.305 25.1394 366.515 26.3621 367.494C27.5849 368.472 28.9884 369.2 30.4926 369.637L31.7979 365.136C30.8848 364.871 30.0327 364.429 29.2904 363.835C28.5481 363.241 27.9301 362.506 27.4717 361.673C27.0132 360.84 26.7234 359.925 26.6186 358.98C26.5138 358.035 26.5962 357.079 26.861 356.166C27.1258 355.253 27.5679 354.401 28.162 353.658C28.7561 352.916 29.4906 352.298 30.3236 351.84C31.1566 351.381 32.0716 351.091 33.0166 350.986C33.9616 350.882 34.918 350.964 35.8311 351.229L37.1364 346.728Z" stroke="#1AAB9B" stroke-width="41.6894" mask="url(#path-1-inside-1_1244_9189)"/>
<mask id="path-2-inside-2_1244_9189" fill="white">
<path d="M68.204 239.606C66.6998 239.17 65.1245 239.035 63.5678 239.207C62.0112 239.38 60.5038 239.857 59.1317 240.612C57.7596 241.368 56.5497 242.386 55.571 243.608C54.5923 244.831 53.8641 246.235 53.4279 247.739C52.9916 249.243 52.8559 250.818 53.0285 252.375C53.2011 253.932 53.6787 255.439 54.4338 256.811C55.189 258.183 56.207 259.393 57.4298 260.372C58.6525 261.351 60.0561 262.079 61.5603 262.515L62.8655 258.014C61.9524 257.749 61.1003 257.307 60.3581 256.713C59.6158 256.119 58.9977 255.385 58.5393 254.552C58.0809 253.719 57.791 252.804 57.6862 251.859C57.5814 250.914 57.6638 249.957 57.9286 249.044C58.1935 248.131 58.6355 247.279 59.2297 246.537C59.8238 245.794 60.5583 245.176 61.3912 244.718C62.2242 244.259 63.1393 243.97 64.0843 243.865C65.0292 243.76 65.9856 243.842 66.8988 244.107L68.204 239.606Z"/>
</mask>
<path d="M68.204 239.606C66.6998 239.17 65.1245 239.035 63.5678 239.207C62.0112 239.38 60.5038 239.857 59.1317 240.612C57.7596 241.368 56.5497 242.386 55.571 243.608C54.5923 244.831 53.8641 246.235 53.4279 247.739C52.9916 249.243 52.8559 250.818 53.0285 252.375C53.2011 253.932 53.6787 255.439 54.4338 256.811C55.189 258.183 56.207 259.393 57.4298 260.372C58.6525 261.351 60.0561 262.079 61.5603 262.515L62.8655 258.014C61.9524 257.749 61.1003 257.307 60.3581 256.713C59.6158 256.119 58.9977 255.385 58.5393 254.552C58.0809 253.719 57.791 252.804 57.6862 251.859C57.5814 250.914 57.6638 249.957 57.9286 249.044C58.1935 248.131 58.6355 247.279 59.2297 246.537C59.8238 245.794 60.5583 245.176 61.3912 244.718C62.2242 244.259 63.1393 243.97 64.0843 243.865C65.0292 243.76 65.9856 243.842 66.8988 244.107L68.204 239.606Z" stroke="#1AAB9B" stroke-width="41.6894" mask="url(#path-2-inside-2_1244_9189)"/>
<mask id="path-3-inside-3_1244_9189" fill="white">
<path d="M52.6701 293.167C51.1659 292.731 49.5905 292.595 48.0339 292.768C46.4772 292.941 44.9698 293.418 43.5977 294.173C42.2257 294.928 41.0157 295.946 40.0371 297.169C39.0584 298.392 38.3302 299.796 37.8939 301.3C37.4577 302.804 37.322 304.379 37.4946 305.936C37.6672 307.493 38.1447 309 38.8999 310.372C39.6551 311.744 40.6731 312.954 41.8958 313.933C43.1186 314.911 44.5221 315.64 46.0263 316.076L47.3316 311.575C46.4185 311.31 45.5664 310.868 44.8241 310.274C44.0818 309.68 43.4638 308.946 43.0054 308.113C42.5469 307.28 42.2571 306.365 42.1523 305.42C42.0475 304.475 42.1299 303.518 42.3947 302.605C42.6595 301.692 43.1016 300.84 43.6957 300.098C44.2898 299.355 45.0243 298.737 45.8573 298.279C46.6902 297.82 47.6053 297.53 48.5503 297.426C49.4953 297.321 50.4517 297.403 51.3648 297.668L52.6701 293.167Z"/>
</mask>
<path d="M52.6701 293.167C51.1659 292.731 49.5905 292.595 48.0339 292.768C46.4772 292.941 44.9698 293.418 43.5977 294.173C42.2257 294.928 41.0157 295.946 40.0371 297.169C39.0584 298.392 38.3302 299.796 37.8939 301.3C37.4577 302.804 37.322 304.379 37.4946 305.936C37.6672 307.493 38.1447 309 38.8999 310.372C39.6551 311.744 40.6731 312.954 41.8958 313.933C43.1186 314.911 44.5221 315.64 46.0263 316.076L47.3316 311.575C46.4185 311.31 45.5664 310.868 44.8241 310.274C44.0818 309.68 43.4638 308.946 43.0054 308.113C42.5469 307.28 42.2571 306.365 42.1523 305.42C42.0475 304.475 42.1299 303.518 42.3947 302.605C42.6595 301.692 43.1016 300.84 43.6957 300.098C44.2898 299.355 45.0243 298.737 45.8573 298.279C46.6902 297.82 47.6053 297.53 48.5503 297.426C49.4953 297.321 50.4517 297.403 51.3648 297.668L52.6701 293.167Z" stroke="#1AAB9B" stroke-width="41.6894" mask="url(#path-3-inside-3_1244_9189)"/>
<mask id="path-4-inside-4_1244_9189" fill="white">
<path d="M21.6027 400.289C20.0985 399.853 18.5231 399.717 16.9665 399.89C15.4099 400.062 13.9025 400.54 12.5304 401.295C11.1583 402.05 9.94835 403.068 8.96969 404.291C7.99103 405.514 7.26279 406.917 6.82655 408.421C6.39032 409.926 6.25463 411.501 6.42723 413.058C6.59983 414.614 7.07735 416.122 7.83251 417.494C8.58767 418.866 9.60569 420.076 10.8285 421.054C12.0512 422.033 13.4548 422.761 14.959 423.197L16.2642 418.697C15.3511 418.432 14.499 417.99 13.7567 417.396C13.0144 416.802 12.3964 416.067 11.938 415.234C11.4796 414.401 11.1897 413.486 11.0849 412.541C10.9801 411.596 11.0625 410.64 11.3273 409.727C11.5921 408.813 12.0342 407.961 12.6283 407.219C13.2225 406.477 13.957 405.859 14.7899 405.4C15.6229 404.942 16.538 404.652 17.4829 404.547C18.4279 404.442 19.3843 404.525 20.2974 404.79L21.6027 400.289Z"/>
</mask>
<path d="M21.6027 400.289C20.0985 399.853 18.5231 399.717 16.9665 399.89C15.4099 400.062 13.9025 400.54 12.5304 401.295C11.1583 402.05 9.94835 403.068 8.96969 404.291C7.99103 405.514 7.26279 406.917 6.82655 408.421C6.39032 409.926 6.25463 411.501 6.42723 413.058C6.59983 414.614 7.07735 416.122 7.83251 417.494C8.58767 418.866 9.60569 420.076 10.8285 421.054C12.0512 422.033 13.4548 422.761 14.959 423.197L16.2642 418.697C15.3511 418.432 14.499 417.99 13.7567 417.396C13.0144 416.802 12.3964 416.067 11.938 415.234C11.4796 414.401 11.1897 413.486 11.0849 412.541C10.9801 411.596 11.0625 410.64 11.3273 409.727C11.5921 408.813 12.0342 407.961 12.6283 407.219C13.2225 406.477 13.957 405.859 14.7899 405.4C15.6229 404.942 16.538 404.652 17.4829 404.547C18.4279 404.442 19.3843 404.525 20.2974 404.79L21.6027 400.289Z" stroke="#1AAB9B" stroke-width="41.6894" mask="url(#path-4-inside-4_1244_9189)"/>
<mask id="path-5-inside-5_1244_9189" fill="white">
<path d="M83.7377 186.046C82.2335 185.609 80.6581 185.474 79.1015 185.646C77.5449 185.819 76.0375 186.296 74.6654 187.052C73.2933 187.807 72.0834 188.825 71.1047 190.048C70.126 191.27 69.3978 192.674 68.9616 194.178C68.5253 195.682 68.3896 197.258 68.5622 198.814C68.7348 200.371 69.2124 201.878 69.9675 203.25C70.7227 204.622 71.7407 205.832 72.9635 206.811C74.1862 207.79 75.5898 208.518 77.094 208.954L78.3992 204.453C77.4861 204.189 76.634 203.747 75.8917 203.152C75.1494 202.558 74.5314 201.824 74.073 200.991C73.6146 200.158 73.3247 199.243 73.2199 198.298C73.1151 197.353 73.1975 196.396 73.4623 195.483C73.7271 194.57 74.1692 193.718 74.7633 192.976C75.3575 192.234 76.092 191.616 76.9249 191.157C77.7579 190.699 78.673 190.409 79.618 190.304C80.5629 190.199 81.5193 190.282 82.4325 190.546L83.7377 186.046Z"/>
</mask>
<path d="M83.7377 186.046C82.2335 185.609 80.6581 185.474 79.1015 185.646C77.5449 185.819 76.0375 186.296 74.6654 187.052C73.2933 187.807 72.0834 188.825 71.1047 190.048C70.126 191.27 69.3978 192.674 68.9616 194.178C68.5253 195.682 68.3896 197.258 68.5622 198.814C68.7348 200.371 69.2124 201.878 69.9675 203.25C70.7227 204.622 71.7407 205.832 72.9635 206.811C74.1862 207.79 75.5898 208.518 77.094 208.954L78.3992 204.453C77.4861 204.189 76.634 203.747 75.8917 203.152C75.1494 202.558 74.5314 201.824 74.073 200.991C73.6146 200.158 73.3247 199.243 73.2199 198.298C73.1151 197.353 73.1975 196.396 73.4623 195.483C73.7271 194.57 74.1692 193.718 74.7633 192.976C75.3575 192.234 76.092 191.616 76.9249 191.157C77.7579 190.699 78.673 190.409 79.618 190.304C80.5629 190.199 81.5193 190.282 82.4325 190.546L83.7377 186.046Z" stroke="#1AAB9B" stroke-width="41.6894" mask="url(#path-5-inside-5_1244_9189)"/>
<mask id="path-6-inside-6_1244_9189" fill="white">
<path d="M29.3696 373.509C27.8654 373.072 26.29 372.937 24.7333 373.109C23.1767 373.282 21.6693 373.759 20.2972 374.515C18.9251 375.27 17.7152 376.288 16.7365 377.511C15.7579 378.733 15.0296 380.137 14.5934 381.641C14.1572 383.145 14.0215 384.721 14.1941 386.277C14.3667 387.834 14.8442 389.341 15.5994 390.713C16.3545 392.086 17.3725 393.295 18.5953 394.274C19.8181 395.253 21.2216 395.981 22.7258 396.417L24.0311 391.916C23.1179 391.652 22.2659 391.21 21.5236 390.615C20.7813 390.021 20.1633 389.287 19.7048 388.454C19.2464 387.621 18.9565 386.706 18.8517 385.761C18.747 384.816 18.8293 383.859 19.0942 382.946C19.359 382.033 19.8011 381.181 20.3952 380.439C20.9893 379.697 21.7238 379.079 22.5568 378.62C23.3897 378.162 24.3048 377.872 25.2498 377.767C26.1948 377.662 27.1511 377.745 28.0643 378.009L29.3696 373.509Z"/>
</mask>
<path d="M29.3696 373.509C27.8654 373.072 26.29 372.937 24.7333 373.109C23.1767 373.282 21.6693 373.759 20.2972 374.515C18.9251 375.27 17.7152 376.288 16.7365 377.511C15.7579 378.733 15.0296 380.137 14.5934 381.641C14.1572 383.145 14.0215 384.721 14.1941 386.277C14.3667 387.834 14.8442 389.341 15.5994 390.713C16.3545 392.086 17.3725 393.295 18.5953 394.274C19.8181 395.253 21.2216 395.981 22.7258 396.417L24.0311 391.916C23.1179 391.652 22.2659 391.21 21.5236 390.615C20.7813 390.021 20.1633 389.287 19.7048 388.454C19.2464 387.621 18.9565 386.706 18.8517 385.761C18.747 384.816 18.8293 383.859 19.0942 382.946C19.359 382.033 19.8011 381.181 20.3952 380.439C20.9893 379.697 21.7238 379.079 22.5568 378.62C23.3897 378.162 24.3048 377.872 25.2498 377.767C26.1948 377.662 27.1511 377.745 28.0643 378.009L29.3696 373.509Z" stroke="#1AAB9B" stroke-width="41.6894" mask="url(#path-6-inside-6_1244_9189)"/>
<mask id="path-7-inside-7_1244_9189" fill="white">
<path d="M60.437 266.387C58.9328 265.951 57.3574 265.815 55.8007 265.988C54.2441 266.16 52.7367 266.638 51.3646 267.393C49.9925 268.148 48.7826 269.166 47.8039 270.389C46.8253 271.611 46.097 273.015 45.6608 274.519C45.2245 276.023 45.0889 277.599 45.2615 279.155C45.4341 280.712 45.9116 282.219 46.6667 283.592C47.4219 284.964 48.4399 286.174 49.6627 287.152C50.8854 288.131 52.289 288.859 53.7932 289.295L55.0985 284.795C54.1853 284.53 53.3333 284.088 52.591 283.494C51.8487 282.899 51.2307 282.165 50.7722 281.332C50.3138 280.499 50.0239 279.584 49.9191 278.639C49.8143 277.694 49.8967 276.738 50.1615 275.825C50.4264 274.911 50.8685 274.059 51.4626 273.317C52.0567 272.575 52.7912 271.957 53.6241 271.498C54.4571 271.04 55.3722 270.75 56.3172 270.645C57.2622 270.54 58.2185 270.623 59.1317 270.888L60.437 266.387Z"/>
</mask>
<path d="M60.437 266.387C58.9328 265.951 57.3574 265.815 55.8007 265.988C54.2441 266.16 52.7367 266.638 51.3646 267.393C49.9925 268.148 48.7826 269.166 47.8039 270.389C46.8253 271.611 46.097 273.015 45.6608 274.519C45.2245 276.023 45.0889 277.599 45.2615 279.155C45.4341 280.712 45.9116 282.219 46.6667 283.592C47.4219 284.964 48.4399 286.174 49.6627 287.152C50.8854 288.131 52.289 288.859 53.7932 289.295L55.0985 284.795C54.1853 284.53 53.3333 284.088 52.591 283.494C51.8487 282.899 51.2307 282.165 50.7722 281.332C50.3138 280.499 50.0239 279.584 49.9191 278.639C49.8143 277.694 49.8967 276.738 50.1615 275.825C50.4264 274.911 50.8685 274.059 51.4626 273.317C52.0567 272.575 52.7912 271.957 53.6241 271.498C54.4571 271.04 55.3722 270.75 56.3172 270.645C57.2622 270.54 58.2185 270.623 59.1317 270.888L60.437 266.387Z" stroke="#1AAB9B" stroke-width="41.6894" mask="url(#path-7-inside-7_1244_9189)"/>
<mask id="path-8-inside-8_1244_9189" fill="white">
<path d="M44.9033 319.948C43.3991 319.512 41.8237 319.376 40.267 319.549C38.7104 319.721 37.203 320.199 35.8309 320.954C34.4588 321.709 33.2489 322.727 32.2702 323.95C31.2916 325.173 30.5633 326.576 30.1271 328.08C29.6909 329.584 29.5552 331.16 29.7278 332.716C29.9004 334.273 30.3779 335.781 31.133 337.153C31.8882 338.525 32.9062 339.735 34.129 340.713C35.3517 341.692 36.7553 342.42 38.2595 342.856L39.5648 338.356C38.6516 338.091 37.7996 337.649 37.0573 337.055C36.315 336.461 35.697 335.726 35.2385 334.893C34.7801 334.06 34.4902 333.145 34.3854 332.2C34.2806 331.255 34.363 330.299 34.6278 329.386C34.8927 328.472 35.3348 327.62 35.9289 326.878C36.523 326.136 37.2575 325.518 38.0904 325.059C38.9234 324.601 39.8385 324.311 40.7835 324.206C41.7285 324.101 42.6848 324.184 43.598 324.449L44.9033 319.948Z"/>
</mask>
<path d="M44.9033 319.948C43.3991 319.512 41.8237 319.376 40.267 319.549C38.7104 319.721 37.203 320.199 35.8309 320.954C34.4588 321.709 33.2489 322.727 32.2702 323.95C31.2916 325.173 30.5633 326.576 30.1271 328.08C29.6909 329.584 29.5552 331.16 29.7278 332.716C29.9004 334.273 30.3779 335.781 31.133 337.153C31.8882 338.525 32.9062 339.735 34.129 340.713C35.3517 341.692 36.7553 342.42 38.2595 342.856L39.5648 338.356C38.6516 338.091 37.7996 337.649 37.0573 337.055C36.315 336.461 35.697 335.726 35.2385 334.893C34.7801 334.06 34.4902 333.145 34.3854 332.2C34.2806 331.255 34.363 330.299 34.6278 329.386C34.8927 328.472 35.3348 327.62 35.9289 326.878C36.523 326.136 37.2575 325.518 38.0904 325.059C38.9234 324.601 39.8385 324.311 40.7835 324.206C41.7285 324.101 42.6848 324.184 43.598 324.449L44.9033 319.948Z" stroke="#1AAB9B" stroke-width="41.6894" mask="url(#path-8-inside-8_1244_9189)"/>
<mask id="path-9-inside-9_1244_9189" fill="white">
<path d="M75.9706 212.826C74.4664 212.39 72.8911 212.254 71.3344 212.427C69.7778 212.599 68.2704 213.077 66.8983 213.832C65.5262 214.587 64.3163 215.605 63.3376 216.828C62.3589 218.051 61.6307 219.454 61.1945 220.959C60.7582 222.463 60.6225 224.038 60.7951 225.595C60.9678 227.151 61.4453 228.659 62.2004 230.031C62.9556 231.403 63.9736 232.613 65.1964 233.592C66.4191 234.57 67.8227 235.298 69.3269 235.735L70.6321 231.234C69.719 230.969 68.8669 230.527 68.1247 229.933C67.3824 229.339 66.7643 228.604 66.3059 227.771C65.8475 226.938 65.5576 226.023 65.4528 225.078C65.348 224.133 65.4304 223.177 65.6952 222.264C65.9601 221.351 66.4021 220.499 66.9963 219.756C67.5904 219.014 68.3249 218.396 69.1578 217.938C69.9908 217.479 70.9059 217.189 71.8509 217.084C72.7958 216.98 73.7522 217.062 74.6654 217.327L75.9706 212.826Z"/>
</mask>
<path d="M75.9706 212.826C74.4664 212.39 72.8911 212.254 71.3344 212.427C69.7778 212.599 68.2704 213.077 66.8983 213.832C65.5262 214.587 64.3163 215.605 63.3376 216.828C62.3589 218.051 61.6307 219.454 61.1945 220.959C60.7582 222.463 60.6225 224.038 60.7951 225.595C60.9678 227.151 61.4453 228.659 62.2004 230.031C62.9556 231.403 63.9736 232.613 65.1964 233.592C66.4191 234.57 67.8227 235.298 69.3269 235.735L70.6321 231.234C69.719 230.969 68.8669 230.527 68.1247 229.933C67.3824 229.339 66.7643 228.604 66.3059 227.771C65.8475 226.938 65.5576 226.023 65.4528 225.078C65.348 224.133 65.4304 223.177 65.6952 222.264C65.9601 221.351 66.4021 220.499 66.9963 219.756C67.5904 219.014 68.3249 218.396 69.1578 217.938C69.9908 217.479 70.9059 217.189 71.8509 217.084C72.7958 216.98 73.7522 217.062 74.6654 217.327L75.9706 212.826Z" stroke="#1AAB9B" stroke-width="41.6894" mask="url(#path-9-inside-9_1244_9189)"/>
<mask id="path-10-inside-10_1244_9189" fill="white">
<path d="M34.7117 355.102C36.2159 355.538 37.6195 356.266 38.8422 357.245C40.065 358.224 41.083 359.434 41.8382 360.806C42.5933 362.178 43.0709 363.685 43.2435 365.242C43.4161 366.799 43.2804 368.374 42.8441 369.878C42.4079 371.382 41.6797 372.786 40.701 374.009C39.7223 375.231 38.5124 376.249 37.1403 377.005C35.7682 377.76 34.2608 378.237 32.7042 378.41C31.1476 378.582 29.5722 378.447 28.068 378.011L29.3732 373.51C30.2864 373.775 31.2428 373.857 32.1877 373.752C33.1327 373.647 34.0478 373.358 34.8808 372.899C35.7137 372.441 36.4482 371.823 37.0423 371.08C37.6365 370.338 38.0786 369.486 38.3434 368.573C38.6082 367.66 38.6906 366.703 38.5858 365.758C38.481 364.813 38.1911 363.898 37.7327 363.065C37.2743 362.232 36.6562 361.498 35.914 360.904C35.1717 360.31 34.3196 359.868 33.4065 359.603L34.7117 355.102Z"/>
</mask>
<path d="M34.7117 355.102C36.2159 355.538 37.6195 356.266 38.8422 357.245C40.065 358.224 41.083 359.434 41.8382 360.806C42.5933 362.178 43.0709 363.685 43.2435 365.242C43.4161 366.799 43.2804 368.374 42.8441 369.878C42.4079 371.382 41.6797 372.786 40.701 374.009C39.7223 375.231 38.5124 376.249 37.1403 377.005C35.7682 377.76 34.2608 378.237 32.7042 378.41C31.1476 378.582 29.5722 378.447 28.068 378.011L29.3732 373.51C30.2864 373.775 31.2428 373.857 32.1877 373.752C33.1327 373.647 34.0478 373.358 34.8808 372.899C35.7137 372.441 36.4482 371.823 37.0423 371.08C37.6365 370.338 38.0786 369.486 38.3434 368.573C38.6082 367.66 38.6906 366.703 38.5858 365.758C38.481 364.813 38.1911 363.898 37.7327 363.065C37.2743 362.232 36.6562 361.498 35.914 360.904C35.1717 360.31 34.3196 359.868 33.4065 359.603L34.7117 355.102Z" stroke="#1AAB9B" stroke-width="41.6894" mask="url(#path-10-inside-10_1244_9189)"/>
<mask id="path-11-inside-11_1244_9189" fill="white">
<path d="M65.7791 247.98C67.2833 248.417 68.6869 249.145 69.9096 250.123C71.1324 251.102 72.1504 252.312 72.9056 253.684C73.6607 255.056 74.1382 256.564 74.3108 258.12C74.4834 259.677 74.3478 261.252 73.9115 262.757C73.4753 264.261 72.747 265.664 71.7684 266.887C70.7897 268.11 69.5798 269.128 68.2077 269.883C66.8356 270.638 65.3282 271.116 63.7716 271.288C62.2149 271.461 60.6395 271.325 59.1353 270.889L60.4406 266.388C61.3538 266.653 62.3101 266.735 63.2551 266.631C64.2001 266.526 65.1152 266.236 65.9482 265.777C66.7811 265.319 67.5156 264.701 68.1097 263.959C68.7038 263.216 69.1459 262.364 69.4108 261.451C69.6756 260.538 69.758 259.582 69.6532 258.637C69.5484 257.692 69.2585 256.777 68.8001 255.944C68.3416 255.111 67.7236 254.376 66.9813 253.782C66.239 253.188 65.387 252.746 64.4738 252.481L65.7791 247.98Z"/>
</mask>
<path d="M65.7791 247.98C67.2833 248.417 68.6869 249.145 69.9096 250.123C71.1324 251.102 72.1504 252.312 72.9056 253.684C73.6607 255.056 74.1382 256.564 74.3108 258.12C74.4834 259.677 74.3478 261.252 73.9115 262.757C73.4753 264.261 72.747 265.664 71.7684 266.887C70.7897 268.11 69.5798 269.128 68.2077 269.883C66.8356 270.638 65.3282 271.116 63.7716 271.288C62.2149 271.461 60.6395 271.325 59.1353 270.889L60.4406 266.388C61.3538 266.653 62.3101 266.735 63.2551 266.631C64.2001 266.526 65.1152 266.236 65.9482 265.777C66.7811 265.319 67.5156 264.701 68.1097 263.959C68.7038 263.216 69.1459 262.364 69.4108 261.451C69.6756 260.538 69.758 259.582 69.6532 258.637C69.5484 257.692 69.2585 256.777 68.8001 255.944C68.3416 255.111 67.7236 254.376 66.9813 253.782C66.239 253.188 65.387 252.746 64.4738 252.481L65.7791 247.98Z" stroke="#1AAB9B" stroke-width="41.6894" mask="url(#path-11-inside-11_1244_9189)"/>
<mask id="path-12-inside-12_1244_9189" fill="white">
<path d="M50.2454 301.541C51.7496 301.978 53.1532 302.706 54.3759 303.685C55.5987 304.663 56.6167 305.873 57.3719 307.245C58.127 308.617 58.6045 310.125 58.7771 311.681C58.9497 313.238 58.8141 314.813 58.3778 316.318C57.9416 317.822 57.2133 319.225 56.2347 320.448C55.256 321.671 54.0461 322.689 52.674 323.444C51.3019 324.199 49.7945 324.677 48.2379 324.849C46.6812 325.022 45.1059 324.886 43.6017 324.45L44.9069 319.949C45.8201 320.214 46.7764 320.296 47.7214 320.192C48.6664 320.087 49.5815 319.797 50.4145 319.339C51.2474 318.88 51.9819 318.262 52.576 317.52C53.1702 316.777 53.6122 315.925 53.8771 315.012C54.1419 314.099 54.2243 313.143 54.1195 312.198C54.0147 311.253 53.7248 310.338 53.2664 309.505C52.8079 308.672 52.1899 307.937 51.4476 307.343C50.7053 306.749 49.8533 306.307 48.9401 306.042L50.2454 301.541Z"/>
</mask>
<path d="M50.2454 301.541C51.7496 301.978 53.1532 302.706 54.3759 303.685C55.5987 304.663 56.6167 305.873 57.3719 307.245C58.127 308.617 58.6045 310.125 58.7771 311.681C58.9497 313.238 58.8141 314.813 58.3778 316.318C57.9416 317.822 57.2133 319.225 56.2347 320.448C55.256 321.671 54.0461 322.689 52.674 323.444C51.3019 324.199 49.7945 324.677 48.2379 324.849C46.6812 325.022 45.1059 324.886 43.6017 324.45L44.9069 319.949C45.8201 320.214 46.7764 320.296 47.7214 320.192C48.6664 320.087 49.5815 319.797 50.4145 319.339C51.2474 318.88 51.9819 318.262 52.576 317.52C53.1702 316.777 53.6122 315.925 53.8771 315.012C54.1419 314.099 54.2243 313.143 54.1195 312.198C54.0147 311.253 53.7248 310.338 53.2664 309.505C52.8079 308.672 52.1899 307.937 51.4476 307.343C50.7053 306.749 49.8533 306.307 48.9401 306.042L50.2454 301.541Z" stroke="#1AAB9B" stroke-width="41.6894" mask="url(#path-12-inside-12_1244_9189)"/>
<mask id="path-13-inside-13_1244_9189" fill="white">
<path d="M19.178 408.663C20.6822 409.099 22.0858 409.827 23.3085 410.806C24.5313 411.785 25.5493 412.994 26.3045 414.367C27.0596 415.739 27.5372 417.246 27.7098 418.803C27.8824 420.359 27.7467 421.935 27.3104 423.439C26.8742 424.943 26.146 426.347 25.1673 427.569C24.1886 428.792 22.9787 429.81 21.6066 430.565C20.2345 431.321 18.7271 431.798 17.1705 431.971C15.6139 432.143 14.0385 432.008 12.5343 431.571L13.8395 427.071C14.7527 427.335 15.7091 427.418 16.6541 427.313C17.599 427.208 18.5141 426.918 19.3471 426.46C20.18 426.001 20.9145 425.383 21.5087 424.641C22.1028 423.899 22.5449 423.047 22.8097 422.134C23.0745 421.22 23.1569 420.264 23.0521 419.319C22.9473 418.374 22.6574 417.459 22.199 416.626C21.7406 415.793 21.1226 415.059 20.3803 414.465C19.638 413.87 18.7859 413.428 17.8728 413.163L19.178 408.663Z"/>
</mask>
<path d="M19.178 408.663C20.6822 409.099 22.0858 409.827 23.3085 410.806C24.5313 411.785 25.5493 412.994 26.3045 414.367C27.0596 415.739 27.5372 417.246 27.7098 418.803C27.8824 420.359 27.7467 421.935 27.3104 423.439C26.8742 424.943 26.146 426.347 25.1673 427.569C24.1886 428.792 22.9787 429.81 21.6066 430.565C20.2345 431.321 18.7271 431.798 17.1705 431.971C15.6139 432.143 14.0385 432.008 12.5343 431.571L13.8395 427.071C14.7527 427.335 15.7091 427.418 16.6541 427.313C17.599 427.208 18.5141 426.918 19.3471 426.46C20.18 426.001 20.9145 425.383 21.5087 424.641C22.1028 423.899 22.5449 423.047 22.8097 422.134C23.0745 421.22 23.1569 420.264 23.0521 419.319C22.9473 418.374 22.6574 417.459 22.199 416.626C21.7406 415.793 21.1226 415.059 20.3803 414.465C19.638 413.87 18.7859 413.428 17.8728 413.163L19.178 408.663Z" stroke="#1AAB9B" stroke-width="41.6894" mask="url(#path-13-inside-13_1244_9189)"/>
<mask id="path-14-inside-14_1244_9189" fill="white">
<path d="M81.3128 194.42C82.817 194.856 84.2205 195.584 85.4433 196.563C86.6661 197.541 87.6841 198.751 88.4393 200.123C89.1944 201.495 89.6719 203.003 89.8445 204.56C90.0171 206.116 89.8814 207.692 89.4452 209.196C89.009 210.7 88.2807 212.103 87.3021 213.326C86.3234 214.549 85.1135 215.567 83.7414 216.322C82.3693 217.077 80.8619 217.555 79.3053 217.727C77.7486 217.9 76.1732 217.764 74.669 217.328L75.9743 212.827C76.8875 213.092 77.8438 213.175 78.7888 213.07C79.7338 212.965 80.6489 212.675 81.4819 212.217C82.3148 211.758 83.0493 211.14 83.6434 210.398C84.2375 209.656 84.6796 208.804 84.9445 207.89C85.2093 206.977 85.2916 206.021 85.1869 205.076C85.0821 204.131 84.7922 203.216 84.3338 202.383C83.8753 201.55 83.2573 200.815 82.515 200.221C81.7727 199.627 80.9207 199.185 80.0075 198.92L81.3128 194.42Z"/>
</mask>
<path d="M81.3128 194.42C82.817 194.856 84.2205 195.584 85.4433 196.563C86.6661 197.541 87.6841 198.751 88.4393 200.123C89.1944 201.495 89.6719 203.003 89.8445 204.56C90.0171 206.116 89.8814 207.692 89.4452 209.196C89.009 210.7 88.2807 212.103 87.3021 213.326C86.3234 214.549 85.1135 215.567 83.7414 216.322C82.3693 217.077 80.8619 217.555 79.3053 217.727C77.7486 217.9 76.1732 217.764 74.669 217.328L75.9743 212.827C76.8875 213.092 77.8438 213.175 78.7888 213.07C79.7338 212.965 80.6489 212.675 81.4819 212.217C82.3148 211.758 83.0493 211.14 83.6434 210.398C84.2375 209.656 84.6796 208.804 84.9445 207.89C85.2093 206.977 85.2916 206.021 85.1869 205.076C85.0821 204.131 84.7922 203.216 84.3338 202.383C83.8753 201.55 83.2573 200.815 82.515 200.221C81.7727 199.627 80.9207 199.185 80.0075 198.92L81.3128 194.42Z" stroke="#1AAB9B" stroke-width="41.6894" mask="url(#path-14-inside-14_1244_9189)"/>
<mask id="path-15-inside-15_1244_9189" fill="white">
<path d="M26.9449 381.882C28.4491 382.319 29.8526 383.047 31.0754 384.026C32.2981 385.004 33.3162 386.214 34.0713 387.586C34.8265 388.958 35.304 390.466 35.4766 392.022C35.6492 393.579 35.5135 395.154 35.0773 396.659C34.641 398.163 33.9128 399.566 32.9341 400.789C31.9555 402.012 30.7456 403.03 29.3735 403.785C28.0014 404.54 26.494 405.018 24.9373 405.19C23.3807 405.363 21.8053 405.227 20.3011 404.791L21.6064 400.29C22.5195 400.555 23.4759 400.637 24.4209 400.533C25.3659 400.428 26.281 400.138 27.1139 399.68C27.9469 399.221 28.6814 398.603 29.2755 397.861C29.8696 397.119 30.3117 396.267 30.5765 395.353C30.8414 394.44 30.9237 393.484 30.8189 392.539C30.7142 391.594 30.4243 390.679 29.9658 389.846C29.5074 389.013 28.8894 388.278 28.1471 387.684C27.4048 387.09 26.5528 386.648 25.6396 386.383L26.9449 381.882Z"/>
</mask>
<path d="M26.9449 381.882C28.4491 382.319 29.8526 383.047 31.0754 384.026C32.2981 385.004 33.3162 386.214 34.0713 387.586C34.8265 388.958 35.304 390.466 35.4766 392.022C35.6492 393.579 35.5135 395.154 35.0773 396.659C34.641 398.163 33.9128 399.566 32.9341 400.789C31.9555 402.012 30.7456 403.03 29.3735 403.785C28.0014 404.54 26.494 405.018 24.9373 405.19C23.3807 405.363 21.8053 405.227 20.3011 404.791L21.6064 400.29C22.5195 400.555 23.4759 400.637 24.4209 400.533C25.3659 400.428 26.281 400.138 27.1139 399.68C27.9469 399.221 28.6814 398.603 29.2755 397.861C29.8696 397.119 30.3117 396.267 30.5765 395.353C30.8414 394.44 30.9237 393.484 30.8189 392.539C30.7142 391.594 30.4243 390.679 29.9658 389.846C29.5074 389.013 28.8894 388.278 28.1471 387.684C27.4048 387.09 26.5528 386.648 25.6396 386.383L26.9449 381.882Z" stroke="#1AAB9B" stroke-width="41.6894" mask="url(#path-15-inside-15_1244_9189)"/>
<mask id="path-16-inside-16_1244_9189" fill="white">
<path d="M58.0123 274.761C59.5165 275.197 60.92 275.925 62.1428 276.904C63.3655 277.882 64.3836 279.092 65.1387 280.464C65.8939 281.837 66.3714 283.344 66.544 284.901C66.7166 286.457 66.5809 288.033 66.1447 289.537C65.7084 291.041 64.9802 292.445 64.0015 293.667C63.0229 294.89 61.813 295.908 60.4409 296.663C59.0688 297.418 57.5614 297.896 56.0047 298.069C54.4481 298.241 52.8727 298.105 51.3685 297.669L52.6738 293.168C53.5869 293.433 54.5433 293.516 55.4883 293.411C56.4333 293.306 57.3484 293.016 58.1813 292.558C59.0143 292.099 59.7488 291.481 60.3429 290.739C60.937 289.997 61.3791 289.145 61.6439 288.232C61.9087 287.318 61.9911 286.362 61.8863 285.417C61.7816 284.472 61.4917 283.557 61.0332 282.724C60.5748 281.891 59.9568 281.157 59.2145 280.562C58.4722 279.968 57.6201 279.526 56.707 279.261L58.0123 274.761Z"/>
</mask>
<path d="M58.0123 274.761C59.5165 275.197 60.92 275.925 62.1428 276.904C63.3655 277.882 64.3836 279.092 65.1387 280.464C65.8939 281.837 66.3714 283.344 66.544 284.901C66.7166 286.457 66.5809 288.033 66.1447 289.537C65.7084 291.041 64.9802 292.445 64.0015 293.667C63.0229 294.89 61.813 295.908 60.4409 296.663C59.0688 297.418 57.5614 297.896 56.0047 298.069C54.4481 298.241 52.8727 298.105 51.3685 297.669L52.6738 293.168C53.5869 293.433 54.5433 293.516 55.4883 293.411C56.4333 293.306 57.3484 293.016 58.1813 292.558C59.0143 292.099 59.7488 291.481 60.3429 290.739C60.937 289.997 61.3791 289.145 61.6439 288.232C61.9087 287.318 61.9911 286.362 61.8863 285.417C61.7816 284.472 61.4917 283.557 61.0332 282.724C60.5748 281.891 59.9568 281.157 59.2145 280.562C58.4722 279.968 57.6201 279.526 56.707 279.261L58.0123 274.761Z" stroke="#1AAB9B" stroke-width="41.6894" mask="url(#path-16-inside-16_1244_9189)"/>
<mask id="path-17-inside-17_1244_9189" fill="white">
<path d="M42.4786 328.322C43.9828 328.758 45.3863 329.486 46.6091 330.465C47.8318 331.443 48.8499 332.653 49.605 334.025C50.3602 335.398 50.8377 336.905 51.0103 338.462C51.1829 340.018 51.0472 341.594 50.611 343.098C50.1747 344.602 49.4465 346.006 48.4678 347.228C47.4892 348.451 46.2793 349.469 44.9072 350.224C43.5351 350.979 42.0277 351.457 40.471 351.63C38.9144 351.802 37.339 351.666 35.8348 351.23L37.1401 346.729C38.0532 346.994 39.0096 347.077 39.9546 346.972C40.8996 346.867 41.8147 346.577 42.6476 346.119C43.4806 345.66 44.2151 345.042 44.8092 344.3C45.4033 343.558 45.8454 342.706 46.1102 341.793C46.375 340.879 46.4574 339.923 46.3526 338.978C46.2479 338.033 45.958 337.118 45.4995 336.285C45.0411 335.452 44.4231 334.718 43.6808 334.123C42.9385 333.529 42.0865 333.087 41.1733 332.822L42.4786 328.322Z"/>
</mask>
<path d="M42.4786 328.322C43.9828 328.758 45.3863 329.486 46.6091 330.465C47.8318 331.443 48.8499 332.653 49.605 334.025C50.3602 335.398 50.8377 336.905 51.0103 338.462C51.1829 340.018 51.0472 341.594 50.611 343.098C50.1747 344.602 49.4465 346.006 48.4678 347.228C47.4892 348.451 46.2793 349.469 44.9072 350.224C43.5351 350.979 42.0277 351.457 40.471 351.63C38.9144 351.802 37.339 351.666 35.8348 351.23L37.1401 346.729C38.0532 346.994 39.0096 347.077 39.9546 346.972C40.8996 346.867 41.8147 346.577 42.6476 346.119C43.4806 345.66 44.2151 345.042 44.8092 344.3C45.4033 343.558 45.8454 342.706 46.1102 341.793C46.375 340.879 46.4574 339.923 46.3526 338.978C46.2479 338.033 45.958 337.118 45.4995 336.285C45.0411 335.452 44.4231 334.718 43.6808 334.123C42.9385 333.529 42.0865 333.087 41.1733 332.822L42.4786 328.322Z" stroke="#1AAB9B" stroke-width="41.6894" mask="url(#path-17-inside-17_1244_9189)"/>
<mask id="path-18-inside-18_1244_9189" fill="white">
<path d="M73.546 221.2C75.0502 221.636 76.4537 222.364 77.6765 223.343C78.8992 224.322 79.9172 225.532 80.6724 226.904C81.4276 228.276 81.9051 229.783 82.0777 231.34C82.2503 232.897 82.1146 234.472 81.6784 235.976C81.2421 237.48 80.5139 238.884 79.5352 240.107C78.5566 241.329 77.3466 242.347 75.9746 243.103C74.6025 243.858 73.0951 244.335 71.5384 244.508C69.9818 244.68 68.4064 244.545 66.9022 244.109L68.2075 239.608C69.1206 239.873 70.077 239.955 71.022 239.85C71.967 239.745 72.8821 239.456 73.715 238.997C74.548 238.539 75.2825 237.921 75.8766 237.178C76.4707 236.436 76.9128 235.584 77.1776 234.671C77.4424 233.758 77.5248 232.801 77.42 231.856C77.3152 230.911 77.0254 229.996 76.5669 229.163C76.1085 228.33 75.4905 227.596 74.7482 227.002C74.0059 226.408 73.1538 225.966 72.2407 225.701L73.546 221.2Z"/>
</mask>
<path d="M73.546 221.2C75.0502 221.636 76.4537 222.364 77.6765 223.343C78.8992 224.322 79.9172 225.532 80.6724 226.904C81.4276 228.276 81.9051 229.783 82.0777 231.34C82.2503 232.897 82.1146 234.472 81.6784 235.976C81.2421 237.48 80.5139 238.884 79.5352 240.107C78.5566 241.329 77.3466 242.347 75.9746 243.103C74.6025 243.858 73.0951 244.335 71.5384 244.508C69.9818 244.68 68.4064 244.545 66.9022 244.109L68.2075 239.608C69.1206 239.873 70.077 239.955 71.022 239.85C71.967 239.745 72.8821 239.456 73.715 238.997C74.548 238.539 75.2825 237.921 75.8766 237.178C76.4707 236.436 76.9128 235.584 77.1776 234.671C77.4424 233.758 77.5248 232.801 77.42 231.856C77.3152 230.911 77.0254 229.996 76.5669 229.163C76.1085 228.33 75.4905 227.596 74.7482 227.002C74.0059 226.408 73.1538 225.966 72.2407 225.701L73.546 221.2Z" stroke="#1AAB9B" stroke-width="41.6894" mask="url(#path-18-inside-18_1244_9189)"/>
<mask id="path-19-inside-19_1244_9189" fill="white">
<path d="M127.946 50.2579C126.459 49.7647 124.89 49.569 123.328 49.6822C121.766 49.7953 120.241 50.215 118.841 50.9173C117.442 51.6196 116.194 52.5908 115.169 53.7754C114.145 54.9599 113.363 56.3347 112.87 57.8212C112.377 59.3076 112.181 60.8767 112.294 62.4388C112.407 64.0009 112.827 65.5254 113.529 66.9253C114.232 68.3252 115.203 69.573 116.388 70.5976C117.572 71.6221 118.947 72.4033 120.433 72.8966L121.909 68.4489C121.007 68.1494 120.172 67.6752 119.453 67.0532C118.734 66.4312 118.144 65.6737 117.718 64.8239C117.292 63.974 117.037 63.0486 116.968 62.1003C116.9 61.152 117.018 60.1994 117.318 59.2971C117.617 58.3947 118.092 57.5601 118.714 56.841C119.335 56.1219 120.093 55.5323 120.943 55.106C121.793 54.6796 122.718 54.4248 123.666 54.3561C124.615 54.2875 125.567 54.4062 126.47 54.7057L127.946 50.2579Z"/>
</mask>
<path d="M127.946 50.2579C126.459 49.7647 124.89 49.569 123.328 49.6822C121.766 49.7953 120.241 50.215 118.841 50.9173C117.442 51.6196 116.194 52.5908 115.169 53.7754C114.145 54.9599 113.363 56.3347 112.87 57.8212C112.377 59.3076 112.181 60.8767 112.294 62.4388C112.407 64.0009 112.827 65.5254 113.529 66.9253C114.232 68.3252 115.203 69.573 116.388 70.5976C117.572 71.6221 118.947 72.4033 120.433 72.8966L121.909 68.4489C121.007 68.1494 120.172 67.6752 119.453 67.0532C118.734 66.4312 118.144 65.6737 117.718 64.8239C117.292 63.974 117.037 63.0486 116.968 62.1003C116.9 61.152 117.018 60.1994 117.318 59.2971C117.617 58.3947 118.092 57.5601 118.714 56.841C119.335 56.1219 120.093 55.5323 120.943 55.106C121.793 54.6796 122.718 54.4248 123.666 54.3561C124.615 54.2875 125.567 54.4062 126.47 54.7057L127.946 50.2579Z" stroke="#1AAB9B" stroke-width="41.6894" mask="url(#path-19-inside-19_1244_9189)"/>
<mask id="path-20-inside-20_1244_9189" fill="white">
<path d="M110.382 103.188C108.895 102.694 107.326 102.499 105.764 102.612C104.202 102.725 102.677 103.145 101.277 103.847C99.8776 104.549 98.6297 105.52 97.6052 106.705C96.5806 107.89 95.7994 109.264 95.3061 110.751C94.8129 112.237 94.6172 113.806 94.7304 115.368C94.8435 116.931 95.2632 118.455 95.9655 119.855C96.6678 121.255 97.639 122.503 98.8236 123.527C100.008 124.552 101.383 125.333 102.869 125.826L104.345 121.379C103.443 121.079 102.608 120.605 101.889 119.983C101.17 119.361 100.581 118.603 100.154 117.754C99.7278 116.904 99.473 115.978 99.4043 115.03C99.3357 114.082 99.4544 113.129 99.7539 112.227C100.053 111.324 100.528 110.49 101.15 109.771C101.772 109.052 102.529 108.462 103.379 108.036C104.229 107.609 105.154 107.355 106.102 107.286C107.051 107.217 108.003 107.336 108.906 107.635L110.382 103.188Z"/>
</mask>
<path d="M110.382 103.188C108.895 102.694 107.326 102.499 105.764 102.612C104.202 102.725 102.677 103.145 101.277 103.847C99.8776 104.549 98.6297 105.52 97.6052 106.705C96.5806 107.89 95.7994 109.264 95.3061 110.751C94.8129 112.237 94.6172 113.806 94.7304 115.368C94.8435 116.931 95.2632 118.455 95.9655 119.855C96.6678 121.255 97.639 122.503 98.8236 123.527C100.008 124.552 101.383 125.333 102.869 125.826L104.345 121.379C103.443 121.079 102.608 120.605 101.889 119.983C101.17 119.361 100.581 118.603 100.154 117.754C99.7278 116.904 99.473 115.978 99.4043 115.03C99.3357 114.082 99.4544 113.129 99.7539 112.227C100.053 111.324 100.528 110.49 101.15 109.771C101.772 109.052 102.529 108.462 103.379 108.036C104.229 107.609 105.154 107.355 106.102 107.286C107.051 107.217 108.003 107.336 108.906 107.635L110.382 103.188Z" stroke="#1AAB9B" stroke-width="41.6894" mask="url(#path-20-inside-20_1244_9189)"/>
<mask id="path-21-inside-21_1244_9189" fill="white">
<path d="M119.164 76.7229C117.677 76.2297 116.108 76.034 114.546 76.1471C112.984 76.2603 111.459 76.68 110.059 77.3823C108.66 78.0846 107.412 79.0558 106.387 80.2403C105.363 81.4249 104.581 82.7996 104.088 84.2861C103.595 85.7726 103.399 87.3417 103.512 88.9038C103.625 90.4658 104.045 91.9904 104.748 93.3902C105.45 94.7901 106.421 96.038 107.606 97.0625C108.79 98.0871 110.165 98.8683 111.651 99.3616L113.127 94.9138C112.225 94.6144 111.39 94.1401 110.671 93.5182C109.952 92.8962 109.362 92.1387 108.936 91.2888C108.51 90.439 108.255 89.5135 108.186 88.5652C108.118 87.6169 108.236 86.6644 108.536 85.762C108.835 84.8596 109.31 84.0251 109.932 83.3059C110.553 82.5868 111.311 81.9973 112.161 81.5709C113.011 81.1446 113.936 80.8898 114.884 80.8211C115.833 80.7524 116.785 80.8712 117.688 81.1706L119.164 76.7229Z"/>
</mask>
<path d="M119.164 76.7229C117.677 76.2297 116.108 76.034 114.546 76.1471C112.984 76.2603 111.459 76.68 110.059 77.3823C108.66 78.0846 107.412 79.0558 106.387 80.2403C105.363 81.4249 104.581 82.7996 104.088 84.2861C103.595 85.7726 103.399 87.3417 103.512 88.9038C103.625 90.4658 104.045 91.9904 104.748 93.3902C105.45 94.7901 106.421 96.038 107.606 97.0625C108.79 98.0871 110.165 98.8683 111.651 99.3616L113.127 94.9138C112.225 94.6144 111.39 94.1401 110.671 93.5182C109.952 92.8962 109.362 92.1387 108.936 91.2888C108.51 90.439 108.255 89.5135 108.186 88.5652C108.118 87.6169 108.236 86.6644 108.536 85.762C108.835 84.8596 109.31 84.0251 109.932 83.3059C110.553 82.5868 111.311 81.9973 112.161 81.5709C113.011 81.1446 113.936 80.8898 114.884 80.8211C115.833 80.7524 116.785 80.8712 117.688 81.1706L119.164 76.7229Z" stroke="#1AAB9B" stroke-width="41.6894" mask="url(#path-21-inside-21_1244_9189)"/>
<mask id="path-22-inside-22_1244_9189" fill="white">
<path d="M136.728 23.7931C135.241 23.2998 133.672 23.1042 132.11 23.2173C130.548 23.3305 129.024 23.7502 127.624 24.4525C126.224 25.1548 124.976 26.126 123.951 27.3105C122.927 28.4951 122.146 29.8698 121.652 31.3563C121.159 32.8428 120.963 34.4119 121.077 35.9739C121.19 37.536 121.609 39.0605 122.312 40.4604C123.014 41.8603 123.985 43.1082 125.17 44.1327C126.354 45.1573 127.729 45.9385 129.216 46.4318L130.691 41.984C129.789 41.6846 128.954 41.2103 128.235 40.5884C127.516 39.9664 126.927 39.2089 126.5 38.359C126.074 37.5092 125.819 36.5837 125.751 35.6354C125.682 34.6871 125.801 33.7346 126.1 32.8322C126.4 31.9298 126.874 31.0952 127.496 30.3761C128.118 29.657 128.875 29.0675 129.725 28.6411C130.575 28.2148 131.5 27.96 132.449 27.8913C133.397 27.8226 134.349 27.9414 135.252 28.2408L136.728 23.7931Z"/>
</mask>
<path d="M136.728 23.7931C135.241 23.2998 133.672 23.1042 132.11 23.2173C130.548 23.3305 129.024 23.7502 127.624 24.4525C126.224 25.1548 124.976 26.126 123.951 27.3105C122.927 28.4951 122.146 29.8698 121.652 31.3563C121.159 32.8428 120.963 34.4119 121.077 35.9739C121.19 37.536 121.609 39.0605 122.312 40.4604C123.014 41.8603 123.985 43.1082 125.17 44.1327C126.354 45.1573 127.729 45.9385 129.216 46.4318L130.691 41.984C129.789 41.6846 128.954 41.2103 128.235 40.5884C127.516 39.9664 126.927 39.2089 126.5 38.359C126.074 37.5092 125.819 36.5837 125.751 35.6354C125.682 34.6871 125.801 33.7346 126.1 32.8322C126.4 31.9298 126.874 31.0952 127.496 30.3761C128.118 29.657 128.875 29.0675 129.725 28.6411C130.575 28.2148 131.5 27.96 132.449 27.8913C133.397 27.8226 134.349 27.9414 135.252 28.2408L136.728 23.7931Z" stroke="#1AAB9B" stroke-width="41.6894" mask="url(#path-22-inside-22_1244_9189)"/>
<mask id="path-23-inside-23_1244_9189" fill="white">
<path d="M125.203 58.5333C126.69 59.0266 128.065 59.8078 129.249 60.8324C130.434 61.8569 131.405 63.1048 132.107 64.5046C132.81 65.9045 133.229 67.429 133.342 68.9911C133.455 70.5532 133.26 72.1223 132.767 73.6088C132.273 75.0952 131.492 76.47 130.468 77.6546C129.443 78.8391 128.195 79.8103 126.795 80.5126C125.395 81.2149 123.871 81.6346 122.309 81.7477C120.747 81.8609 119.178 81.6652 117.691 81.172L119.167 76.7242C120.069 77.0237 121.022 77.1425 121.97 77.0738C122.919 77.0051 123.844 76.7503 124.694 76.324C125.544 75.8976 126.301 75.308 126.923 74.5889C127.545 73.8698 128.019 73.0352 128.319 72.1329C128.618 71.2305 128.737 70.2779 128.668 69.3296C128.6 68.3813 128.345 67.4559 127.919 66.606C127.492 65.7562 126.903 64.9987 126.184 64.3767C125.464 63.7547 124.63 63.2805 123.727 62.981L125.203 58.5333Z"/>
</mask>
<path d="M125.203 58.5333C126.69 59.0266 128.065 59.8078 129.249 60.8324C130.434 61.8569 131.405 63.1048 132.107 64.5046C132.81 65.9045 133.229 67.429 133.342 68.9911C133.455 70.5532 133.26 72.1223 132.767 73.6088C132.273 75.0952 131.492 76.47 130.468 77.6546C129.443 78.8391 128.195 79.8103 126.795 80.5126C125.395 81.2149 123.871 81.6346 122.309 81.7477C120.747 81.8609 119.178 81.6652 117.691 81.172L119.167 76.7242C120.069 77.0237 121.022 77.1425 121.97 77.0738C122.919 77.0051 123.844 76.7503 124.694 76.324C125.544 75.8976 126.301 75.308 126.923 74.5889C127.545 73.8698 128.019 73.0352 128.319 72.1329C128.618 71.2305 128.737 70.2779 128.668 69.3296C128.6 68.3813 128.345 67.4559 127.919 66.606C127.492 65.7562 126.903 64.9987 126.184 64.3767C125.464 63.7547 124.63 63.2805 123.727 62.981L125.203 58.5333Z" stroke="#1AAB9B" stroke-width="41.6894" mask="url(#path-23-inside-23_1244_9189)"/>
<mask id="path-24-inside-24_1244_9189" fill="white">
<path d="M142.768 5.60363C144.254 6.09689 145.629 6.8781 146.813 7.90266C147.998 8.92722 148.969 10.1751 149.671 11.575C150.374 12.9748 150.793 14.4993 150.907 16.0614C151.02 17.6235 150.824 19.1926 150.331 20.6791C149.838 22.1655 149.056 23.5403 148.032 24.7249C147.007 25.9094 145.759 26.8806 144.359 27.5829C142.96 28.2852 141.435 28.7049 139.873 28.8181C138.311 28.9312 136.742 28.7355 135.255 28.2423L136.731 23.7946C137.634 24.094 138.586 24.2128 139.534 24.1441C140.483 24.0754 141.408 23.8206 142.258 23.3943C143.108 22.9679 143.865 22.3784 144.487 21.6592C145.109 20.9401 145.584 20.1056 145.883 19.2032C146.183 18.3008 146.301 17.3482 146.233 16.4C146.164 15.4517 145.909 14.5262 145.483 13.6764C145.056 12.8265 144.467 12.069 143.748 11.447C143.029 10.825 142.194 10.3508 141.292 10.0514L142.768 5.60363Z"/>
</mask>
<path d="M142.768 5.60363C144.254 6.09689 145.629 6.8781 146.813 7.90266C147.998 8.92722 148.969 10.1751 149.671 11.575C150.374 12.9748 150.793 14.4993 150.907 16.0614C151.02 17.6235 150.824 19.1926 150.331 20.6791C149.838 22.1655 149.056 23.5403 148.032 24.7249C147.007 25.9094 145.759 26.8806 144.359 27.5829C142.96 28.2852 141.435 28.7049 139.873 28.8181C138.311 28.9312 136.742 28.7355 135.255 28.2423L136.731 23.7946C137.634 24.094 138.586 24.2128 139.534 24.1441C140.483 24.0754 141.408 23.8206 142.258 23.3943C143.108 22.9679 143.865 22.3784 144.487 21.6592C145.109 20.9401 145.584 20.1056 145.883 19.2032C146.183 18.3008 146.301 17.3482 146.233 16.4C146.164 15.4517 145.909 14.5262 145.483 13.6764C145.056 12.8265 144.467 12.069 143.748 11.447C143.029 10.825 142.194 10.3508 141.292 10.0514L142.768 5.60363Z" stroke="#1AAB9B" stroke-width="41.6894" mask="url(#path-24-inside-24_1244_9189)"/>
<mask id="path-25-inside-25_1244_9189" fill="white">
<path d="M107.639 111.463C109.126 111.956 110.5 112.737 111.685 113.762C112.87 114.787 113.841 116.034 114.543 117.434C115.245 118.834 115.665 120.359 115.778 121.921C115.891 123.483 115.696 125.052 115.202 126.538C114.709 128.025 113.928 129.4 112.903 130.584C111.879 131.769 110.631 132.74 109.231 133.442C107.831 134.145 106.307 134.564 104.745 134.677C103.182 134.791 101.613 134.595 100.127 134.102L101.603 129.654C102.505 129.953 103.458 130.072 104.406 130.003C105.354 129.935 106.28 129.68 107.13 129.254C107.979 128.827 108.737 128.238 109.359 127.519C109.981 126.8 110.455 125.965 110.755 125.063C111.054 124.16 111.173 123.208 111.104 122.259C111.036 121.311 110.781 120.386 110.354 119.536C109.928 118.686 109.338 117.928 108.619 117.306C107.9 116.684 107.066 116.21 106.163 115.911L107.639 111.463Z"/>
</mask>
<path d="M107.639 111.463C109.126 111.956 110.5 112.737 111.685 113.762C112.87 114.787 113.841 116.034 114.543 117.434C115.245 118.834 115.665 120.359 115.778 121.921C115.891 123.483 115.696 125.052 115.202 126.538C114.709 128.025 113.928 129.4 112.903 130.584C111.879 131.769 110.631 132.74 109.231 133.442C107.831 134.145 106.307 134.564 104.745 134.677C103.182 134.791 101.613 134.595 100.127 134.102L101.603 129.654C102.505 129.953 103.458 130.072 104.406 130.003C105.354 129.935 106.28 129.68 107.13 129.254C107.979 128.827 108.737 128.238 109.359 127.519C109.981 126.8 110.455 125.965 110.755 125.063C111.054 124.16 111.173 123.208 111.104 122.259C111.036 121.311 110.781 120.386 110.354 119.536C109.928 118.686 109.338 117.928 108.619 117.306C107.9 116.684 107.066 116.21 106.163 115.911L107.639 111.463Z" stroke="#1AAB9B" stroke-width="41.6894" mask="url(#path-25-inside-25_1244_9189)"/>
<mask id="path-26-inside-26_1244_9189" fill="white">
<path d="M116.421 84.9982C117.908 85.4914 119.283 86.2726 120.467 87.2972C121.652 88.3218 122.623 89.5696 123.325 90.9695C124.028 92.3694 124.447 93.8939 124.56 95.456C124.674 97.018 124.478 98.5871 123.985 100.074C123.491 101.56 122.71 102.935 121.686 104.119C120.661 105.304 119.413 106.275 118.013 106.977C116.613 107.68 115.089 108.099 113.527 108.213C111.965 108.326 110.396 108.13 108.909 107.637L110.385 103.189C111.287 103.489 112.24 103.607 113.188 103.539C114.137 103.47 115.062 103.215 115.912 102.789C116.762 102.362 117.519 101.773 118.141 101.054C118.763 100.335 119.237 99.5001 119.537 98.5977C119.836 97.6953 119.955 96.7428 119.886 95.7945C119.818 94.8462 119.563 93.9207 119.137 93.0709C118.71 92.2211 118.121 91.4635 117.402 90.8416C116.682 90.2196 115.848 89.7453 114.945 89.4459L116.421 84.9982Z"/>
</mask>
<path d="M116.421 84.9982C117.908 85.4914 119.283 86.2726 120.467 87.2972C121.652 88.3218 122.623 89.5696 123.325 90.9695C124.028 92.3694 124.447 93.8939 124.56 95.456C124.674 97.018 124.478 98.5871 123.985 100.074C123.491 101.56 122.71 102.935 121.686 104.119C120.661 105.304 119.413 106.275 118.013 106.977C116.613 107.68 115.089 108.099 113.527 108.213C111.965 108.326 110.396 108.13 108.909 107.637L110.385 103.189C111.287 103.489 112.24 103.607 113.188 103.539C114.137 103.47 115.062 103.215 115.912 102.789C116.762 102.362 117.519 101.773 118.141 101.054C118.763 100.335 119.237 99.5001 119.537 98.5977C119.836 97.6953 119.955 96.7428 119.886 95.7945C119.818 94.8462 119.563 93.9207 119.137 93.0709C118.71 92.2211 118.121 91.4635 117.402 90.8416C116.682 90.2196 115.848 89.7453 114.945 89.4459L116.421 84.9982Z" stroke="#1AAB9B" stroke-width="41.6894" mask="url(#path-26-inside-26_1244_9189)"/>
<mask id="path-27-inside-27_1244_9189" fill="white">
<path d="M133.986 32.0686C135.472 32.5619 136.847 33.3431 138.031 34.3676C139.216 35.3922 140.187 36.64 140.889 38.0399C141.592 39.4398 142.011 40.9643 142.125 42.5264C142.238 44.0885 142.042 45.6576 141.549 47.144C141.056 48.6305 140.274 50.0053 139.25 51.1898C138.225 52.3744 136.977 53.3456 135.577 54.0479C134.178 54.7502 132.653 55.1699 131.091 55.283C129.529 55.3962 127.96 55.2005 126.473 54.7072L127.949 50.2595C128.852 50.559 129.804 50.6777 130.752 50.6091C131.701 50.5404 132.626 50.2856 133.476 49.8592C134.326 49.4329 135.083 48.8433 135.705 48.1242C136.327 47.4051 136.802 46.5705 137.101 45.6681C137.401 44.7657 137.519 43.8132 137.451 42.8649C137.382 41.9166 137.127 40.9911 136.701 40.1413C136.274 39.2915 135.685 38.534 134.966 37.912C134.247 37.29 133.412 36.8158 132.51 36.5163L133.986 32.0686Z"/>
</mask>
<path d="M133.986 32.0686C135.472 32.5619 136.847 33.3431 138.031 34.3676C139.216 35.3922 140.187 36.64 140.889 38.0399C141.592 39.4398 142.011 40.9643 142.125 42.5264C142.238 44.0885 142.042 45.6576 141.549 47.144C141.056 48.6305 140.274 50.0053 139.25 51.1898C138.225 52.3744 136.977 53.3456 135.577 54.0479C134.178 54.7502 132.653 55.1699 131.091 55.283C129.529 55.3962 127.96 55.2005 126.473 54.7072L127.949 50.2595C128.852 50.559 129.804 50.6777 130.752 50.6091C131.701 50.5404 132.626 50.2856 133.476 49.8592C134.326 49.4329 135.083 48.8433 135.705 48.1242C136.327 47.4051 136.802 46.5705 137.101 45.6681C137.401 44.7657 137.519 43.8132 137.451 42.8649C137.382 41.9166 137.127 40.9911 136.701 40.1413C136.274 39.2915 135.685 38.534 134.966 37.912C134.247 37.29 133.412 36.8158 132.51 36.5163L133.986 32.0686Z" stroke="#1AAB9B" stroke-width="41.6894" mask="url(#path-27-inside-27_1244_9189)"/>
<path d="M89.3984 179.247L103.397 184.775L104.281 187.455L106.012 192.701L108.041 187.563L113.368 174.072C115.035 169.849 112.964 165.073 108.74 163.405L108.735 163.403L95.5816 158.246L95.5764 158.244C92.4468 157.027 88.9422 158.113 87.6988 161.255L84.7738 168.572L84.7738 168.572L84.7707 168.58C83.1029 172.803 85.1748 177.579 89.3984 179.247Z" stroke="#1AAB9B" stroke-width="4"/>
<path d="M75.1547 160.95L84.2396 164.537L86.0902 165.268L86.8305 163.421L87.8744 160.817L87.8783 160.807L87.8821 160.798C88.4656 159.297 89.3161 158.252 90.2845 157.722C91.1876 157.228 92.4589 157.033 94.2836 157.743L94.2885 157.745L98.5167 159.376L100.368 160.09L101.097 158.244L102.588 154.467C103.751 151.522 102.307 148.192 99.3619 147.029L85.8757 141.703C81.652 140.036 76.8761 142.108 75.2083 146.331L69.887 159.807L67.8488 164.969L72.7112 162.294L75.1547 160.95Z" stroke="#1AAB9B" stroke-width="4"/>
</svg>
