<svg width="105" height="343" viewBox="0 0 105 343" fill="none" xmlns="http://www.w3.org/2000/svg">
<mask id="path-1-inside-1_1244_9190" fill="white">
<path d="M46.3561 166.787C44.8519 166.351 43.2765 166.216 41.7199 166.388C40.1633 166.561 38.6559 167.038 37.2838 167.793C35.9117 168.549 34.7018 169.567 33.7231 170.789C32.7444 172.012 32.0162 173.416 31.58 174.92C31.1437 176.424 31.008 177.999 31.1806 179.556C31.3532 181.113 31.8308 182.62 32.5859 183.992C33.3411 185.364 34.3591 186.574 35.5819 187.553C36.8046 188.532 38.2082 189.26 39.7124 189.696L41.0176 185.195C40.1045 184.93 39.2524 184.488 38.5102 183.894C37.7679 183.3 37.1498 182.566 36.6914 181.733C36.233 180.9 35.9431 179.985 35.8383 179.04C35.7335 178.095 35.8159 177.138 36.0807 176.225C36.3456 175.312 36.7876 174.46 37.3818 173.718C37.9759 172.975 38.7104 172.357 39.5433 171.899C40.3763 171.44 41.2914 171.151 42.2364 171.046C43.1813 170.941 44.1377 171.023 45.0509 171.288L46.3561 166.787Z"/>
</mask>
<path d="M46.3561 166.787C44.8519 166.351 43.2765 166.216 41.7199 166.388C40.1633 166.561 38.6559 167.038 37.2838 167.793C35.9117 168.549 34.7018 169.567 33.7231 170.789C32.7444 172.012 32.0162 173.416 31.58 174.92C31.1437 176.424 31.008 177.999 31.1806 179.556C31.3532 181.113 31.8308 182.62 32.5859 183.992C33.3411 185.364 34.3591 186.574 35.5819 187.553C36.8046 188.532 38.2082 189.26 39.7124 189.696L41.0176 185.195C40.1045 184.93 39.2524 184.488 38.5102 183.894C37.7679 183.3 37.1498 182.566 36.6914 181.733C36.233 180.9 35.9431 179.985 35.8383 179.04C35.7335 178.095 35.8159 177.138 36.0807 176.225C36.3456 175.312 36.7876 174.46 37.3818 173.718C37.9759 172.975 38.7104 172.357 39.5433 171.899C40.3763 171.44 41.2914 171.151 42.2364 171.046C43.1813 170.941 44.1377 171.023 45.0509 171.288L46.3561 166.787Z" stroke="#1ACCA7" stroke-width="41.6894" mask="url(#path-1-inside-1_1244_9190)"/>
<mask id="path-2-inside-2_1244_9190" fill="white">
<path d="M77.4238 59.6656C75.9196 59.2294 74.3442 59.0937 72.7875 59.2663C71.2309 59.4389 69.7235 59.9164 68.3514 60.6716C66.9793 61.4268 65.7694 62.4448 64.7907 63.6675C63.8121 64.8903 63.0838 66.2938 62.6476 67.798C62.2114 69.3022 62.0757 70.8776 62.2483 72.4343C62.4209 73.9909 62.8984 75.4983 63.6536 76.8704C64.4087 78.2425 65.4267 79.4524 66.6495 80.4311C67.8723 81.4097 69.2758 82.138 70.78 82.5742L72.0853 78.0734C71.1721 77.8086 70.3201 77.3665 69.5778 76.7724C68.8355 76.1783 68.2175 75.4438 67.759 74.6108C67.3006 73.7779 67.0107 72.8628 66.9059 71.9178C66.8012 70.9728 66.8835 70.0165 67.1484 69.1033C67.4132 68.1902 67.8553 67.3381 68.4494 66.5958C69.0435 65.8535 69.778 65.2355 70.611 64.7771C71.4439 64.3186 72.359 64.0288 73.304 63.924C74.249 63.8192 75.2053 63.9016 76.1185 64.1664L77.4238 59.6656Z"/>
</mask>
<path d="M77.4238 59.6656C75.9196 59.2294 74.3442 59.0937 72.7875 59.2663C71.2309 59.4389 69.7235 59.9164 68.3514 60.6716C66.9793 61.4268 65.7694 62.4448 64.7907 63.6675C63.8121 64.8903 63.0838 66.2938 62.6476 67.798C62.2114 69.3022 62.0757 70.8776 62.2483 72.4343C62.4209 73.9909 62.8984 75.4983 63.6536 76.8704C64.4087 78.2425 65.4267 79.4524 66.6495 80.4311C67.8723 81.4097 69.2758 82.138 70.78 82.5742L72.0853 78.0734C71.1721 77.8086 70.3201 77.3665 69.5778 76.7724C68.8355 76.1783 68.2175 75.4438 67.759 74.6108C67.3006 73.7779 67.0107 72.8628 66.9059 71.9178C66.8012 70.9728 66.8835 70.0165 67.1484 69.1033C67.4132 68.1902 67.8553 67.3381 68.4494 66.5958C69.0435 65.8535 69.778 65.2355 70.611 64.7771C71.4439 64.3186 72.359 64.0288 73.304 63.924C74.249 63.8192 75.2053 63.9016 76.1185 64.1664L77.4238 59.6656Z" stroke="#1ACCA7" stroke-width="41.6894" mask="url(#path-2-inside-2_1244_9190)"/>
<mask id="path-3-inside-3_1244_9190" fill="white">
<path d="M61.8898 113.227C60.3856 112.79 58.8102 112.655 57.2536 112.827C55.697 113 54.1896 113.477 52.8175 114.233C51.4454 114.988 50.2355 116.006 49.2568 117.229C48.2781 118.451 47.5499 119.855 47.1137 121.359C46.6774 122.863 46.5417 124.439 46.7143 125.995C46.8869 127.552 47.3645 129.059 48.1196 130.431C48.8748 131.804 49.8928 133.013 51.1156 133.992C52.3383 134.971 53.7419 135.699 55.2461 136.135L56.5513 131.634C55.6382 131.37 54.7861 130.928 54.0438 130.333C53.3015 129.739 52.6835 129.005 52.2251 128.172C51.7667 127.339 51.4768 126.424 51.372 125.479C51.2672 124.534 51.3496 123.577 51.6144 122.664C51.8792 121.751 52.3213 120.899 52.9154 120.157C53.5096 119.415 54.2441 118.797 55.077 118.338C55.91 117.88 56.8251 117.59 57.7701 117.485C58.715 117.38 59.6714 117.463 60.5846 117.727L61.8898 113.227Z"/>
</mask>
<path d="M61.8898 113.227C60.3856 112.79 58.8102 112.655 57.2536 112.827C55.697 113 54.1896 113.477 52.8175 114.233C51.4454 114.988 50.2355 116.006 49.2568 117.229C48.2781 118.451 47.5499 119.855 47.1137 121.359C46.6774 122.863 46.5417 124.439 46.7143 125.995C46.8869 127.552 47.3645 129.059 48.1196 130.431C48.8748 131.804 49.8928 133.013 51.1156 133.992C52.3383 134.971 53.7419 135.699 55.2461 136.135L56.5513 131.634C55.6382 131.37 54.7861 130.928 54.0438 130.333C53.3015 129.739 52.6835 129.005 52.2251 128.172C51.7667 127.339 51.4768 126.424 51.372 125.479C51.2672 124.534 51.3496 123.577 51.6144 122.664C51.8792 121.751 52.3213 120.899 52.9154 120.157C53.5096 119.415 54.2441 118.797 55.077 118.338C55.91 117.88 56.8251 117.59 57.7701 117.485C58.715 117.38 59.6714 117.463 60.5846 117.727L61.8898 113.227Z" stroke="#1ACCA7" stroke-width="41.6894" mask="url(#path-3-inside-3_1244_9190)"/>
<mask id="path-4-inside-4_1244_9190" fill="white">
<path d="M30.8227 220.348C29.3185 219.912 27.7431 219.776 26.1865 219.949C24.6298 220.121 23.1224 220.599 21.7503 221.354C20.3782 222.109 19.1683 223.127 18.1897 224.35C17.211 225.573 16.4828 226.976 16.0465 228.48C15.6103 229.985 15.4746 231.56 15.6472 233.117C15.8198 234.673 16.2973 236.181 17.0525 237.553C17.8076 238.925 18.8257 240.135 20.0484 241.113C21.2712 242.092 22.6747 242.82 24.1789 243.257L25.4842 238.756C24.571 238.491 23.719 238.049 22.9767 237.455C22.2344 236.861 21.6164 236.126 21.158 235.293C20.6995 234.46 20.4096 233.545 20.3049 232.6C20.2001 231.655 20.2825 230.699 20.5473 229.786C20.8121 228.873 21.2542 228.02 21.8483 227.278C22.4424 226.536 23.1769 225.918 24.0099 225.459C24.8428 225.001 25.7579 224.711 26.7029 224.606C27.6479 224.502 28.6043 224.584 29.5174 224.849L30.8227 220.348Z"/>
</mask>
<path d="M30.8227 220.348C29.3185 219.912 27.7431 219.776 26.1865 219.949C24.6298 220.121 23.1224 220.599 21.7503 221.354C20.3782 222.109 19.1683 223.127 18.1897 224.35C17.211 225.573 16.4828 226.976 16.0465 228.48C15.6103 229.985 15.4746 231.56 15.6472 233.117C15.8198 234.673 16.2973 236.181 17.0525 237.553C17.8076 238.925 18.8257 240.135 20.0484 241.113C21.2712 242.092 22.6747 242.82 24.1789 243.257L25.4842 238.756C24.571 238.491 23.719 238.049 22.9767 237.455C22.2344 236.861 21.6164 236.126 21.158 235.293C20.6995 234.46 20.4096 233.545 20.3049 232.6C20.2001 231.655 20.2825 230.699 20.5473 229.786C20.8121 228.873 21.2542 228.02 21.8483 227.278C22.4424 226.536 23.1769 225.918 24.0099 225.459C24.8428 225.001 25.7579 224.711 26.7029 224.606C27.6479 224.502 28.6043 224.584 29.5174 224.849L30.8227 220.348Z" stroke="#1ACCA7" stroke-width="41.6894" mask="url(#path-4-inside-4_1244_9190)"/>
<mask id="path-5-inside-5_1244_9190" fill="white">
<path d="M23.0915 247.145C21.5873 246.709 20.0119 246.573 18.4553 246.746C16.8986 246.919 15.3912 247.396 14.0191 248.151C12.647 248.906 11.4371 249.925 10.4585 251.147C9.4798 252.37 8.75156 253.774 8.31532 255.278C7.87909 256.782 7.7434 258.357 7.916 259.914C8.0886 261.471 8.56612 262.978 9.32128 264.35C10.0764 265.722 11.0945 266.932 12.3172 267.911C13.54 268.889 14.9435 269.618 16.4477 270.054L17.753 265.553C16.8398 265.288 15.9878 264.846 15.2455 264.252C14.5032 263.658 13.8852 262.924 13.4268 262.091C12.9683 261.258 12.6784 260.343 12.5737 259.398C12.4689 258.453 12.5513 257.496 12.8161 256.583C13.0809 255.67 13.523 254.818 14.1171 254.076C14.7112 253.333 15.4457 252.715 16.2787 252.257C17.1116 251.798 18.0267 251.508 18.9717 251.404C19.9167 251.299 20.8731 251.381 21.7862 251.646L23.0915 247.145Z"/>
</mask>
<path d="M23.0915 247.145C21.5873 246.709 20.0119 246.573 18.4553 246.746C16.8986 246.919 15.3912 247.396 14.0191 248.151C12.647 248.906 11.4371 249.925 10.4585 251.147C9.4798 252.37 8.75156 253.774 8.31532 255.278C7.87909 256.782 7.7434 258.357 7.916 259.914C8.0886 261.471 8.56612 262.978 9.32128 264.35C10.0764 265.722 11.0945 266.932 12.3172 267.911C13.54 268.889 14.9435 269.618 16.4477 270.054L17.753 265.553C16.8398 265.288 15.9878 264.846 15.2455 264.252C14.5032 263.658 13.8852 262.924 13.4268 262.091C12.9683 261.258 12.6784 260.343 12.5737 259.398C12.4689 258.453 12.5513 257.496 12.8161 256.583C13.0809 255.67 13.523 254.818 14.1171 254.076C14.7112 253.333 15.4457 252.715 16.2787 252.257C17.1116 251.798 18.0267 251.508 18.9717 251.404C19.9167 251.299 20.8731 251.381 21.7862 251.646L23.0915 247.145Z" stroke="#1ACCA7" stroke-width="41.6894" mask="url(#path-5-inside-5_1244_9190)"/>
<mask id="path-6-inside-6_1244_9190" fill="white">
<path d="M92.9575 6.10484C91.4533 5.66861 89.8779 5.53292 88.3212 5.70552C86.7646 5.87812 85.2572 6.35564 83.8851 7.1108C82.513 7.86596 81.3031 8.88398 80.3244 10.1067C79.3458 11.3295 78.6175 12.733 78.1813 14.2372C77.7451 15.7414 77.6094 17.3168 77.782 18.8735C77.9546 20.4301 78.4321 21.9375 79.1872 23.3096C79.9424 24.6817 80.9604 25.8916 82.1832 26.8703C83.4059 27.8489 84.8095 28.5772 86.3137 29.0134L87.619 24.5127C86.7058 24.2478 85.8538 23.8057 85.1115 23.2116C84.3692 22.6175 83.7512 21.883 83.2927 21.0501C82.8343 20.2171 82.5444 19.302 82.4396 18.357C82.3348 17.412 82.4172 16.4557 82.682 15.5425C82.9469 14.6294 83.389 13.7773 83.9831 13.035C84.5772 12.2927 85.3117 11.6747 86.1446 11.2163C86.9776 10.7578 87.8927 10.468 88.8377 10.3632C89.7827 10.2584 90.739 10.3408 91.6522 10.6056L92.9575 6.10484Z"/>
</mask>
<path d="M92.9575 6.10484C91.4533 5.66861 89.8779 5.53292 88.3212 5.70552C86.7646 5.87812 85.2572 6.35564 83.8851 7.1108C82.513 7.86596 81.3031 8.88398 80.3244 10.1067C79.3458 11.3295 78.6175 12.733 78.1813 14.2372C77.7451 15.7414 77.6094 17.3168 77.782 18.8735C77.9546 20.4301 78.4321 21.9375 79.1872 23.3096C79.9424 24.6817 80.9604 25.8916 82.1832 26.8703C83.4059 27.8489 84.8095 28.5772 86.3137 29.0134L87.619 24.5127C86.7058 24.2478 85.8538 23.8057 85.1115 23.2116C84.3692 22.6175 83.7512 21.883 83.2927 21.0501C82.8343 20.2171 82.5444 19.302 82.4396 18.357C82.3348 17.412 82.4172 16.4557 82.682 15.5425C82.9469 14.6294 83.389 13.7773 83.9831 13.035C84.5772 12.2927 85.3117 11.6747 86.1446 11.2163C86.9776 10.7578 87.8927 10.468 88.8377 10.3632C89.7827 10.2584 90.739 10.3408 91.6522 10.6056L92.9575 6.10484Z" stroke="#1ACCA7" stroke-width="41.6894" mask="url(#path-6-inside-6_1244_9190)"/>
<mask id="path-7-inside-7_1244_9190" fill="white">
<path d="M38.5893 193.568C37.0851 193.132 35.5097 192.996 33.9531 193.169C32.3964 193.341 30.889 193.819 29.5169 194.574C28.1448 195.329 26.9349 196.347 25.9563 197.57C24.9776 198.793 24.2494 200.196 23.8131 201.7C23.3769 203.205 23.2412 204.78 23.4138 206.337C23.5864 207.893 24.0639 209.401 24.8191 210.773C25.5742 212.145 26.5923 213.355 27.815 214.333C29.0378 215.312 30.4413 216.04 31.9455 216.477L33.2508 211.976C32.3376 211.711 31.4856 211.269 30.7433 210.675C30.001 210.081 29.383 209.346 28.9246 208.513C28.4661 207.68 28.1762 206.765 28.0715 205.82C27.9667 204.875 28.0491 203.919 28.3139 203.006C28.5787 202.093 29.0208 201.24 29.6149 200.498C30.209 199.756 30.9435 199.138 31.7765 198.679C32.6094 198.221 33.5245 197.931 34.4695 197.826C35.4145 197.722 36.3709 197.804 37.284 198.069L38.5893 193.568Z"/>
</mask>
<path d="M38.5893 193.568C37.0851 193.132 35.5097 192.996 33.9531 193.169C32.3964 193.341 30.889 193.819 29.5169 194.574C28.1448 195.329 26.9349 196.347 25.9563 197.57C24.9776 198.793 24.2494 200.196 23.8131 201.7C23.3769 203.205 23.2412 204.78 23.4138 206.337C23.5864 207.893 24.0639 209.401 24.8191 210.773C25.5742 212.145 26.5923 213.355 27.815 214.333C29.0378 215.312 30.4413 216.04 31.9455 216.477L33.2508 211.976C32.3376 211.711 31.4856 211.269 30.7433 210.675C30.001 210.081 29.383 209.346 28.9246 208.513C28.4661 207.68 28.1762 206.765 28.0715 205.82C27.9667 204.875 28.0491 203.919 28.3139 203.006C28.5787 202.093 29.0208 201.24 29.6149 200.498C30.209 199.756 30.9435 199.138 31.7765 198.679C32.6094 198.221 33.5245 197.931 34.4695 197.826C35.4145 197.722 36.3709 197.804 37.284 198.069L38.5893 193.568Z" stroke="#1ACCA7" stroke-width="41.6894" mask="url(#path-7-inside-7_1244_9190)"/>
<mask id="path-8-inside-8_1244_9190" fill="white">
<path d="M69.6569 86.4462C68.1527 86.0099 66.5773 85.8742 65.0207 86.0468C63.4641 86.2194 61.9567 86.6969 60.5846 87.4521C59.2125 88.2073 58.0025 89.2253 57.0239 90.4481C56.0452 91.6708 55.317 93.0744 54.8808 94.5786C54.4445 96.0828 54.3088 97.6581 54.4814 99.2148C54.654 100.771 55.1315 102.279 55.8867 103.651C56.6419 105.023 57.6599 106.233 58.8827 107.212C60.1054 108.19 61.509 108.918 63.0132 109.355L64.3184 104.854C63.4053 104.589 62.5532 104.147 61.8109 103.553C61.0686 102.959 60.4506 102.224 59.9922 101.391C59.5338 100.558 59.2439 99.6433 59.1391 98.6983C59.0343 97.7533 59.1167 96.797 59.3815 95.8838C59.6463 94.9707 60.0884 94.1186 60.6825 93.3763C61.2766 92.634 62.0112 92.016 62.8441 91.5576C63.6771 91.0992 64.5922 90.8093 65.5371 90.7045C66.4821 90.5997 67.4385 90.6821 68.3516 90.9469L69.6569 86.4462Z"/>
</mask>
<path d="M69.6569 86.4462C68.1527 86.0099 66.5773 85.8742 65.0207 86.0468C63.4641 86.2194 61.9567 86.6969 60.5846 87.4521C59.2125 88.2073 58.0025 89.2253 57.0239 90.4481C56.0452 91.6708 55.317 93.0744 54.8808 94.5786C54.4445 96.0828 54.3088 97.6581 54.4814 99.2148C54.654 100.771 55.1315 102.279 55.8867 103.651C56.6419 105.023 57.6599 106.233 58.8827 107.212C60.1054 108.19 61.509 108.918 63.0132 109.355L64.3184 104.854C63.4053 104.589 62.5532 104.147 61.8109 103.553C61.0686 102.959 60.4506 102.224 59.9922 101.391C59.5338 100.558 59.2439 99.6433 59.1391 98.6983C59.0343 97.7533 59.1167 96.797 59.3815 95.8838C59.6463 94.9707 60.0884 94.1186 60.6825 93.3763C61.2766 92.634 62.0112 92.016 62.8441 91.5576C63.6771 91.0992 64.5922 90.8093 65.5371 90.7045C66.4821 90.5997 67.4385 90.6821 68.3516 90.9469L69.6569 86.4462Z" stroke="#1ACCA7" stroke-width="41.6894" mask="url(#path-8-inside-8_1244_9190)"/>
<mask id="path-9-inside-9_1244_9190" fill="white">
<path d="M54.123 140.007C52.6188 139.571 51.0434 139.435 49.4868 139.608C47.9301 139.78 46.4227 140.258 45.0506 141.013C43.6785 141.768 42.4686 142.786 41.49 144.009C40.5113 145.232 39.7831 146.635 39.3468 148.139C38.9106 149.644 38.7749 151.219 38.9475 152.776C39.1201 154.332 39.5976 155.84 40.3528 157.212C41.1079 158.584 42.126 159.794 43.3487 160.772C44.5715 161.751 45.975 162.479 47.4792 162.916L48.7845 158.415C47.8713 158.15 47.0193 157.708 46.277 157.114C45.5347 156.52 44.9167 155.785 44.4583 154.952C43.9998 154.119 43.7099 153.204 43.6052 152.259C43.5004 151.314 43.5827 150.358 43.8476 149.445C44.1124 148.531 44.5545 147.679 45.1486 146.937C45.7427 146.195 46.4772 145.577 47.3102 145.118C48.1431 144.66 49.0582 144.37 50.0032 144.265C50.9482 144.16 51.9046 144.243 52.8177 144.508L54.123 140.007Z"/>
</mask>
<path d="M54.123 140.007C52.6188 139.571 51.0434 139.435 49.4868 139.608C47.9301 139.78 46.4227 140.258 45.0506 141.013C43.6785 141.768 42.4686 142.786 41.49 144.009C40.5113 145.232 39.7831 146.635 39.3468 148.139C38.9106 149.644 38.7749 151.219 38.9475 152.776C39.1201 154.332 39.5976 155.84 40.3528 157.212C41.1079 158.584 42.126 159.794 43.3487 160.772C44.5715 161.751 45.975 162.479 47.4792 162.916L48.7845 158.415C47.8713 158.15 47.0193 157.708 46.277 157.114C45.5347 156.52 44.9167 155.785 44.4583 154.952C43.9998 154.119 43.7099 153.204 43.6052 152.259C43.5004 151.314 43.5827 150.358 43.8476 149.445C44.1124 148.531 44.5545 147.679 45.1486 146.937C45.7427 146.195 46.4772 145.577 47.3102 145.118C48.1431 144.66 49.0582 144.37 50.0032 144.265C50.9482 144.16 51.9046 144.243 52.8177 144.508L54.123 140.007Z" stroke="#1ACCA7" stroke-width="41.6894" mask="url(#path-9-inside-9_1244_9190)"/>
<mask id="path-10-inside-10_1244_9190" fill="white">
<path d="M85.1904 32.8854C83.6862 32.4491 82.1108 32.3134 80.5541 32.486C78.9975 32.6586 77.4901 33.1362 76.118 33.8913C74.7459 34.6465 73.536 35.6645 72.5573 36.8873C71.5787 38.11 70.8504 39.5136 70.4142 41.0178C69.978 42.522 69.8423 44.0974 70.0149 45.654C70.1875 47.2106 70.665 48.718 71.4202 50.0901C72.1753 51.4622 73.1933 52.6721 74.4161 53.6508C75.6389 54.6295 77.0424 55.3577 78.5466 55.7939L79.8519 51.2932C78.9387 51.0284 78.0867 50.5863 77.3444 49.9921C76.6021 49.398 75.9841 48.6635 75.5256 47.8306C75.0672 46.9976 74.7773 46.0825 74.6725 45.1375C74.5678 44.1926 74.6501 43.2362 74.915 42.323C75.1798 41.4099 75.6219 40.5578 76.216 39.8155C76.8101 39.0732 77.5446 38.4552 78.3776 37.9968C79.2105 37.5384 80.1256 37.2485 81.0706 37.1437C82.0156 37.0389 82.9719 37.1213 83.8851 37.3861L85.1904 32.8854Z"/>
</mask>
<path d="M85.1904 32.8854C83.6862 32.4491 82.1108 32.3134 80.5541 32.486C78.9975 32.6586 77.4901 33.1362 76.118 33.8913C74.7459 34.6465 73.536 35.6645 72.5573 36.8873C71.5787 38.11 70.8504 39.5136 70.4142 41.0178C69.978 42.522 69.8423 44.0974 70.0149 45.654C70.1875 47.2106 70.665 48.718 71.4202 50.0901C72.1753 51.4622 73.1933 52.6721 74.4161 53.6508C75.6389 54.6295 77.0424 55.3577 78.5466 55.7939L79.8519 51.2932C78.9387 51.0284 78.0867 50.5863 77.3444 49.9921C76.6021 49.398 75.9841 48.6635 75.5256 47.8306C75.0672 46.9976 74.7773 46.0825 74.6725 45.1375C74.5678 44.1926 74.6501 43.2362 74.915 42.323C75.1798 41.4099 75.6219 40.5578 76.216 39.8155C76.8101 39.0732 77.5446 38.4552 78.3776 37.9968C79.2105 37.5384 80.1256 37.2485 81.0706 37.1437C82.0156 37.0389 82.9719 37.1213 83.8851 37.3861L85.1904 32.8854Z" stroke="#1ACCA7" stroke-width="41.6894" mask="url(#path-10-inside-10_1244_9190)"/>
<mask id="path-11-inside-11_1244_9190" fill="white">
<path d="M43.9315 175.161C45.4357 175.598 46.8392 176.326 48.062 177.304C49.2847 178.283 50.3027 179.493 51.0579 180.865C51.8131 182.237 52.2906 183.745 52.4632 185.301C52.6358 186.858 52.5001 188.433 52.0639 189.937C51.6276 191.442 50.8994 192.845 49.9207 194.068C48.9421 195.291 47.7321 196.309 46.36 197.064C44.988 197.819 43.4806 198.297 41.9239 198.469C40.3673 198.642 38.7919 198.506 37.2877 198.07L38.593 193.569C39.5061 193.834 40.4625 193.916 41.4075 193.812C42.3525 193.707 43.2675 193.417 44.1005 192.958C44.9335 192.5 45.668 191.882 46.2621 191.14C46.8562 190.397 47.2983 189.545 47.5631 188.632C47.8279 187.719 47.9103 186.763 47.8055 185.818C47.7007 184.873 47.4109 183.958 46.9524 183.125C46.494 182.292 45.876 181.557 45.1337 180.963C44.3914 180.369 43.5393 179.927 42.6262 179.662L43.9315 175.161Z"/>
</mask>
<path d="M43.9315 175.161C45.4357 175.598 46.8392 176.326 48.062 177.304C49.2847 178.283 50.3027 179.493 51.0579 180.865C51.8131 182.237 52.2906 183.745 52.4632 185.301C52.6358 186.858 52.5001 188.433 52.0639 189.937C51.6276 191.442 50.8994 192.845 49.9207 194.068C48.9421 195.291 47.7321 196.309 46.36 197.064C44.988 197.819 43.4806 198.297 41.9239 198.469C40.3673 198.642 38.7919 198.506 37.2877 198.07L38.593 193.569C39.5061 193.834 40.4625 193.916 41.4075 193.812C42.3525 193.707 43.2675 193.417 44.1005 192.958C44.9335 192.5 45.668 191.882 46.2621 191.14C46.8562 190.397 47.2983 189.545 47.5631 188.632C47.8279 187.719 47.9103 186.763 47.8055 185.818C47.7007 184.873 47.4109 183.958 46.9524 183.125C46.494 182.292 45.876 181.557 45.1337 180.963C44.3914 180.369 43.5393 179.927 42.6262 179.662L43.9315 175.161Z" stroke="#1ACCA7" stroke-width="41.6894" mask="url(#path-11-inside-11_1244_9190)"/>
<mask id="path-12-inside-12_1244_9190" fill="white">
<path d="M74.9988 68.0394C76.503 68.4757 77.9066 69.2039 79.1293 70.1826C80.3521 71.1612 81.3701 72.3712 82.1253 73.7433C82.8804 75.1153 83.358 76.6227 83.5306 78.1794C83.7032 79.736 83.5675 81.3114 83.1312 82.8156C82.695 84.3198 81.9668 85.7234 80.9881 86.9461C80.0094 88.1689 78.7995 89.1869 77.4274 89.9421C76.0553 90.6972 74.5479 91.1747 72.9913 91.3473C71.4347 91.5199 69.8593 91.3842 68.3551 90.948L69.6603 86.4473C70.5735 86.7121 71.5299 86.7945 72.4749 86.6897C73.4198 86.5849 74.3349 86.295 75.1679 85.8366C76.0008 85.3781 76.7353 84.7601 77.3295 84.0178C77.9236 83.2755 78.3657 82.4235 78.6305 81.5103C78.8953 80.5972 78.9777 79.6408 78.8729 78.6958C78.7681 77.7508 78.4782 76.8358 78.0198 76.0028C77.5614 75.1698 76.9434 74.4353 76.2011 73.8412C75.4588 73.2471 74.6067 72.805 73.6936 72.5402L74.9988 68.0394Z"/>
</mask>
<path d="M74.9988 68.0394C76.503 68.4757 77.9066 69.2039 79.1293 70.1826C80.3521 71.1612 81.3701 72.3712 82.1253 73.7433C82.8804 75.1153 83.358 76.6227 83.5306 78.1794C83.7032 79.736 83.5675 81.3114 83.1312 82.8156C82.695 84.3198 81.9668 85.7234 80.9881 86.9461C80.0094 88.1689 78.7995 89.1869 77.4274 89.9421C76.0553 90.6972 74.5479 91.1747 72.9913 91.3473C71.4347 91.5199 69.8593 91.3842 68.3551 90.948L69.6603 86.4473C70.5735 86.7121 71.5299 86.7945 72.4749 86.6897C73.4198 86.5849 74.3349 86.295 75.1679 85.8366C76.0008 85.3781 76.7353 84.7601 77.3295 84.0178C77.9236 83.2755 78.3657 82.4235 78.6305 81.5103C78.8953 80.5972 78.9777 79.6408 78.8729 78.6958C78.7681 77.7508 78.4782 76.8358 78.0198 76.0028C77.5614 75.1698 76.9434 74.4353 76.2011 73.8412C75.4588 73.2471 74.6067 72.805 73.6936 72.5402L74.9988 68.0394Z" stroke="#1ACCA7" stroke-width="41.6894" mask="url(#path-12-inside-12_1244_9190)"/>
<mask id="path-13-inside-13_1244_9190" fill="white">
<path d="M59.4651 121.6C60.9693 122.037 62.3729 122.765 63.5957 123.744C64.8184 124.722 65.8364 125.932 66.5916 127.304C67.3468 128.676 67.8243 130.184 67.9969 131.74C68.1695 133.297 68.0338 134.872 67.5975 136.377C67.1613 137.881 66.4331 139.284 65.4544 140.507C64.4758 141.73 63.2658 142.748 61.8937 143.503C60.5216 144.258 59.0142 144.736 57.4576 144.908C55.901 145.081 54.3256 144.945 52.8214 144.509L54.1267 140.008C55.0398 140.273 55.9962 140.355 56.9412 140.251C57.8861 140.146 58.8012 139.856 59.6342 139.398C60.4671 138.939 61.2017 138.321 61.7958 137.579C62.3899 136.837 62.832 135.985 63.0968 135.071C63.3616 134.158 63.444 133.202 63.3392 132.257C63.2344 131.312 62.9445 130.397 62.4861 129.564C62.0277 128.731 61.4097 127.996 60.6674 127.402C59.9251 126.808 59.073 126.366 58.1599 126.101L59.4651 121.6Z"/>
</mask>
<path d="M59.4651 121.6C60.9693 122.037 62.3729 122.765 63.5957 123.744C64.8184 124.722 65.8364 125.932 66.5916 127.304C67.3468 128.676 67.8243 130.184 67.9969 131.74C68.1695 133.297 68.0338 134.872 67.5975 136.377C67.1613 137.881 66.4331 139.284 65.4544 140.507C64.4758 141.73 63.2658 142.748 61.8937 143.503C60.5216 144.258 59.0142 144.736 57.4576 144.908C55.901 145.081 54.3256 144.945 52.8214 144.509L54.1267 140.008C55.0398 140.273 55.9962 140.355 56.9412 140.251C57.8861 140.146 58.8012 139.856 59.6342 139.398C60.4671 138.939 61.2017 138.321 61.7958 137.579C62.3899 136.837 62.832 135.985 63.0968 135.071C63.3616 134.158 63.444 133.202 63.3392 132.257C63.2344 131.312 62.9445 130.397 62.4861 129.564C62.0277 128.731 61.4097 127.996 60.6674 127.402C59.9251 126.808 59.073 126.366 58.1599 126.101L59.4651 121.6Z" stroke="#1ACCA7" stroke-width="41.6894" mask="url(#path-13-inside-13_1244_9190)"/>
<mask id="path-14-inside-14_1244_9190" fill="white">
<path d="M28.3978 228.722C29.902 229.158 31.3055 229.887 32.5283 230.865C33.751 231.844 34.769 233.054 35.5242 234.426C36.2794 235.798 36.7569 237.305 36.9295 238.862C37.1021 240.419 36.9664 241.994 36.5302 243.498C36.0939 245.002 35.3657 246.406 34.387 247.629C33.4084 248.851 32.1985 249.87 30.8264 250.625C29.4543 251.38 27.9469 251.857 26.3902 252.03C24.8336 252.203 23.2582 252.067 21.754 251.631L23.0593 247.13C23.9724 247.395 24.9288 247.477 25.8738 247.372C26.8188 247.268 27.7339 246.978 28.5668 246.519C29.3998 246.061 30.1343 245.443 30.7284 244.7C31.3225 243.958 31.7646 243.106 32.0294 242.193C32.2942 241.28 32.3766 240.323 32.2718 239.378C32.167 238.433 31.8772 237.518 31.4187 236.685C30.9603 235.852 30.3423 235.118 29.6 234.524C28.8577 233.93 28.0056 233.488 27.0925 233.223L28.3978 228.722Z"/>
</mask>
<path d="M28.3978 228.722C29.902 229.158 31.3055 229.887 32.5283 230.865C33.751 231.844 34.769 233.054 35.5242 234.426C36.2794 235.798 36.7569 237.305 36.9295 238.862C37.1021 240.419 36.9664 241.994 36.5302 243.498C36.0939 245.002 35.3657 246.406 34.387 247.629C33.4084 248.851 32.1985 249.87 30.8264 250.625C29.4543 251.38 27.9469 251.857 26.3902 252.03C24.8336 252.203 23.2582 252.067 21.754 251.631L23.0593 247.13C23.9724 247.395 24.9288 247.477 25.8738 247.372C26.8188 247.268 27.7339 246.978 28.5668 246.519C29.3998 246.061 30.1343 245.443 30.7284 244.7C31.3225 243.958 31.7646 243.106 32.0294 242.193C32.2942 241.28 32.3766 240.323 32.2718 239.378C32.167 238.433 31.8772 237.518 31.4187 236.685C30.9603 235.852 30.3423 235.118 29.6 234.524C28.8577 233.93 28.0056 233.488 27.0925 233.223L28.3978 228.722Z" stroke="#1ACCA7" stroke-width="41.6894" mask="url(#path-14-inside-14_1244_9190)"/>
<mask id="path-15-inside-15_1244_9190" fill="white">
<path d="M90.5325 14.4787C92.0367 14.9149 93.4403 15.6431 94.663 16.6218C95.8858 17.6004 96.9038 18.8104 97.659 20.1825C98.4141 21.5546 98.8917 23.062 99.0643 24.6186C99.2369 26.1752 99.1012 27.7506 98.6649 29.2548C98.2287 30.759 97.5005 32.1626 96.5218 33.3853C95.5431 34.6081 94.3332 35.6261 92.9611 36.3813C91.589 37.1364 90.0816 37.6139 88.525 37.7865C86.9684 37.9591 85.393 37.8235 83.8888 37.3872L85.194 32.8865C86.1072 33.1513 87.0636 33.2337 88.0085 33.1289C88.9535 33.0241 89.8686 32.7342 90.7016 32.2758C91.5345 31.8173 92.269 31.1993 92.8631 30.457C93.4573 29.7147 93.8994 28.8627 94.1642 27.9495C94.429 27.0364 94.5114 26.08 94.4066 25.135C94.3018 24.1901 94.0119 23.275 93.5535 22.442C93.0951 21.6091 92.4771 20.8746 91.7348 20.2804C90.9925 19.6863 90.1404 19.2442 89.2273 18.9794L90.5325 14.4787Z"/>
</mask>
<path d="M90.5325 14.4787C92.0367 14.9149 93.4403 15.6431 94.663 16.6218C95.8858 17.6004 96.9038 18.8104 97.659 20.1825C98.4141 21.5546 98.8917 23.062 99.0643 24.6186C99.2369 26.1752 99.1012 27.7506 98.6649 29.2548C98.2287 30.759 97.5005 32.1626 96.5218 33.3853C95.5431 34.6081 94.3332 35.6261 92.9611 36.3813C91.589 37.1364 90.0816 37.6139 88.525 37.7865C86.9684 37.9591 85.393 37.8235 83.8888 37.3872L85.194 32.8865C86.1072 33.1513 87.0636 33.2337 88.0085 33.1289C88.9535 33.0241 89.8686 32.7342 90.7016 32.2758C91.5345 31.8173 92.269 31.1993 92.8631 30.457C93.4573 29.7147 93.8994 28.8627 94.1642 27.9495C94.429 27.0364 94.5114 26.08 94.4066 25.135C94.3018 24.1901 94.0119 23.275 93.5535 22.442C93.0951 21.6091 92.4771 20.8746 91.7348 20.2804C90.9925 19.6863 90.1404 19.2442 89.2273 18.9794L90.5325 14.4787Z" stroke="#1ACCA7" stroke-width="41.6894" mask="url(#path-15-inside-15_1244_9190)"/>
<mask id="path-16-inside-16_1244_9190" fill="white">
<path d="M36.1646 201.942C37.6688 202.378 39.0724 203.106 40.2951 204.085C41.5179 205.063 42.5359 206.273 43.2911 207.645C44.0462 209.017 44.5237 210.525 44.6963 212.081C44.8689 213.638 44.7332 215.214 44.297 216.718C43.8608 218.222 43.1325 219.625 42.1539 220.848C41.1752 222.071 39.9653 223.089 38.5932 223.844C37.2211 224.599 35.7137 225.077 34.1571 225.249C32.6004 225.422 31.025 225.286 29.5208 224.85L30.8261 220.349C31.7393 220.614 32.6956 220.697 33.6406 220.592C34.5856 220.487 35.5007 220.197 36.3337 219.739C37.1666 219.28 37.9011 218.662 38.4952 217.92C39.0893 217.178 39.5314 216.326 39.7963 215.412C40.0611 214.499 40.1435 213.543 40.0387 212.598C39.9339 211.653 39.644 210.738 39.1856 209.905C38.7271 209.072 38.1091 208.337 37.3668 207.743C36.6245 207.149 35.7725 206.707 34.8593 206.442L36.1646 201.942Z"/>
</mask>
<path d="M36.1646 201.942C37.6688 202.378 39.0724 203.106 40.2951 204.085C41.5179 205.063 42.5359 206.273 43.2911 207.645C44.0462 209.017 44.5237 210.525 44.6963 212.081C44.8689 213.638 44.7332 215.214 44.297 216.718C43.8608 218.222 43.1325 219.625 42.1539 220.848C41.1752 222.071 39.9653 223.089 38.5932 223.844C37.2211 224.599 35.7137 225.077 34.1571 225.249C32.6004 225.422 31.025 225.286 29.5208 224.85L30.8261 220.349C31.7393 220.614 32.6956 220.697 33.6406 220.592C34.5856 220.487 35.5007 220.197 36.3337 219.739C37.1666 219.28 37.9011 218.662 38.4952 217.92C39.0893 217.178 39.5314 216.326 39.7963 215.412C40.0611 214.499 40.1435 213.543 40.0387 212.598C39.9339 211.653 39.644 210.738 39.1856 209.905C38.7271 209.072 38.1091 208.337 37.3668 207.743C36.6245 207.149 35.7725 206.707 34.8593 206.442L36.1646 201.942Z" stroke="#1ACCA7" stroke-width="41.6894" mask="url(#path-16-inside-16_1244_9190)"/>
<mask id="path-17-inside-17_1244_9190" fill="white">
<path d="M67.232 94.82C68.7362 95.2562 70.1397 95.9844 71.3625 96.9631C72.5853 97.9418 73.6033 99.1517 74.3584 100.524C75.1136 101.896 75.5911 103.403 75.7637 104.96C75.9363 106.517 75.8006 108.092 75.3644 109.596C74.9282 111.1 74.1999 112.504 73.2213 113.727C72.2426 114.949 71.0327 115.967 69.6606 116.723C68.2885 117.478 66.7811 117.955 65.2245 118.128C63.6678 118.3 62.0924 118.165 60.5882 117.729L61.8935 113.228C62.8067 113.493 63.763 113.575 64.708 113.47C65.653 113.365 66.5681 113.076 67.401 112.617C68.234 112.159 68.9685 111.541 69.5626 110.798C70.1567 110.056 70.5988 109.204 70.8636 108.291C71.1285 107.378 71.2108 106.421 71.1061 105.476C71.0013 104.531 70.7114 103.616 70.253 102.783C69.7945 101.95 69.1765 101.216 68.4342 100.622C67.6919 100.028 66.8399 99.5855 65.9267 99.3207L67.232 94.82Z"/>
</mask>
<path d="M67.232 94.82C68.7362 95.2562 70.1397 95.9844 71.3625 96.9631C72.5853 97.9418 73.6033 99.1517 74.3584 100.524C75.1136 101.896 75.5911 103.403 75.7637 104.96C75.9363 106.517 75.8006 108.092 75.3644 109.596C74.9282 111.1 74.1999 112.504 73.2213 113.727C72.2426 114.949 71.0327 115.967 69.6606 116.723C68.2885 117.478 66.7811 117.955 65.2245 118.128C63.6678 118.3 62.0924 118.165 60.5882 117.729L61.8935 113.228C62.8067 113.493 63.763 113.575 64.708 113.47C65.653 113.365 66.5681 113.076 67.401 112.617C68.234 112.159 68.9685 111.541 69.5626 110.798C70.1567 110.056 70.5988 109.204 70.8636 108.291C71.1285 107.378 71.2108 106.421 71.1061 105.476C71.0013 104.531 70.7114 103.616 70.253 102.783C69.7945 101.95 69.1765 101.216 68.4342 100.622C67.6919 100.028 66.8399 99.5855 65.9267 99.3207L67.232 94.82Z" stroke="#1ACCA7" stroke-width="41.6894" mask="url(#path-17-inside-17_1244_9190)"/>
<mask id="path-18-inside-18_1244_9190" fill="white">
<path d="M51.6983 148.381C53.2025 148.817 54.606 149.545 55.8288 150.524C57.0516 151.503 58.0696 152.713 58.8247 154.085C59.5799 155.457 60.0574 156.964 60.23 158.521C60.4026 160.078 60.2669 161.653 59.8307 163.157C59.3945 164.661 58.6662 166.065 57.6876 167.288C56.7089 168.51 55.499 169.528 54.1269 170.284C52.7548 171.039 51.2474 171.516 49.6908 171.689C48.1341 171.861 46.5587 171.726 45.0545 171.29L46.3598 166.789C47.273 167.054 48.2293 167.136 49.1743 167.031C50.1193 166.926 51.0344 166.637 51.8673 166.178C52.7003 165.72 53.4348 165.102 54.0289 164.359C54.623 163.617 55.0651 162.765 55.3299 161.852C55.5948 160.939 55.6771 159.982 55.5724 159.037C55.4676 158.092 55.1777 157.177 54.7193 156.344C54.2608 155.511 53.6428 154.777 52.9005 154.183C52.1582 153.589 51.3062 153.147 50.393 152.882L51.6983 148.381Z"/>
</mask>
<path d="M51.6983 148.381C53.2025 148.817 54.606 149.545 55.8288 150.524C57.0516 151.503 58.0696 152.713 58.8247 154.085C59.5799 155.457 60.0574 156.964 60.23 158.521C60.4026 160.078 60.2669 161.653 59.8307 163.157C59.3945 164.661 58.6662 166.065 57.6876 167.288C56.7089 168.51 55.499 169.528 54.1269 170.284C52.7548 171.039 51.2474 171.516 49.6908 171.689C48.1341 171.861 46.5587 171.726 45.0545 171.29L46.3598 166.789C47.273 167.054 48.2293 167.136 49.1743 167.031C50.1193 166.926 51.0344 166.637 51.8673 166.178C52.7003 165.72 53.4348 165.102 54.0289 164.359C54.623 163.617 55.0651 162.765 55.3299 161.852C55.5948 160.939 55.6771 159.982 55.5724 159.037C55.4676 158.092 55.1777 157.177 54.7193 156.344C54.2608 155.511 53.6428 154.777 52.9005 154.183C52.1582 153.589 51.3062 153.147 50.393 152.882L51.6983 148.381Z" stroke="#1ACCA7" stroke-width="41.6894" mask="url(#path-18-inside-18_1244_9190)"/>
<mask id="path-19-inside-19_1244_9190" fill="white">
<path d="M82.7657 41.2592C84.2699 41.6954 85.6734 42.4236 86.8962 43.4023C88.1189 44.381 89.137 45.5909 89.8921 46.963C90.6473 48.3351 91.1248 49.8425 91.2974 51.3991C91.47 52.9557 91.3343 54.5311 90.8981 56.0353C90.4619 57.5395 89.7336 58.9431 88.755 60.1658C87.7763 61.3886 86.5664 62.4066 85.1943 63.1618C83.8222 63.9169 82.3148 64.3945 80.7581 64.5671C79.2015 64.7397 77.6261 64.604 76.1219 64.1677L77.4272 59.667C78.3403 59.9318 79.2967 60.0142 80.2417 59.9094C81.1867 59.8046 82.1018 59.5147 82.9347 59.0563C83.7677 58.5979 84.5022 57.9799 85.0963 57.2376C85.6904 56.4953 86.1325 55.6432 86.3973 54.7301C86.6622 53.8169 86.7445 52.8605 86.6397 51.9156C86.535 50.9706 86.2451 50.0555 85.7866 49.2225C85.3282 48.3896 84.7102 47.6551 83.9679 47.061C83.2256 46.4668 82.3736 46.0247 81.4604 45.7599L82.7657 41.2592Z"/>
</mask>
<path d="M82.7657 41.2592C84.2699 41.6954 85.6734 42.4236 86.8962 43.4023C88.1189 44.381 89.137 45.5909 89.8921 46.963C90.6473 48.3351 91.1248 49.8425 91.2974 51.3991C91.47 52.9557 91.3343 54.5311 90.8981 56.0353C90.4619 57.5395 89.7336 58.9431 88.755 60.1658C87.7763 61.3886 86.5664 62.4066 85.1943 63.1618C83.8222 63.9169 82.3148 64.3945 80.7581 64.5671C79.2015 64.7397 77.6261 64.604 76.1219 64.1677L77.4272 59.667C78.3403 59.9318 79.2967 60.0142 80.2417 59.9094C81.1867 59.8046 82.1018 59.5147 82.9347 59.0563C83.7677 58.5979 84.5022 57.9799 85.0963 57.2376C85.6904 56.4953 86.1325 55.6432 86.3973 54.7301C86.6622 53.8169 86.7445 52.8605 86.6397 51.9156C86.535 50.9706 86.2451 50.0555 85.7866 49.2225C85.3282 48.3896 84.7102 47.6551 83.9679 47.061C83.2256 46.4668 82.3736 46.0247 81.4604 45.7599L82.7657 41.2592Z" stroke="#1ACCA7" stroke-width="41.6894" mask="url(#path-19-inside-19_1244_9190)"/>
<path d="M78.1881 300.096L14.6678 281.294C13.6797 281.002 12.6735 281.549 12.3811 282.537L7.99402 297.358C7.70156 298.346 8.24814 299.352 9.23621 299.645L72.7566 318.446C73.7446 318.739 74.7508 318.192 75.0433 317.204L79.4303 302.383C79.7228 301.395 79.1762 300.389 78.1881 300.096V300.096ZM24.1773 292.476L18.2398 295.938C17.9446 296.158 17.5498 296.194 17.1264 296.069C16.7734 295.965 16.4622 295.719 16.2637 295.353L14.6866 292.123C14.3595 291.412 14.6101 290.565 15.3211 290.238C16.0321 289.911 16.8789 290.162 17.206 290.873L18.1787 292.773L22.8148 290.077C23.4762 289.658 24.3231 289.909 24.7414 290.57C25.0894 291.211 24.9089 292.079 24.1773 292.476L24.1773 292.476ZM72.0366 314.395L26.8666 301.025L30.2092 289.733L75.4498 303.123L72.1067 314.416L72.0366 314.395Z" fill="#1ACCA7"/>
<path d="M16.1093 276.425L62.5497 290.171C63.5378 290.463 64.544 289.917 64.8364 288.928L69.2234 274.107C69.5159 273.119 68.9693 272.113 67.9813 271.82L21.5408 258.074C20.5528 257.782 19.5466 258.328 19.2541 259.316L14.888 274.067C14.5955 275.055 15.1212 276.132 16.1093 276.424L16.1093 276.425ZM37.0116 266.492L65.1723 274.827L61.8297 286.12L33.6692 277.784L37.0116 266.492Z" fill="#1ACCA7"/>
<path d="M43.5073 315.085L7.79473 304.515C6.80666 304.222 5.80047 304.769 5.50801 305.757L1.14187 320.508C0.849404 321.496 1.39598 322.502 2.38405 322.794L38.0966 333.365C39.0847 333.658 40.0909 333.111 40.3833 332.123L44.7495 317.372C45.0211 316.454 44.4953 315.378 43.5073 315.085ZM37.3558 329.385L19.923 324.225L23.2656 312.932L40.6984 318.092L37.3558 329.385Z" fill="#1ACCA7"/>
</svg>
