<svg width="87" height="85" viewBox="0 0 87 85" fill="none" xmlns="http://www.w3.org/2000/svg">
<path d="M78.1691 42.5441L14.6487 23.7425C13.6607 23.45 12.6545 23.9966 12.362 24.9847L7.97498 39.8061C7.68252 40.7942 8.2291 41.8003 9.21717 42.0928L72.7375 60.8944C73.7256 61.1868 74.7318 60.6403 75.0242 59.6522L79.4113 44.8308C79.7037 43.8427 79.1572 42.8365 78.1691 42.5441V42.5441ZM24.1582 34.9241L18.2208 38.3862C17.9256 38.6056 17.5307 38.6424 17.1074 38.5171C16.7544 38.4126 16.4432 38.1668 16.2446 37.8012L14.6676 34.571C14.3405 33.8601 14.5911 33.0133 15.3021 32.6861C16.0131 32.359 16.8598 32.6096 17.187 33.3206L18.1596 35.2208L22.7958 32.5247C23.4572 32.1063 24.304 32.357 24.7223 33.0184C25.0703 33.659 24.8899 34.5271 24.1582 34.9241L24.1582 34.9241ZM72.0176 56.8433L26.8475 43.4733L30.1901 32.1806L75.4307 45.5715L72.0876 56.8641L72.0176 56.8433Z" fill="#1ACCA7"/>
<path d="M16.0902 18.8726L62.5307 32.6186C63.5187 32.9111 64.5249 32.3645 64.8174 31.3764L69.2044 16.555C69.4969 15.567 68.9503 14.5608 67.9622 14.2683L21.5218 0.522266C20.5337 0.229804 19.5275 0.776385 19.2351 1.76445L14.8689 16.5153C14.5765 17.5034 15.1022 18.58 16.0903 18.8725L16.0902 18.8726ZM36.9925 8.93958L65.1532 17.2749L61.8107 28.5677L33.6501 20.2318L36.9925 8.93958Z" fill="#1ACCA7"/>
<path d="M43.4882 57.5334L7.77568 46.9627C6.78762 46.6702 5.78143 47.2168 5.48896 48.2049L1.12282 62.9557C0.830361 63.9438 1.37694 64.95 2.36501 65.2424L38.0776 75.8131C39.0656 76.1056 40.0718 75.559 40.3643 74.5709L44.7304 59.8201C45.002 58.9024 44.4763 57.8258 43.4882 57.5334ZM37.3367 71.8325L19.9039 66.6725L23.2465 55.3798L40.6793 60.5397L37.3367 71.8325Z" fill="#1ACCA7"/>
</svg>
