<svg width="133" height="127" viewBox="0 0 133 127" fill="none" xmlns="http://www.w3.org/2000/svg">
<rect x="3.43506" y="39.0442" width="126.104" height="85.3276" fill="#5167FF" stroke="white" stroke-width="5"/>
<path d="M99.7275 0.662109L0.850342 36.2637H99.7275V0.662109Z" fill="#E64BFF"/>
<path d="M117.82 16.134L1.07275 36.4071H117.82V16.134Z" fill="#9A4BFF"/>
<path fill-rule="evenodd" clip-rule="evenodd" d="M51.3226 76.5112V90.8441H48.5474V74.1938C48.5474 72.8586 50.0728 72.0975 51.1396 72.9003L64.3218 82.8205C64.7282 83.1263 64.9673 83.6054 64.9673 84.114V90.8441H62.1921V84.691L51.3226 76.5112Z" fill="white"/>
<path fill-rule="evenodd" clip-rule="evenodd" d="M81.6599 76.5112V90.8441H84.4351V74.1938C84.4351 72.8586 82.9096 72.0975 81.8428 72.9003L68.6606 82.8205C68.2542 83.1263 68.0151 83.6054 68.0151 84.114V90.8441H70.7903V84.691L81.6599 76.5112Z" fill="white"/>
</svg>
