<svg width="15" height="15" viewBox="0 0 15 15" fill="none" xmlns="http://www.w3.org/2000/svg">
<path fill-rule="evenodd" clip-rule="evenodd" d="M7.07128 0.889988C7.07162 0.890101 7.07207 0.890101 7.07241 0.890101C7.07388 0.890215 7.07536 0.890328 7.07683 0.890442C7.08103 0.890555 7.08511 0.890895 7.08931 0.891349C7.16463 0.900424 7.22362 0.960315 7.23167 1.03575C7.95287 4.73845 10.0097 7.07634 13.9158 7.72274C13.9863 7.72886 14.0447 7.78002 14.0603 7.8491C14.0604 7.84967 14.0605 7.85012 14.0606 7.85069C14.0616 7.85534 14.0624 7.85999 14.063 7.86464C14.0631 7.86589 14.0632 7.86714 14.0633 7.86839C14.0638 7.87213 14.064 7.87587 14.0641 7.87962C14.0642 7.88211 14.0642 7.88461 14.0641 7.8871C14.0641 7.88983 14.0641 7.89243 14.0639 7.89516C14.0637 7.8989 14.0633 7.90264 14.0628 7.90627C14.0626 7.90752 14.0624 7.90877 14.0623 7.91002C14.0615 7.91512 14.0605 7.92011 14.0592 7.92499C14.0421 7.99259 13.9839 8.04182 13.9144 8.04727C10.0099 8.69396 7.95337 11.031 7.23205 14.7319C7.22479 14.8096 7.16342 14.8712 7.08583 14.8787H7.08447H7.08413C7.08107 14.8788 7.07789 14.8788 7.07472 14.8787C7.07222 14.8788 7.06961 14.8788 7.067 14.8787H7.0636C6.98272 14.8758 6.91637 14.8138 6.90775 14.7334C6.18495 11.0307 4.12981 8.69311 0.223951 8.04642C0.15317 8.04041 0.0945249 7.98925 0.0789835 7.92006C0.07887 7.91949 0.0787566 7.91892 0.0786432 7.91847C0.0776223 7.91382 0.0768283 7.90917 0.0762611 7.9044C0.0761477 7.90315 0.0760343 7.90191 0.0759208 7.90066C0.0754671 7.89691 0.0752402 7.89317 0.0751268 7.88943C0.0750134 7.88693 0.0750134 7.88444 0.0751268 7.88194C0.0751268 7.87933 0.0751268 7.87672 0.0753537 7.874C0.0755805 7.87026 0.0759208 7.86652 0.076488 7.86277C0.0766014 7.86152 0.0768283 7.86028 0.0769417 7.85903C0.0777357 7.85404 0.0787566 7.84905 0.0800044 7.84406C0.0970192 7.77668 0.155096 7.72745 0.224518 7.72178C4.12904 7.07509 6.18409 4.73836 6.90744 1.03711C6.9147 0.959522 6.97607 0.897929 7.05366 0.890442C7.05411 0.890329 7.05457 0.890329 7.05502 0.890216H7.05547C7.05854 0.890102 7.06171 0.889989 7.06477 0.889875C7.06693 0.889762 7.0692 0.889648 7.07135 0.889648L7.07128 0.889988Z" fill="url(#paint0_linear_1244_9009)"/>
<defs>
<linearGradient id="paint0_linear_1244_9009" x1="7.06963" y1="0.889648" x2="7.06963" y2="14.8788" gradientUnits="userSpaceOnUse">
<stop stop-color="#A04CFF"/>
<stop offset="1" stop-color="#E64CFF"/>
</linearGradient>
</defs>
</svg>
