<svg width="15" height="15" viewBox="0 0 15 15" fill="none" xmlns="http://www.w3.org/2000/svg">
<path fill-rule="evenodd" clip-rule="evenodd" d="M7.61424 0.895359C7.61458 0.895472 7.61504 0.895472 7.61538 0.895472C7.61685 0.895586 7.61833 0.895699 7.6198 0.895813C7.624 0.895926 7.62808 0.896266 7.63228 0.89672C7.7076 0.905795 7.76658 0.965687 7.77464 1.04112C8.49584 4.74382 10.5527 7.08171 14.4587 7.72811C14.5293 7.73424 14.5877 7.78539 14.6032 7.85447C14.6033 7.85504 14.6035 7.8555 14.6036 7.85606C14.6046 7.86071 14.6054 7.86536 14.606 7.87001C14.6061 7.87126 14.6062 7.87251 14.6063 7.87376C14.6068 7.8775 14.607 7.88124 14.6071 7.88499C14.6072 7.88748 14.6072 7.88998 14.6071 7.89247C14.6071 7.8952 14.6071 7.89781 14.6069 7.90053C14.6066 7.90427 14.6063 7.90801 14.6057 7.91164C14.6056 7.91289 14.6054 7.91414 14.6053 7.91539C14.6045 7.92049 14.6035 7.92548 14.6022 7.93036C14.5851 7.99796 14.5269 8.04719 14.4574 8.05264C10.5528 8.69933 8.49633 11.0363 7.77502 14.7373C7.76776 14.815 7.70639 14.8766 7.6288 14.8841H7.62744H7.6271C7.62404 14.8842 7.62086 14.8842 7.61769 14.8841C7.61519 14.8842 7.61258 14.8842 7.60997 14.8841H7.60657C7.52569 14.8811 7.45934 14.8192 7.45072 14.7388C6.72792 11.0361 4.67277 8.69848 0.76692 8.05179C0.696138 8.04578 0.637494 7.99462 0.621952 7.92543C0.621839 7.92486 0.621725 7.92429 0.621612 7.92384C0.620591 7.91919 0.619797 7.91454 0.61923 7.90977C0.619116 7.90852 0.619003 7.90728 0.61889 7.90603C0.618436 7.90229 0.618209 7.89854 0.618096 7.8948C0.617982 7.8923 0.617982 7.88981 0.618096 7.88731C0.618096 7.8847 0.618096 7.88209 0.618322 7.87937C0.618549 7.87563 0.61889 7.87189 0.619457 7.86814C0.61957 7.8669 0.619797 7.86565 0.61991 7.8644C0.620704 7.85941 0.621725 7.85442 0.622973 7.84943C0.639988 7.78205 0.698065 7.73282 0.767487 7.72715C4.67201 7.08046 6.72706 4.74373 7.45041 1.04248C7.45767 0.964893 7.51904 0.9033 7.59663 0.895814C7.59708 0.8957 7.59753 0.8957 7.59799 0.895587H7.59844C7.6015 0.895473 7.60468 0.89536 7.60774 0.895246C7.6099 0.895133 7.61217 0.89502 7.61432 0.89502L7.61424 0.895359Z" fill="url(#paint0_linear_1244_9010)"/>
<defs>
<linearGradient id="paint0_linear_1244_9010" x1="7.61259" y1="0.89502" x2="7.61259" y2="14.8842" gradientUnits="userSpaceOnUse">
<stop stop-color="white"/>
<stop offset="1" stop-color="#FDF3FE"/>
</linearGradient>
</defs>
</svg>
